{
.appVersion = "983";
copyright = "Copyright 2011 The Sigmar One Project Authors (contact@sansoxygen.com)";
customParameters = (
{
name = license;
value = "This Font Software is licensed under the SIL Open Font License, Version 1.1. This license is available with a FAQ at: http://scripts.sil.org/OFL";
},
{
name = licenseURL;
value = "http://scripts.sil.org/OFL";
},
{
name = vendorID;
value = NeWT;
},
{
name = panose;
value = (
0,
0,
5,
0,
0,
0,
0,
0,
0,
0
);
},
{
name = unicodeRanges;
value = (
0,
1,
2,
29
);
},
{
name = codePageRanges;
value = (
1252,
1250,
1254,
1257,
1258
);
},
{
name = glyphOrder;
value = (
.notdef,
NULL,
uni000D,
space,
A,
Aacute,
Abreve,
uni1EAE,
uni1EB6,
uni1EB0,
uni1EB2,
uni1EB4,
Acircumflex,
uni1EA4,
uni1EAC,
uni1EA6,
uni1EA8,
uni1EAA,
uni0200,
Adieresis,
uni1EA0,
Agrave,
uni1EA2,
uni0202,
Amacron,
Aogonek,
Aring,
Aringacute,
Atilde,
AE,
AEacute,
B,
C,
Cacute,
Ccaron,
Ccedilla,
Ccircumflex,
Cdotaccent,
D,
uni01C4,
Eth,
Dcaron,
Dcroat,
uni01C5,
E,
Eacute,
Ebreve,
Ecaron,
Ecircumflex,
uni1EBE,
uni1EC6,
uni1EC0,
uni1EC2,
uni1EC4,
uni0204,
Edieresis,
Edotaccent,
uni1EB8,
Egrave,
uni1EBA,
uni0206,
Emacron,
Eogonek,
uni1EBC,
F,
G,
Gbreve,
Gcaron,
Gcircumflex,
Gcommaaccent,
Gdotaccent,
H,
Hbar,
Hcircumflex,
I,
IJ,
Iacute,
Ibreve,
Icircumflex,
uni0208,
Idieresis,
Idotaccent,
uni1ECA,
Igrave,
uni1EC8,
uni020A,
Imacron,
Iogonek,
Itilde,
J,
Jcircumflex,
K,
Kcommaaccent,
L,
uni01C7,
Lacute,
Lcaron,
Lcommaaccent,
Ldot,
uni01C8,
Lslash,
M,
N,
uni01CA,
Nacute,
Ncaron,
Ncommaaccent,
Eng,
uni01CB,
Ntilde,
O,
Oacute,
Obreve,
Ocircumflex,
uni1ED0,
uni1ED8,
uni1ED2,
uni1ED4,
uni1ED6,
uni020C,
Odieresis,
uni022A,
uni0230,
uni1ECC,
Ograve,
uni1ECE,
Ohorn,
uni1EDA,
uni1EE2,
uni1EDC,
uni1EDE,
uni1EE0,
Ohungarumlaut,
uni020E,
Omacron,
uni01EA,
Oslash,
Oslashacute,
Otilde,
uni022C,
OE,
P,
Thorn,
Q,
R,
Racute,
Rcaron,
Rcommaaccent,
uni0210,
uni0212,
S,
Sacute,
Scaron,
Scedilla,
Scircumflex,
Scommaaccent,
uni1E9E,
uni018F,
T,
Tbar,
Tcaron,
uni0162,
uni021A,
U,

glyphs = (
{
glyphname = A;
lastChange = "2017-07-05 14:52:31 +0000";
layers = (
{
layerId = "CBDECE4A-293B-4E5C-B714-A3FD26C7130D";
paths = (
{
closed = 1;
nodes = (
"806 -1 LINE SMOOTH",
"815 -1 OFFCURVE",
"821 6 OFFCURVE",
"824 19 CURVE",
"825 21 OFFCURVE",
"825 24 OFFCURVE",
"825 29 CURVE SMOOTH",
"825 42 OFFCURVE",
"819 70 OFFCURVE",
"817 80 CURVE SMOOTH",
"816 85 OFFCURVE",
"816 88 OFFCURVE",
"815 91 CURVE",
"795 185 OFFCURVE",
"775 268 OFFCURVE",
"756 339 CURVE",
"686 655 LINE",
"686 658 OFFCURVE",
"681 665 OFFCURVE",
"676 666 CURVE",
"671 666 LINE",
"671 665 OFFCURVE",
"670 665 OFFCURVE",
"668 665 CURVE SMOOTH",
"660 665 OFFCURVE",
"651 666 OFFCURVE",
"641 668 CURVE SMOOTH",
"631 670 OFFCURVE",
"622 671 OFFCURVE",
"614 671 CURVE SMOOTH",
"599 671 OFFCURVE",
"586 670 OFFCURVE",
"573 668 CURVE",
"567 668 OFFCURVE",
"560 668 OFFCURVE",
"553 667 CURVE SMOOTH",
"546 666 OFFCURVE",
"538 666 OFFCURVE",
"530 666 CURVE SMOOTH",
"527 666 OFFCURVE",
"524 667 OFFCURVE",
"521 668 CURVE",
"503 668 LINE",
"480 668 LINE",
"456 669 LINE",
"451 670 OFFCURVE",
"446 670 OFFCURVE",
"439 670 CURVE SMOOTH",
"434 670 OFFCURVE",
"431 670 OFFCURVE",
"431 671 CURVE",
"415 671 LINE",
"381 671 LINE",
"339 671 LINE SMOOTH",
"302 671 OFFCURVE",
"277 670 OFFCURVE",
"265 669 CURVE",
"261 669 OFFCURVE",
"251 669 OFFCURVE",
"250 666 CURVE",
"245 666 OFFCURVE",
"241 666 OFFCURVE",
"236 667 CURVE SMOOTH",
"231 668 OFFCURVE",
"227 668 OFFCURVE",
"223 668 CURVE",
"214 670 OFFCURVE",
"205 671 OFFCURVE",
"196 671 CURVE SMOOTH",
"192 671 OFFCURVE",
"188 670 OFFCURVE",
"184 668 CURVE SMOOTH",
"180 666 OFFCURVE",
"176 665 OFFCURVE",
"171 665 CURVE",
"166 666 LINE",
"163 666 LINE",
"159 663 OFFCURVE",
"153 658 OFFCURVE",
"153 655 CURVE",
"83 339 LINE",
"62 261 OFFCURVE",
"42 178 OFFCURVE",
"25 91 CURVE",
"25 87 OFFCURVE",
"24 83 OFFCURVE",
"21 78 CURVE",
"20 73 OFFCURVE",
"19 67 OFFCURVE",
"18 59 CURVE SMOOTH",
"17 51 OFFCURVE",
"16 44 OFFCURVE",
"16 39 CURVE",
"15 36 OFFCURVE",
"15 33 OFFCURVE",
"15 28 CURVE SMOOTH",
"15 19 OFFCURVE",
"17 11 OFFCURVE",
"21 5 CURVE",
"24 1 OFFCURVE",
"28 -1 OFFCURVE",
"33 -1 CURVE SMOOTH",
"46 -1 LINE SMOOTH",
"56 -1 OFFCURVE",
"64 -1 OFFCURVE",
"69 0 CURVE",
"95 0 LINE",
"120 0 LINE",
"140 0 LINE SMOOTH",
"145 0 OFFCURVE",
"148 0 OFFCURVE",
"148 1 CURVE",
"211 1 LINE",
"211 3 LINE",
"214 4 OFFCURVE",
"217 5 OFFCURVE",
"221 5 CURVE",
"221 5 OFFCURVE",
"221 5 OFFCURVE",
"221 5 CURVE",
"222 4 OFFCURVE",
"222 4 OFFCURVE",
"223 3 CURVE",
"223 2 OFFCURVE",
"224 1 OFFCURVE",
"225 1 CURVE SMOOTH",
"228 1 LINE",
"236 1 LINE",
"239 2 OFFCURVE",
"246 3 OFFCURVE",
"256 3 CURVE",
"276 4 OFFCURVE",
"292 5 OFFCURVE",
"303 5 CURVE",
"311 17 OFFCURVE",
"320 57 OFFCURVE",
"329 101 CURVE",
"330 112 OFFCURVE",
"332 119 OFFCURVE",
"333 123 CURVE",
"347 120 OFFCURVE",
"365 119 OFFCURVE",
"388 119 CURVE SMOOTH",
"419 119 LINE",
"448 119 LINE",
"455 87 LINE SMOOTH",
"464 43 OFFCURVE",
"471 16 OFFCURVE",
"476 5 CURVE",
"479 5 OFFCURVE",
"482 4 OFFCURVE",
"486 3 CURVE",
"487 2 OFFCURVE",
"488 2 OFFCURVE",
"489 2 CURVE",
"490 1 OFFCURVE",
"491 1 OFFCURVE",
"491 1 CURVE",
"495 1 LINE SMOOTH",
"499 1 OFFCURVE",
"502 2 OFFCURVE",
"504 3 CURVE",
"505 4 OFFCURVE",
"507 5 OFFCURVE",
"509 5 CURVE",
"554 3 LINE",
"570 3 LINE",
"585 3 LINE",
"588 2 OFFCURVE",
"591 1 OFFCURVE",
"595 1 CURVE SMOOTH",
"599 1 LINE",
"691 1 LINE",
"700 1 LINE",
"707 0 OFFCURVE",
"722 0 OFFCURVE",
"745 0 CURVE SMOOTH",
"771 0 LINE",
"776 -1 OFFCURVE",
"784 -1 OFFCURVE",
"794 -1 CURVE SMOOTH"
);
},
{
closed = 1;
nodes = (
"349 277 OFFCURVE",
"351 293 OFFCURVE",
"351 293 CURVE",
"355 312 OFFCURVE",
"362 351 OFFCURVE",
"371 410 CURVE SMOOTH",
"376 442 OFFCURVE",
"379 458 OFFCURVE",
"379 458 CURVE",
"381 471 OFFCURVE",
"383 483 OFFCURVE",
"385 493 CURVE",
"386 506 LINE",
"388 509 OFFCURVE",
"389 512 OFFCURVE",
"389 515 CURVE",
"390 521 LINE",
"391 520 OFFCURVE",
"391 518 OFFCURVE",
"391 515 CURVE SMOOTH",
"391 512 OFFCURVE",
"392 511 OFFCURVE",
"393 510 CURVE",
"393 506 LINE",
"395 493 LINE",
"396 484 OFFCURVE",
"398 472 OFFCURVE",
"401 459 CURVE",
"406 431 LINE SMOOTH",
"413 389 OFFCURVE",
"418 355 OFFCURVE",
"419 348 CURVE SMOOTH",
"420 341 OFFCURVE",
"421 330 OFFCURVE",
"424 315 CURVE SMOOTH",
"425 310 OFFCURVE",
"427 303 OFFCURVE",
"428 294 CURVE",
"436 248 LINE",
"385 248 LINE",
"378 250 LINE",
"376 250 LINE SMOOTH",
"368 250 OFFCURVE",
"362 249 OFFCURVE",
"358 248 CURVE",
"355 248 OFFCURVE",
"353 248 OFFCURVE",
"350 247 CURVE",
"348 246 OFFCURVE",
"346 245 OFFCURVE",
"344 244 CURVE"
);
},
{
closed = 1;
nodes = (
"806 -1 LINE SMOOTH",
"815 -1 OFFCURVE",
"821 6 OFFCURVE",
"824 19 CURVE",
"825 21 OFFCURVE",
"825 24 OFFCURVE",
"825 29 CURVE SMOOTH",
"825 42 OFFCURVE",
"819 70 OFFCURVE",
"817 80 CURVE SMOOTH",
"816 85 OFFCURVE",
"816 88 OFFCURVE",
"815 91 CURVE",
"795 185 OFFCURVE",
"775 268 OFFCURVE",
"756 339 CURVE",
"686 655 LINE",
"686 658 OFFCURVE",
"681 665 OFFCURVE",
"676 666 CURVE",
"671 666 LINE",
"671 665 OFFCURVE",
"670 665 OFFCURVE",
"668 665 CURVE SMOOTH",
"660 665 OFFCURVE",
"651 666 OFFCURVE",
"641 668 CURVE SMOOTH",
"631 670 OFFCURVE",
"622 671 OFFCURVE",
"614 671 CURVE SMOOTH",
"599 671 OFFCURVE",
"586 670 OFFCURVE",
"573 668 CURVE",
"567 668 OFFCURVE",
"560 668 OFFCURVE",
"553 667 CURVE SMOOTH",
"546 666 OFFCURVE",
"538 666 OFFCURVE",
"530 666 CURVE SMOOTH",
"527 666 OFFCURVE",
"524 667 OFFCURVE",
"521 668 CURVE",
"503 668 LINE",
"480 668 LINE",
"456 669 LINE",
"451 670 OFFCURVE",
"446 670 OFFCURVE",
"439 670 CURVE SMOOTH",
"434 670 OFFCURVE",
"431 670 OFFCURVE",
"431 671 CURVE",
"415 671 LINE",
"381 671 LINE",
"339 671 LINE SMOOTH",
"302 671 OFFCURVE",
"277 670 OFFCURVE",
"265 669 CURVE",
"261 669 OFFCURVE",
"251 669 OFFCURVE",
"250 666 CURVE",
"245 666 OFFCURVE",
"241 666 OFFCURVE",
"236 667 CURVE SMOOTH",
"231 668 OFFCURVE",
"227 668 OFFCURVE",
"223 668 CURVE",
"214 670 OFFCURVE",
"205 671 OFFCURVE",
"196 671 CURVE SMOOTH",
"192 671 OFFCURVE",
"188 670 OFFCURVE",
"184 668 CURVE SMOOTH",
"180 666 OFFCURVE",
"176 665 OFFCURVE",
"171 665 CURVE",
"166 666 LINE",
"163 666 LINE",
"159 663 OFFCURVE",
"153 658 OFFCURVE",
"153 655 CURVE",
"83 339 LINE",
"62 261 OFFCURVE",
"42 178 OFFCURVE",
"25 91 CURVE",
"25 87 OFFCURVE",
"24 83 OFFCURVE",
"21 78 CURVE",
"20 73 OFFCURVE",
"19 67 OFFCURVE",
"18 59 CURVE SMOOTH",
"17 51 OFFCURVE",
"16 44 OFFCURVE",
"16 39 CURVE",
"15 36 OFFCURVE",
"15 33 OFFCURVE",
"15 28 CURVE SMOOTH",
"15 19 OFFCURVE",
"17 11 OFFCURVE",
"21 5 CURVE",
"24 1 OFFCURVE",
"28 -1 OFFCURVE",
"33 -1 CURVE SMOOTH",
"46 -1 LINE SMOOTH",
"56 -1 OFFCURVE",
"64 -1 OFFCURVE",
"69 0 CURVE",
"95 0 LINE",
"120 0 LINE",
"140 0 LINE SMOOTH",
"145 0 OFFCURVE",
"148 0 OFFCURVE",
"148 1 CURVE",
"211 1 LINE",
"211 3 LINE",
"214 4 OFFCURVE",
"217 5 OFFCURVE",
"221 5 CURVE",
"221 5 OFFCURVE",
"221 5 OFFCURVE",
"221 5 CURVE",
"222 4 OFFCURVE",
"222 4 OFFCURVE",
"223 3 CURVE",
"223 2 OFFCURVE",
"224 1 OFFCURVE",
"225 1 CURVE SMOOTH",
"228 1 LINE",
"236 1 LINE",
"239 2 OFFCURVE",
"246 3 OFFCURVE",
"256 3 CURVE",
"276 4 OFFCURVE",
"292 5 OFFCURVE",
"303 5 CURVE",
"311 17 OFFCURVE",
"320 57 OFFCURVE",
"329 101 CURVE",
"330 112 OFFCURVE",
"332 119 OFFCURVE",
"333 123 CURVE",
"347 120 OFFCURVE",
"365 119 OFFCURVE",
"388 119 CURVE SMOOTH",
"419 119 LINE",
"448 119 LINE",
"455 87 LINE SMOOTH",
"464 43 OFFCURVE",
"471 16 OFFCURVE",
"476 5 CURVE",
"479 5 OFFCURVE",
"482 4 OFFCURVE",
"486 3 CURVE",
"487 2 OFFCURVE",
"488 2 OFFCURVE",
"489 2 CURVE",
"490 1 OFFCURVE",
"491 1 OFFCURVE",
"491 1 CURVE",
"495 1 LINE SMOOTH",
"499 1 OFFCURVE",
"502 2 OFFCURVE",
"504 3 CURVE",
"505 4 OFFCURVE",
"507 5 OFFCURVE",
"509 5 CURVE",
"554 3 LINE",
"570 3 LINE",
"585 3 LINE",
"588 2 OFFCURVE",
"591 1 OFFCURVE",
"595 1 CURVE SMOOTH",
"599 1 LINE",
"691 1 LINE",
"700 1 LINE",
"707 0 OFFCURVE",
"722 0 OFFCURVE",
"745 0 CURVE SMOOTH",
"771 0 LINE",
"776 -1 OFFCURVE",
"784 -1 OFFCURVE",
"794 -1 CURVE SMOOTH"
);
},
{
closed = 1;
nodes = (
"349 277 OFFCURVE",
"351 293 OFFCURVE",
"351 293 CURVE",
"355 312 OFFCURVE",
"362 351 OFFCURVE",
"371 410 CURVE SMOOTH",
"376 442 OFFCURVE",
"379 458 OFFCURVE",
"379 458 CURVE",
"381 471 OFFCURVE",
"383 483 OFFCURVE",
"385 493 CURVE",
"386 506 LINE",
"388 509 OFFCURVE",
"389 512 OFFCURVE",
"389 515 CURVE",
"390 521 LINE",
"391 520 OFFCURVE",
"391 518 OFFCURVE",
"391 515 CURVE SMOOTH",
"391 512 OFFCURVE",
"392 511 OFFCURVE",
"393 510 CURVE",
"393 506 LINE",
"395 493 LINE",
"396 484 OFFCURVE",
"398 472 OFFCURVE",
"401 459 CURVE",
"406 431 LINE SMOOTH",
"413 389 OFFCURVE",
"418 355 OFFCURVE",
"419 348 CURVE SMOOTH",
"420 341 OFFCURVE",
"421 330 OFFCURVE",
"424 315 CURVE SMOOTH",
"425 310 OFFCURVE",
"427 303 OFFCURVE",
"428 294 CURVE",
"436 248 LINE",
"385 248 LINE",
"378 250 LINE",
"376 250 LINE SMOOTH",
"368 250 OFFCURVE",
"362 249 OFFCURVE",
"358 248 CURVE",
"355 248 OFFCURVE",
"353 248 OFFCURVE",
"350 247 CURVE",
"348 246 OFFCURVE",
"346 245 OFFCURVE",
"344 244 CURVE"
);
}
);
width = 840;
}
);
note = A;
unicode = 0041;
},
{
glyphname = Aogonek;
lastChange = "2017-06-11 23:28:21 +0000";
layers = (
{
layerId = "CBDECE4A-293B-4E5C-B714-A3FD26C7130D";
paths = (
{
closed = 1;
nodes = (
"846 -154 OFFCURVE",
"817 -160 OFFCURVE",
"790 -160 CURVE SMOOTH",
"781 -160 OFFCURVE",
"775 -160 OFFCURVE",
"770 -161 CURVE",
"762 -164 OFFCURVE",
"752 -159 OFFCURVE",
"749 -158 CURVE",
"734 -154 OFFCURVE",
"726 -146 OFFCURVE",
"726 -126 CURVE SMOOTH",
"726 -118 OFFCURVE",
"730 -106 OFFCURVE",
"739 -90 CURVE SMOOTH",
"752 -67 OFFCURVE",
"766 -49 OFFCURVE",
"785 -33 CURVE",
"816 -1 LINE",
"833 -1 LINE",
"846 -1 LINE SMOOTH",
"851 -1 OFFCURVE",
"855 1 OFFCURVE",
"858 5 CURVE",
"862 11 OFFCURVE",
"864 19 OFFCURVE",
"864 28 CURVE SMOOTH",
"864 33 OFFCURVE",
"864 36 OFFCURVE",
"863 39 CURVE",
"863 44 OFFCURVE",
"862 51 OFFCURVE",
"861 59 CURVE SMOOTH",
"860 67 OFFCURVE",
"859 73 OFFCURVE",
"858 78 CURVE",
"855 83 OFFCURVE",
"854 87 OFFCURVE",
"854 91 CURVE",
"837 178 OFFCURVE",
"817 261 OFFCURVE",
"796 339 CURVE",
"726 655 LINE",
"726 658 OFFCURVE",
"720 663 OFFCURVE",
"716 666 CURVE",
"713 666 LINE",
"708 665 LINE",
"703 665 OFFCURVE",
"699 666 OFFCURVE",
"695 668 CURVE SMOOTH",
"691 670 OFFCURVE",
"687 671 OFFCURVE",
"683 671 CURVE SMOOTH",
"674 671 OFFCURVE",
"665 670 OFFCURVE",
"656 668 CURVE",
"652 668 OFFCURVE",
"648 668 OFFCURVE",
"643 667 CURVE SMOOTH",
"638 666 OFFCURVE",
"634 666 OFFCURVE",
"629 666 CURVE",
"628 669 OFFCURVE",
"618 669 OFFCURVE",
"614 669 CURVE",
"602 670 OFFCURVE",
"577 671 OFFCURVE",
"540 671 CURVE SMOOTH",
"498 671 LINE",
"464 671 LINE",
"448 671 LINE",
"448 670 OFFCURVE",
"445 670 OFFCURVE",
"440 670 CURVE SMOOTH",
"433 670 OFFCURVE",
"428 670 OFFCURVE",
"423 669 CURVE",
"399 668 LINE",
"376 668 LINE",
"358 668 LINE",
"355 667 OFFCURVE",
"352 666 OFFCURVE",
"349 666 CURVE SMOOTH",
"341 666 OFFCURVE",
"333 666 OFFCURVE",
"326 667 CURVE SMOOTH",
"319 668 OFFCURVE",
"312 668 OFFCURVE",
"306 668 CURVE",
"293 670 OFFCURVE",
"280 671 OFFCURVE",
"265 671 CURVE SMOOTH",
"257 671 OFFCURVE",
"248 670 OFFCURVE",
"238 668 CURVE SMOOTH",
"228 666 OFFCURVE",
"219 665 OFFCURVE",
"211 665 CURVE SMOOTH",
"209 665 OFFCURVE",
"208 665 OFFCURVE",
"208 666 CURVE",
"203 666 LINE",
"198 665 OFFCURVE",
"193 658 OFFCURVE",
"193 655 CURVE",
"123 339 LINE",
"104 268 OFFCURVE",
"84 185 OFFCURVE",
"64 91 CURVE",
"63 88 OFFCURVE",
"63 85 OFFCURVE",
"62 80 CURVE SMOOTH",
"60 70 OFFCURVE",
"54 42 OFFCURVE",
"54 29 CURVE SMOOTH",
"54 24 OFFCURVE",
"54 21 OFFCURVE",
"55 19 CURVE",
"58 6 OFFCURVE",
"64 -1 OFFCURVE",
"73 -1 CURVE SMOOTH",
"85 -1 LINE SMOOTH",
"95 -1 OFFCURVE",
"103 -1 OFFCURVE",
"108 0 CURVE",
"134 0 LINE SMOOTH",
"157 0 OFFCURVE",
"172 0 OFFCURVE",
"179 1 CURVE",
"188 1 LINE",
"280 1 LINE",
"284 1 LINE SMOOTH",
"288 1 OFFCURVE",
"291 2 OFFCURVE",
"294 3 CURVE",
"309 3 LINE",
"325 3 LINE",
"370 5 LINE",
"372 5 OFFCURVE",
"374 4 OFFCURVE",
"375 3 CURVE",
"377 2 OFFCURVE",
"380 1 OFFCURVE",
"384 1 CURVE SMOOTH",
"388 1 LINE",
"388 1 OFFCURVE",
"389 1 OFFCURVE",
"390 2 CURVE",
"391 2 OFFCURVE",
"392 2 OFFCURVE",
"393 3 CURVE",
"397 4 OFFCURVE",
"400 5 OFFCURVE",
"403 5 CURVE",
"408 16 OFFCURVE",
"415 43 OFFCURVE",
"424 87 CURVE SMOOTH",
"431 119 LINE",
"460 119 LINE",
"491 119 LINE SMOOTH",
"514 119 OFFCURVE",
"532 120 OFFCURVE",
"546 123 CURVE",
"547 119 OFFCURVE",
"549 112 OFFCURVE",
"550 101 CURVE",
"559 57 OFFCURVE",
"568 17 OFFCURVE",
"576 5 CURVE",
"587 5 OFFCURVE",
"603 4 OFFCURVE",
"623 3 CURVE",
"633 3 OFFCURVE",
"640 2 OFFCURVE",
"643 1 CURVE",
"651 1 LINE",
"654 1 LINE SMOOTH",
"655 1 OFFCURVE",
"656 2 OFFCURVE",
"656 3 CURVE",
"657 4 OFFCURVE",
"657 4 OFFCURVE",
"658 5 CURVE",
"658 5 OFFCURVE",
"658 5 OFFCURVE",
"658 5 CURVE",
"662 5 LINE",
"639 -10 LINE SMOOTH",
"636 -12 OFFCURVE",
"630 -15 OFFCURVE",
"623 -19 CURVE",
"615 -24 OFFCURVE",
"609 -28 OFFCURVE",
"604 -33 CURVE",
"548 -70 OFFCURVE",
"521 -103 OFFCURVE",
"521 -163 CURVE SMOOTH",
"521 -175 OFFCURVE",
"523 -186 OFFCURVE",
"526 -195 CURVE",
"537 -220 OFFCURVE",
"560 -240 OFFCURVE",
"597 -253 CURVE SMOOTH",
"636 -268 OFFCURVE",
"691 -276 OFFCURVE",
"764 -276 CURVE",
"774 -274 LINE",
"776 -273 OFFCURVE",
"779 -273 OFFCURVE",
"782 -273 CURVE SMOOTH",
"785 -273 OFFCURVE",
"789 -272 OFFCURVE",
"794 -271 CURVE",
"805 -270 OFFCURVE",
"821 -265 OFFCURVE",
"841 -258 CURVE",
"854 -251 OFFCURVE",
"866 -245 OFFCURVE",
"867 -240 CURVE SMOOTH",
"884 -158 LINE",
"884 -153 LINE SMOOTH",
"884 -148 OFFCURVE",
"882 -145 OFFCURVE",
"877 -143 CURVE"
);
},
{
closed = 1;
nodes = (
"517 249 OFFCURVE",
"511 250 OFFCURVE",
"503 250 CURVE SMOOTH",
"501 250 LINE",
"494 248 LINE",
"443 248 LINE",
"451 294 LINE",
"452 303 OFFCURVE",
"454 310 OFFCURVE",
"455 315 CURVE SMOOTH",
"458 330 OFFCURVE",
"459 341 OFFCURVE",
"460 348 CURVE SMOOTH",
"461 355 OFFCURVE",
"466 379 OFFCURVE",
"473 421 CURVE SMOOTH",
"478 449 LINE",
"481 462 OFFCURVE",
"483 474 OFFCURVE",
"484 483 CURVE",
"486 496 LINE",
"486 500 LINE",
"487 501 OFFCURVE",
"488 502 OFFCURVE",
"488 505 CURVE SMOOTH",
"488 508 OFFCURVE",
"488 510 OFFCURVE",
"489 511 CURVE",
"490 505 LINE",
"490 502 OFFCURVE",
"491 499 OFFCURVE",
"493 496 CURVE",
"494 483 LINE",
"496 473 OFFCURVE",
"498 461 OFFCURVE",
"500 448 CURVE",
"500 448 OFFCURVE",
"503 432 OFFCURVE",
"508 400 CURVE SMOOTH",
"519 341 OFFCURVE",
"524 312 OFFCURVE",
"528 293 CURVE",
"528 293 OFFCURVE",
"530 277 OFFCURVE",
"535 244 CURVE",
"533 245 OFFCURVE",
"531 246 OFFCURVE",
"529 247 CURVE",
"526 248 OFFCURVE",
"524 248 OFFCURVE",
"521 248 CURVE"
);
}
);
width = 918;
}
);
note = Aogonek;
unicode = 0104;
},
{
glyphname = Aringacute;
lastChange = "2017-06-18 19:14:15 +0000";
layers = (
{
layerId = "CBDECE4A-293B-4E5C-B714-A3FD26C7130D";
paths = (
{
closed = 1;
nodes = (
"734 904 OFFCURVE",
"740 904 OFFCURVE",
"743 905 CURVE SMOOTH",
"746 906 OFFCURVE",
"750 906 OFFCURVE",
"753 906 CURVE",
"756 905 OFFCURVE",
"758 905 OFFCURVE",
"760 905 CURVE SMOOTH",
"778 905 LINE",
"780 906 LINE",
"784 904 LINE",
"787 905 OFFCURVE",
"791 905 OFFCURVE",
"796 905 CURVE SMOOTH",
"808 905 LINE SMOOTH",
"810 905 OFFCURVE",
"813 908 OFFCURVE",
"818 914 CURVE",
"827 936 OFFCURVE",
"834 953 OFFCURVE",
"838 964 CURVE",
"839 969 OFFCURVE",
"840 973 OFFCURVE",
"842 978 CURVE",
"844 982 OFFCURVE",
"845 985 OFFCURVE",
"846 987 CURVE SMOOTH",
"849 993 OFFCURVE",
"854 1006 OFFCURVE",
"863 1026 CURVE",
"866 1034 OFFCURVE",
"871 1052 OFFCURVE",
"879 1064 CURVE SMOOTH",
"881 1067 OFFCURVE",
"883 1069 OFFCURVE",
"884 1072 CURVE",
"885 1074 OFFCURVE",
"886 1076 OFFCURVE",
"888 1079 CURVE",
"889 1082 OFFCURVE",
"891 1084 OFFCURVE",
"892 1087 CURVE SMOOTH",
"893 1090 OFFCURVE",
"894 1092 OFFCURVE",
"895 1095 CURVE",
"900 1104 OFFCURVE",
"902 1110 OFFCURVE",
"903 1112 CURVE",
"908 1123 OFFCURVE",
"912 1132 OFFCURVE",
"916 1139 CURVE SMOOTH",
"923 1151 OFFCURVE",
"912 1153 OFFCURVE",
"905 1154 CURVE",
"901 1155 OFFCURVE",
"898 1155 OFFCURVE",
"895 1156 CURVE",
"893 1156 LINE",
"893 1155 OFFCURVE",
"892 1155 OFFCURVE",
"890 1155 CURVE",
"886 1157 LINE",
"859 1159 LINE",
"855 1159 LINE",
"853 1160 LINE",
"845 1160 LINE SMOOTH",
"842 1160 OFFCURVE",
"840 1160 OFFCURVE",
"839 1159 CURVE",
"835 1161 LINE",
"801 1160 LINE",
"761 1159 LINE",
"734 1155 LINE",
"730 1150 LINE",
"725 1125 OFFCURVE",
"720 1093 OFFCURVE",
"715 1054 CURVE",
"715 1021 LINE SMOOTH",
"715 1016 OFFCURVE",
"715 1010 OFFCURVE",
"714 1005 CURVE SMOOTH",
"713 999 OFFCURVE",
"713 994 OFFCURVE",
"713 989 CURVE SMOOTH",
"712 945 LINE SMOOTH",
"712 936 OFFCURVE",
"712 929 OFFCURVE",
"713 924 CURVE",
"714 911 OFFCURVE",
"717 904 OFFCURVE",
"726 904 CURVE SMOOTH"
);
},
{
closed = 1;
nodes = (
"492 713 OFFCURVE",
"513 713 OFFCURVE",
"545 721 CURVE SMOOTH",
"580 730 OFFCURVE",
"606 748 OFFCURVE",
"623 773 CURVE",
"628 774 LINE",
"652 807 OFFCURVE",
"664 852 OFFCURVE",
"664 895 CURVE SMOOTH",
"664 975 OFFCURVE",
"643 1014 OFFCURVE",
"574 1063 CURVE",
"542 1079 OFFCURVE",
"495 1083 OFFCURVE",
"448 1083 CURVE SMOOTH",
"445 1083 OFFCURVE",
"444 1082 OFFCURVE",
"444 1081 CURVE",
"440 1082 OFFCURVE",
"433 1083 OFFCURVE",
"423 1083 CURVE SMOOTH",
"377 1083 OFFCURVE",
"339 1062 OFFCURVE",
"309 1020 CURVE SMOOTH",
"282 983 OFFCURVE",
"268 935 OFFCURVE",
"268 890 CURVE SMOOTH",
"268 859 OFFCURVE",
"273 831 OFFCURVE",
"283 808 CURVE SMOOTH",
"312 740 OFFCURVE",
"371 713 OFFCURVE",
"440 713 CURVE SMOOTH"
);
},
{
closed = 1;
nodes = (
"443 828 OFFCURVE",
"433 830 OFFCURVE",
"424 835 CURVE SMOOTH",
"408 844 OFFCURVE",
"398 857 OFFCURVE",
"398 868 CURVE SMOOTH",
"398 870 OFFCURVE",
"398 872 OFFCURVE",
"397 873 CURVE SMOOTH",
"396 874 OFFCURVE",
"396 875 OFFCURVE",
"395 875 CURVE",
"395 881 LINE",
"395 886 LINE SMOOTH",
"395 921 OFFCURVE",
"403 946 OFFCURVE",
"418 960 CURVE",
"428 972 OFFCURVE",
"441 978 OFFCURVE",
"456 978 CURVE SMOOTH",
"470 978 OFFCURVE",
"483 976 OFFCURVE",
"495 973 CURVE SMOOTH",
"530 965 OFFCURVE",
"545 932 OFFCURVE",
"545 919 CURVE SMOOTH",
"545 915 LINE SMOOTH",
"545 907 OFFCURVE",
"543 898 OFFCURVE",
"540 888 CURVE SMOOTH",
"536 873 OFFCURVE",
"527 859 OFFCURVE",
"514 848 CURVE",
"502 835 OFFCURVE",
"483 828 OFFCURVE",
"456 828 CURVE SMOOTH"
);
},
{
closed = 1;
nodes = (
"845 -1 LINE SMOOTH",
"854 -1 OFFCURVE",
"860 6 OFFCURVE",
"863 19 CURVE",
"864 21 OFFCURVE",
"864 24 OFFCURVE",
"864 29 CURVE SMOOTH",
"864 42 OFFCURVE",
"858 70 OFFCURVE",
"856 80 CURVE SMOOTH",
"855 85 OFFCURVE",
"855 88 OFFCURVE",
"854 91 CURVE",
"834 185 OFFCURVE",
"814 268 OFFCURVE",
"795 339 CURVE",
"725 655 LINE",
"725 658 OFFCURVE",
"720 665 OFFCURVE",
"715 666 CURVE",
"710 666 LINE",
"710 665 OFFCURVE",
"709 665 OFFCURVE",
"707 665 CURVE SMOOTH",
"699 665 OFFCURVE",
"690 666 OFFCURVE",
"680 668 CURVE SMOOTH",
"670 670 OFFCURVE",
"661 671 OFFCURVE",
"653 671 CURVE SMOOTH",
"638 671 OFFCURVE",
"625 670 OFFCURVE",
"612 668 CURVE",
"606 668 OFFCURVE",
"599 668 OFFCURVE",
"592 667 CURVE SMOOTH",
"585 666 OFFCURVE",
"577 666 OFFCURVE",
"569 666 CURVE SMOOTH",
"566 666 OFFCURVE",
"563 667 OFFCURVE",
"560 668 CURVE",
"542 668 LINE",
"519 668 LINE",
"495 669 LINE",
"490 670 OFFCURVE",
"485 670 OFFCURVE",
"478 670 CURVE SMOOTH",
"473 670 OFFCURVE",
"470 670 OFFCURVE",
"470 671 CURVE",
"454 671 LINE",
"420 671 LINE",
"378 671 LINE SMOOTH",
"341 671 OFFCURVE",
"316 670 OFFCURVE",
"304 669 CURVE",
"300 669 OFFCURVE",
"290 669 OFFCURVE",
"289 666 CURVE",
"284 666 OFFCURVE",
"280 666 OFFCURVE",
"275 667 CURVE SMOOTH",
"270 668 OFFCURVE",
"266 668 OFFCURVE",
"262 668 CURVE",
"253 670 OFFCURVE",
"244 671 OFFCURVE",
"235 671 CURVE SMOOTH",
"231 671 OFFCURVE",
"227 670 OFFCURVE",
"223 668 CURVE SMOOTH",
"219 666 OFFCURVE",
"215 665 OFFCURVE",
"210 665 CURVE",
"205 666 LINE",
"202 666 LINE",
"198 663 OFFCURVE",
"192 658 OFFCURVE",
"192 655 CURVE",
"122 339 LINE",
"101 261 OFFCURVE",
"81 178 OFFCURVE",
"64 91 CURVE",
"64 87 OFFCURVE",
"63 83 OFFCURVE",
"60 78 CURVE",
"59 73 OFFCURVE",
"58 67 OFFCURVE",
"57 59 CURVE SMOOTH",
"56 51 OFFCURVE",
"55 44 OFFCURVE",
"55 39 CURVE",
"54 36 OFFCURVE",
"54 33 OFFCURVE",
"54 28 CURVE SMOOTH",
"54 19 OFFCURVE",
"56 11 OFFCURVE",
"60 5 CURVE",
"63 1 OFFCURVE",
"67 -1 OFFCURVE",
"72 -1 CURVE SMOOTH",
"85 -1 LINE SMOOTH",
"95 -1 OFFCURVE",
"103 -1 OFFCURVE",
"108 0 CURVE",
"134 0 LINE",
"159 0 LINE",
"179 0 LINE SMOOTH",
"184 0 OFFCURVE",
"187 0 OFFCURVE",
"187 1 CURVE",
"250 1 LINE",
"250 3 LINE",
"253 4 OFFCURVE",
"256 5 OFFCURVE",
"260 5 CURVE",
"260 5 OFFCURVE",
"260 5 OFFCURVE",
"260 5 CURVE",
"261 4 OFFCURVE",
"261 4 OFFCURVE",
"262 3 CURVE",
"262 2 OFFCURVE",
"263 1 OFFCURVE",
"264 1 CURVE SMOOTH",
"267 1 LINE",
"275 1 LINE",
"278 2 OFFCURVE",
"285 3 OFFCURVE",
"295 3 CURVE",
"315 4 OFFCURVE",
"331 5 OFFCURVE",
"342 5 CURVE",
"350 17 OFFCURVE",
"359 57 OFFCURVE",
"368 101 CURVE",
"369 112 OFFCURVE",
"371 119 OFFCURVE",
"372 123 CURVE",
"386 120 OFFCURVE",
"404 119 OFFCURVE",
"427 119 CURVE SMOOTH",
"458 119 LINE",
"487 119 LINE",
"494 87 LINE SMOOTH",
"503 43 OFFCURVE",
"510 16 OFFCURVE",
"515 5 CURVE",
"518 5 OFFCURVE",
"521 4 OFFCURVE",
"525 3 CURVE",
"526 2 OFFCURVE",
"527 2 OFFCURVE",
"528 2 CURVE",
"529 1 OFFCURVE",
"530 1 OFFCURVE",
"530 1 CURVE",
"534 1 LINE SMOOTH",
"538 1 OFFCURVE",
"541 2 OFFCURVE",
"543 3 CURVE",
"544 4 OFFCURVE",
"546 5 OFFCURVE",
"548 5 CURVE",
"593 3 LINE",
"609 3 LINE",
"624 3 LINE",
"627 2 OFFCURVE",
"630 1 OFFCURVE",
"634 1 CURVE SMOOTH",
"638 1 LINE",
"730 1 LINE",
"739 1 LINE",
"746 0 OFFCURVE",
"761 0 OFFCURVE",
"784 0 CURVE SMOOTH",
"810 0 LINE",
"815 -1 OFFCURVE",
"823 -1 OFFCURVE",
"833 -1 CURVE SMOOTH"
);
},
{
closed = 1;
nodes = (
"388 277 OFFCURVE",
"390 293 OFFCURVE",
"390 293 CURVE",
"394 312 OFFCURVE",
"399 341 OFFCURVE",
"410 400 CURVE SMOOTH",
"415 432 OFFCURVE",
"418 448 OFFCURVE",
"418 448 CURVE",
"420 461 OFFCURVE",
"422 473 OFFCURVE",
"424 483 CURVE",
"425 496 LINE",
"427 499 OFFCURVE",
"428 502 OFFCURVE",
"428 505 CURVE",
"429 511 LINE",
"430 510 OFFCURVE",
"430 508 OFFCURVE",
"430 505 CURVE SMOOTH",
"430 502 OFFCURVE",
"431 501 OFFCURVE",
"432 500 CURVE",
"432 496 LINE",
"434 483 LINE",
"435 474 OFFCURVE",
"437 462 OFFCURVE",
"440 449 CURVE",
"445 421 LINE SMOOTH",
"452 379 OFFCURVE",
"457 355 OFFCURVE",
"458 348 CURVE SMOOTH",
"459 341 OFFCURVE",
"460 330 OFFCURVE",
"463 315 CURVE SMOOTH",
"464 310 OFFCURVE",
"466 303 OFFCURVE",
"467 294 CURVE",
"475 248 LINE",
"424 248 LINE",
"417 250 LINE",
"415 250 LINE SMOOTH",
"407 250 OFFCURVE",
"401 249 OFFCURVE",
"397 248 CURVE",
"394 248 OFFCURVE",
"392 248 OFFCURVE",
"389 247 CURVE",
"387 246 OFFCURVE",
"385 245 OFFCURVE",
"383 244 CURVE"
);
}
);
width = 918;
}
);
note = Aringacute;
unicode = 01FA;
},
{
glyphname = AE;
lastChange = "2017-07-05 12:38:55 +0000";
layers = (
{
layerId = "CBDECE4A-293B-4E5C-B714-A3FD26C7130D";
paths = (
{
closed = 1;
nodes = (
"167 -1 OFFCURVE",
"174 -1 OFFCURVE",
"179 0 CURVE",
"205 0 LINE SMOOTH",
"228 0 OFFCURVE",
"243 0 OFFCURVE",
"250 1 CURVE",
"259 1 LINE",
"311 1 LINE",
"315 1 LINE SMOOTH",
"319 1 OFFCURVE",
"323 2 OFFCURVE",
"326 3 CURVE",
"340 3 LINE",
"358 3 LINE",
"403 5 LINE",
"408 3 LINE",
"409 2 OFFCURVE",
"411 1 OFFCURVE",
"415 1 CURVE SMOOTH",
"418 1 LINE SMOOTH",
"420 1 OFFCURVE",
"422 2 OFFCURVE",
"425 3 CURVE",
"434 5 LINE",
"440 12 OFFCURVE",
"447 25 OFFCURVE",
"455 42 CURVE SMOOTH",
"463 59 OFFCURVE",
"474 84 OFFCURVE",
"489 119 CURVE",
"544 119 LINE",
"561 118 OFFCURVE",
"578 120 OFFCURVE",
"595 123 CURVE",
"594 104 OFFCURVE",
"594 79 OFFCURVE",
"594 48 CURVE SMOOTH",
"594 27 OFFCURVE",
"595 12 OFFCURVE",
"598 5 CURVE",
"609 5 OFFCURVE",
"625 4 OFFCURVE",
"645 3 CURVE",
"654 3 OFFCURVE",
"661 2 OFFCURVE",
"665 1 CURVE",
"673 1 LINE",
"676 1 LINE SMOOTH",
"677 1 OFFCURVE",
"677 1 OFFCURVE",
"678 2 CURVE",
"678 3 OFFCURVE",
"678 3 OFFCURVE",
"679 3 CURVE SMOOTH",
"690 3 LINE",
"690 1 LINE",
"698 1 LINE",
"702 0 OFFCURVE",
"706 0 OFFCURVE",
"711 0 CURVE SMOOTH",
"738 0 LINE",
"791 0 LINE",
"796 -1 OFFCURVE",
"804 -1 OFFCURVE",
"813 -1 CURVE SMOOTH",
"828 -1 LINE",
"834 0 LINE",
"869 0 OFFCURVE",
"895 0 OFFCURVE",
"913 1 CURVE",
"1018 1 LINE SMOOTH",
"1046 1 OFFCURVE",
"1066 2 OFFCURVE",
"1079 3 CURVE",
"1104 4 OFFCURVE",
"1125 5 OFFCURVE",
"1140 5 CURVE SMOOTH",
"1153 5 OFFCURVE",
"1160 12 OFFCURVE",
"1160 26 CURVE",
"1159 41 LINE",
"1156 69 LINE",
"1153 91 LINE SMOOTH",
"1150 110 OFFCURVE",
"1148 125 OFFCURVE",
"1145 136 CURVE SMOOTH",
"1143 143 LINE",
"1046 143 LINE",
"919 143 LINE",
"919 160 OFFCURVE",
"919 171 OFFCURVE",
"920 178 CURVE",
"922 185 OFFCURVE",
"923 197 OFFCURVE",
"923 213 CURVE SMOOTH",
"923 228 OFFCURVE",
"924 238 OFFCURVE",
"926 243 CURVE",
"927 248 OFFCURVE",
"931 251 OFFCURVE",
"938 253 CURVE",
"943 254 OFFCURVE",
"955 254 OFFCURVE",
"974 254 CURVE",
"985 253 OFFCURVE",
"1007 253 OFFCURVE",
"1041 253 CURVE SMOOTH",
"1080 253 OFFCURVE",
"1106 255 OFFCURVE",
"1121 258 CURVE",
"1146 260 OFFCURVE",
"1158 267 OFFCURVE",
"1158 278 CURVE SMOOTH",
"1158 281 LINE",
"1153 370 LINE",
"1148 383 LINE",
"1145 387 OFFCURVE",
"1140 390 OFFCURVE",
"1133 393 CURVE",
"1119 393 LINE",
"1086 396 OFFCURVE",
"1056 398 OFFCURVE",
"1031 398 CURVE SMOOTH",
"941 398 LINE SMOOTH",
"929 398 OFFCURVE",
"926 401 OFFCURVE",
"926 418 CURVE SMOOTH",
"926 427 OFFCURVE",
"927 435 OFFCURVE",
"928 443 CURVE",
"929 466 OFFCURVE",
"933 486 OFFCURVE",
"938 503 CURVE",
"939 510 OFFCURVE",
"942 515 OFFCURVE",
"945 515 CURVE SMOOTH",
"988 515 OFFCURVE",
"1021 515 OFFCURVE",
"1043 516 CURVE",
"1138 516 LINE",
"1145 516 LINE",
"1148 515 OFFCURVE",
"1150 518 OFFCURVE",
"1151 525 CURVE",
"1151 543 LINE",
"1150 548 OFFCURVE",
"1149 555 OFFCURVE",
"1148 564 CURVE SMOOTH",
"1147 572 OFFCURVE",
"1146 579 OFFCURVE",
"1145 585 CURVE",
"1143 616 OFFCURVE",
"1139 640 OFFCURVE",
"1134 658 CURVE",
"1131 665 OFFCURVE",
"1127 669 OFFCURVE",
"1123 669 CURVE",
"1090 672 OFFCURVE",
"1054 674 OFFCURVE",
"1015 674 CURVE",
"1001 675 OFFCURVE",
"981 675 OFFCURVE",
"954 675 CURVE",
"728 670 LINE",
"751 671 OFFCURVE",
"721 671 OFFCURVE",
"678 671 CURVE SMOOTH",
"640 671 LINE",
"620 671 LINE",
"620 670 OFFCURVE",
"618 670 OFFCURVE",
"615 670 CURVE SMOOTH",
"538 668 LINE",
"525 670 OFFCURVE",
"511 671 OFFCURVE",
"498 671 CURVE SMOOTH",
"488 671 OFFCURVE",
"478 670 OFFCURVE",
"469 668 CURVE SMOOTH",
"459 666 OFFCURVE",
"450 665 OFFCURVE",
"443 665 CURVE SMOOTH",
"440 665 OFFCURVE",
"438 665 OFFCURVE",
"438 666 CURVE",
"434 666 LINE",
"429 665 OFFCURVE",
"421 658 OFFCURVE",
"421 655 CURVE",
"270 339 LINE SMOOTH",
"230 256 OFFCURVE",
"192 173 OFFCURVE",
"156 91 CURVE",
"155 86 OFFCURVE",
"153 82 OFFCURVE",
"150 78 CURVE",
"147 69 OFFCURVE",
"144 62 OFFCURVE",
"143 59 CURVE SMOOTH",
"137 40 OFFCURVE",
"132 27 OFFCURVE",
"131 19 CURVE",
"130 6 OFFCURVE",
"134 -1 OFFCURVE",
"143 -1 CURVE SMOOTH",
"158 -1 LINE SMOOTH"
);
},
{
closed = 1;
nodes = (
"604 247 OFFCURVE",
"591 248 OFFCURVE",
"571 248 CURVE SMOOTH",
"530 248 LINE",
"541 275 OFFCURVE",
"547 291 OFFCURVE",
"548 294 CURVE",
"550 303 OFFCURVE",
"553 312 OFFCURVE",
"557 323 CURVE SMOOTH",
"561 334 OFFCURVE",
"564 342 OFFCURVE",
"566 348 CURVE",
"575 372 OFFCURVE",
"582 390 OFFCURVE",
"586 403 CURVE",
"588 408 OFFCURVE",
"594 423 OFFCURVE",
"603 449 CURVE",
"605 454 OFFCURVE",
"607 460 OFFCURVE",
"609 466 CURVE",
"610 471 OFFCURVE",
"612 477 OFFCURVE",
"615 483 CURVE",
"616 486 OFFCURVE",
"617 489 OFFCURVE",
"618 492 CURVE",
"619 494 OFFCURVE",
"619 495 OFFCURVE",
"619 496 CURVE",
"621 500 LINE SMOOTH",
"622 502 OFFCURVE",
"623 504 OFFCURVE",
"624 506 CURVE",
"624 507 OFFCURVE",
"624 509 OFFCURVE",
"625 511 CURVE",
"625 505 LINE",
"625 500 LINE",
"625 496 LINE",
"624 483 LINE",
"623 448 LINE SMOOTH",
"623 443 OFFCURVE",
"622 433 OFFCURVE",
"621 420 CURVE SMOOTH",
"620 400 LINE SMOOTH",
"619 377 OFFCURVE",
"618 359 OFFCURVE",
"618 346 CURVE",
"611 244 LINE"
);
}
);
width = 1210;
}
);
note = AE;
unicode = 00C6;
},
{
glyphname = B;
lastChange = "2017-06-26 18:01:08 +0000";
layers = (
{
layerId = "CBDECE4A-293B-4E5C-B714-A3FD26C7130D";
paths = (
{
closed = 1;
nodes = (
"292 -24 OFFCURVE",
"330 -23 OFFCURVE",
"365 -19 CURVE SMOOTH",
"458 -8 OFFCURVE",
"642 0 OFFCURVE",
"730 69 CURVE SMOOTH",
"776 105 OFFCURVE",
"797 163 OFFCURVE",
"797 200 CURVE SMOOTH",
"797 226 OFFCURVE",
"786 251 OFFCURVE",
"765 275 CURVE",
"736 302 OFFCURVE",
"699 325 OFFCURVE",
"653 344 CURVE",
"652 345 OFFCURVE",
"651 346 OFFCURVE",
"651 346 CURVE",
"651 347 OFFCURVE",
"651 347 OFFCURVE",
"651 348 CURVE",
"650 348 OFFCURVE",
"650 348 OFFCURVE",
"650 348 CURVE",
"653 353 OFFCURVE",
"657 357 OFFCURVE",
"660 358 CURVE",
"669 363 OFFCURVE",
"679 368 OFFCURVE",
"691 371 CURVE",
"694 372 OFFCURVE",
"696 374 OFFCURVE",
"699 375 CURVE SMOOTH",
"702 376 OFFCURVE",
"705 377 OFFCURVE",
"708 379 CURVE SMOOTH",
"753 409 OFFCURVE",
"777 450 OFFCURVE",
"777 506 CURVE SMOOTH",
"777 549 OFFCURVE",
"761 585 OFFCURVE",
"728 613 CURVE",
"677 652 OFFCURVE",
"540 689 OFFCURVE",
"437 690 CURVE SMOOTH",
"363 691 OFFCURVE",
"300 695 OFFCURVE",
"245 695 CURVE SMOOTH",
"236 695 OFFCURVE",
"184 691 OFFCURVE",
"170 690 CURVE",
"147 689 OFFCURVE",
"131 688 OFFCURVE",
"120 688 CURVE SMOOTH",
"112 688 OFFCURVE",
"105 688 OFFCURVE",
"98 687 CURVE SMOOTH",
"91 686 OFFCURVE",
"84 686 OFFCURVE",
"78 686 CURVE SMOOTH",
"69 686 OFFCURVE",
"61 685 OFFCURVE",
"56 683 CURVE",
"47 677 OFFCURVE",
"42 668 OFFCURVE",
"41 656 CURVE",
"41 653 OFFCURVE",
"41 648 OFFCURVE",
"38 641 CURVE",
"36 630 OFFCURVE",
"35 613 OFFCURVE",
"35 590 CURVE SMOOTH",
"35 559 LINE",
"35 525 LINE SMOOTH",
"35 458 OFFCURVE",
"37 400 OFFCURVE",
"40 353 CURVE",
"41 293 LINE SMOOTH",
"42 242 OFFCURVE",
"43 204 OFFCURVE",
"43 179 CURVE SMOOTH",
"43 172 OFFCURVE",
"43 165 OFFCURVE",
"42 158 CURVE",
"42 131 OFFCURVE",
"41 111 OFFCURVE",
"40 98 CURVE",
"40 73 LINE SMOOTH",
"40 30 OFFCURVE",
"55 7 OFFCURVE",
"90 -8 CURVE",
"123 -20 OFFCURVE",
"156 -24 OFFCURVE",
"251 -24 CURVE SMOOTH"
);
},
{
closed = 1;
nodes = (
"373 399 OFFCURVE",
"371 400 OFFCURVE",
"371 403 CURVE SMOOTH",
"371 409 LINE SMOOTH",
"371 416 OFFCURVE",
"371 422 OFFCURVE",
"371 436 CURVE SMOOTH",
"371 462 OFFCURVE",
"373 513 OFFCURVE",
"411 513 CURVE SMOOTH",
"457 513 OFFCURVE",
"500 507 OFFCURVE",
"500 464 CURVE SMOOTH",
"500 460 OFFCURVE",
"499 458 OFFCURVE",
"496 458 CURVE",
"489 454 LINE",
"479 449 LINE",
"476 448 OFFCURVE",
"471 442 OFFCURVE",
"463 437 CURVE",
"454 430 OFFCURVE",
"445 425 OFFCURVE",
"436 422 CURVE",
"423 414 OFFCURVE",
"405 409 OFFCURVE",
"390 402 CURVE",
"385 400 OFFCURVE",
"381 399 OFFCURVE",
"379 399 CURVE SMOOTH"
);
},
{
closed = 1;
nodes = (
"343 153 OFFCURVE",
"365 222 OFFCURVE",
"367 243 CURVE SMOOTH",
"368 252 OFFCURVE",
"369 256 OFFCURVE",
"375 256 CURVE SMOOTH",
"393 256 OFFCURVE",
"405 255 OFFCURVE",
"434 254 CURVE",
"454 252 OFFCURVE",
"454 252 OFFCURVE",
"474 252 CURVE",
"485 251 OFFCURVE",
"490 249 OFFCURVE",
"489 234 CURVE",
"489 175 OFFCURVE",
"449 153 OFFCURVE",
"395 153 CURVE SMOOTH",
"392 153 LINE SMOOTH"
);
}
);
width = 817;
}
);
note = B;
unicode = 0042;
},
{
glyphname = C;
lastChange = "2017-07-05 12:29:45 +0000";
layers = (
{
background = {
paths = (
{
closed = 0;
nodes = (
"1286 328 LINE SMOOTH",
"1286 451 OFFCURVE",
"1337 493 OFFCURVE",
"1421 493 CURVE SMOOTH",
"1431 493 OFFCURVE",
"1444 492 OFFCURVE",
"1460 489 CURVE SMOOTH",
"1477 486 OFFCURVE",
"1504 480 OFFCURVE",
"1541 471 CURVE",
"1572 462 LINE",
"1576 461 OFFCURVE",
"1580 462 OFFCURVE",
"1581 467 CURVE SMOOTH",
"1616 623 LINE SMOOTH",
"1617 627 OFFCURVE",
"1616 631 OFFCURVE",
"1612 633 CURVE SMOOTH",
"1523 674 OFFCURVE",
"1437 695 OFFCURVE",
"1354 695 CURVE SMOOTH",
"1238 695 OFFCURVE",
"1137 662 OFFCURVE",
"1064 601 CURVE SMOOTH",
"989 538 OFFCURVE",
"948 446 OFFCURVE",
"948 333 CURVE SMOOTH"
);
},
{
closed = 0;
nodes = (
"948 332 LINE SMOOTH",
"948 219 OFFCURVE",
"989 119 OFFCURVE",
"1064 56 CURVE SMOOTH",
"1137 -5 OFFCURVE",
"1238 -38 OFFCURVE",
"1354 -38 CURVE SMOOTH",
"1437 -38 OFFCURVE",
"1524 -20 OFFCURVE",
"1612 24 CURVE SMOOTH",
"1616 26 OFFCURVE",
"1617 30 OFFCURVE",
"1616 34 CURVE SMOOTH",
"1581 190 LINE SMOOTH",
"1580 195 OFFCURVE",
"1576 196 OFFCURVE",
"1572 195 CURVE",
"1541 186 LINE",
"1504 177 OFFCURVE",
"1477 171 OFFCURVE",
"1460 168 CURVE SMOOTH",
"1444 165 OFFCURVE",
"1431 164 OFFCURVE",
"1421 164 CURVE SMOOTH",
"1337 164 OFFCURVE",
"1286 206 OFFCURVE",
"1286 329 CURVE SMOOTH"
);
},
{
closed = 1;
nodes = (
"540 -24 OFFCURVE",
"645 6 OFFCURVE",
"697 58 CURVE SMOOTH",
"698 59 OFFCURVE",
"699 61 OFFCURVE",
"699 64 CURVE",
"689 213 LINE",
"689 219 OFFCURVE",
"683 221 OFFCURVE",
"679 218 CURVE",
"618 186 OFFCURVE",
"595 154 OFFCURVE",
"514 154 CURVE SMOOTH",
"443 154 OFFCURVE",
"353 162 OFFCURVE",
"353 337 CURVE SMOOTH",
"353 471 OFFCURVE",
"447 503 OFFCURVE",
"525 499 CURVE SMOOTH",
"546 498 OFFCURVE",
"587 491 OFFCURVE",
"616 481 CURVE SMOOTH",
"650 469 LINE",
"655 467 OFFCURVE",
"660 472 OFFCURVE",
"660 476 CURVE",
"707 625 LINE",
"707 629 OFFCURVE",
"706 631 OFFCURVE",
"703 633 CURVE SMOOTH",
"689 642 OFFCURVE",
"672 655 OFFCURVE",
"655 662 CURVE SMOOTH",
"636 670 OFFCURVE",
"624 670 OFFCURVE",
"618 673 CURVE",
"545 694 OFFCURVE",
"487 699 OFFCURVE",
"432 695 CURVE SMOOTH",
"418 694 LINE",
"406 694 LINE SMOOTH",
"284 694 OFFCURVE",
"136 621 OFFCURVE",
"78 513 CURVE SMOOTH",
"47 455 OFFCURVE",
"28 389 OFFCURVE",
"28 313 CURVE SMOOTH",
"28 248 OFFCURVE",
"38 193 OFFCURVE",
"57 146 CURVE SMOOTH",
"66 125 OFFCURVE",
"71 108 OFFCURVE",
"82 96 CURVE",
"97 73 OFFCURVE",
"123 52 OFFCURVE",
"146 33 CURVE",
"157 25 OFFCURVE",
"176 14 OFFCURVE",
"185 11 CURVE SMOOTH",
"308 -30 OFFCURVE",
"376 -24 OFFCURVE",
"468 -24 CURVE SMOOTH"
);
}
);
};
layerId = "CBDECE4A-293B-4E5C-B714-A3FD26C7130D";
paths = (
{
closed = 1;
nodes = (
"420 -20 OFFCURVE",
"420 -20 OFFCURVE",
"421 -20 CURVE",
"420 -20 LINE SMOOTH"
);
},
{
closed = 1;
nodes = (
"421 -20 OFFCURVE",
"421 -20 OFFCURVE",
"421 -20 CURVE SMOOTH"
);
},
{
closed = 1;
nodes = (
"608 203 OFFCURVE",
"584 200 OFFCURVE",
"559 197 CURVE SMOOTH",
"505 190 LINE",
"489 189 LINE",
"489 189 LINE",
"478 189 LINE SMOOTH",
"405 189 OFFCURVE",
"363 230 OFFCURVE",
"363 338 CURVE SMOOTH",
"363 455 OFFCURVE",
"444 501 OFFCURVE",
"528 501 CURVE",
"528 501 OFFCURVE",
"529 501 OFFCURVE",
"529 502 CURVE",
"555 505 OFFCURVE",
"542 501 OFFCURVE",
"564 501 CURVE SMOOTH",
"578 501 LINE",
"661 490 LINE",
"678 501 OFFCURVE",
"682 520 OFFCURVE",
"682 552 CURVE SMOOTH",
"682 570 OFFCURVE",
"681 600 OFFCURVE",
"679 616 CURVE",
"677 627 OFFCURVE",
"676 637 OFFCURVE",
"676 647 CURVE",
"674 667 LINE",
"672 667 LINE SMOOTH",
"669 667 OFFCURVE",
"667 668 OFFCURVE",
"664 673 CURVE",
"663 674 OFFCURVE",
"661 676 OFFCURVE",
"660 678 CURVE",
"658 680 OFFCURVE",
"657 681 OFFCURVE",
"656 681 CURVE SMOOTH",
"645 681 OFFCURVE",
"629 685 OFFCURVE",
"616 687 CURVE SMOOTH",
"586 692 LINE",
"575 693 OFFCURVE",
"567 695 OFFCURVE",
"561 696 CURVE",
"502 703 OFFCURVE",
"494 707 OFFCURVE",
"461 707 CURVE SMOOTH",
"345 707 OFFCURVE",
"214 675 OFFCURVE",
"141 617 CURVE SMOOTH",
"66 557 OFFCURVE",
"25 469 OFFCURVE",
"25 332 CURVE SMOOTH",
"25 341 LINE SMOOTH",
"25 223 OFFCURVE",
"66 128 OFFCURVE",
"141 68 CURVE SMOOTH",
"214 10 OFFCURVE",
"304 -22 OFFCURVE",
"420 -22 CURVE SMOOTH",
"515 -22 OFFCURVE",
"626 -17 OFFCURVE",
"697 58 CURVE",
"696 104 OFFCURVE",
"692 156 OFFCURVE",
"672 212 CURVE",
"672 215 LINE",
"671 223 OFFCURVE",
"666 228 OFFCURVE",
"659 232 CURVE"
);
}
);
width = 717;
}
);
note = C;
unicode = 0043;
},
{
glyphname = Ccedilla;
lastChange = "2017-06-11 23:28:21 +0000";
layers = (
{
layerId = "CBDECE4A-293B-4E5C-B714-A3FD26C7130D";
paths = (
{
closed = 1;
nodes = (
"513 513 OFFCURVE",
"533 510 OFFCURVE",
"554 505 CURVE SMOOTH",
"613 490 LINE",
"631 620 LINE",
"616 630 OFFCURVE",
"599 639 OFFCURVE",
"581 647 CURVE SMOOTH",
"563 655 OFFCURVE",
"551 660 OFFCURVE",
"546 663 CURVE",
"486 684 OFFCURVE",
"430 695 OFFCURVE",
"378 695 CURVE SMOOTH",
"365 695 LINE",
"353 694 LINE SMOOTH",
"237 686 OFFCURVE",
"143 622 OFFCURVE",
"88 513 CURVE SMOOTH",
"57 456 OFFCURVE",
"41 389 OFFCURVE",
"41 313 CURVE SMOOTH",
"41 248 OFFCURVE",
"50 193 OFFCURVE",
"68 146 CURVE",
"77 125 OFFCURVE",
"88 108 OFFCURVE",
"99 96 CURVE",
"113 73 OFFCURVE",
"131 52 OFFCURVE",
"153 33 CURVE",
"164 25 OFFCURVE",
"182 15 OFFCURVE",
"190 11 CURVE SMOOTH",
"209 2 OFFCURVE",
"232 -5 OFFCURVE",
"259 -12 CURVE",
"248 -78 LINE",
"246 -118 LINE",
"259 -112 OFFCURVE",
"273 -109 OFFCURVE",
"288 -109 CURVE SMOOTH",
"327 -109 OFFCURVE",
"351 -128 OFFCURVE",
"351 -163 CURVE SMOOTH",
"351 -196 OFFCURVE",
"331 -229 OFFCURVE",
"286 -229 CURVE SMOOTH",
"261 -229 OFFCURVE",
"238 -224 OFFCURVE",
"217 -215 CURVE",
"216 -216 OFFCURVE",
"215 -219 OFFCURVE",
"213 -224 CURVE SMOOTH",
"211 -229 OFFCURVE",
"209 -236 OFFCURVE",
"206 -243 CURVE",
"196 -298 LINE",
"202 -305 OFFCURVE",
"211 -311 OFFCURVE",
"222 -315 CURVE SMOOTH",
"245 -324 OFFCURVE",
"266 -328 OFFCURVE",
"286 -328 CURVE SMOOTH",
"303 -328 LINE SMOOTH",
"472 -328 OFFCURVE",
"526 -261 OFFCURVE",
"526 -174 CURVE SMOOTH",
"526 -115 OFFCURVE",
"474 -65 OFFCURVE",
"361 -48 CURVE",
"366 -24 LINE",
"403 -24 LINE SMOOTH",
"472 -24 OFFCURVE",
"561 12 OFFCURVE",
"613 60 CURVE",
"603 224 LINE",
"552 189 OFFCURVE",
"506 164 OFFCURVE",
"466 164 CURVE SMOOTH",
"423 164 OFFCURVE",
"388 199 OFFCURVE",
"383 283 CURVE",
"381 292 OFFCURVE",
"380 307 OFFCURVE",
"380 328 CURVE SMOOTH",
"380 460 OFFCURVE",
"419 513 OFFCURVE",
"494 513 CURVE SMOOTH"
);
}
);
width = 676;
}
);
note = Ccedilla;
unicode = 00C7;
},
{
glyphname = D;
lastChange = "2017-06-26 18:01:42 +0000";
layers = (
{
layerId = "CBDECE4A-293B-4E5C-B714-A3FD26C7130D";
paths = (
{
closed = 1;
nodes = (
"517 -2 OFFCURVE",
"624 24 OFFCURVE",
"692 83 CURVE SMOOTH",
"760 142 OFFCURVE",
"790 233 OFFCURVE",
"790 373 CURVE SMOOTH",
"790 447 OFFCURVE",
"774 509 OFFCURVE",
"741 560 CURVE SMOOTH",
"686 644 OFFCURVE",
"595 673 OFFCURVE",
"512 673 CURVE SMOOTH",
"488 673 OFFCURVE",
"455 672 OFFCURVE",
"414 671 CURVE SMOOTH",
"377 670 LINE SMOOTH",
"349 669 OFFCURVE",
"310 669 OFFCURVE",
"260 669 CURVE SMOOTH",
"227 669 OFFCURVE",
"199 669 OFFCURVE",
"177 670 CURVE",
"61 671 LINE SMOOTH",
"49 671 OFFCURVE",
"35 657 OFFCURVE",
"35 645 CURVE SMOOTH",
"35 425 LINE SMOOTH",
"35 352 OFFCURVE",
"37 283 OFFCURVE",
"38 218 CURVE SMOOTH",
"39 173 OFFCURVE",
"40 121 OFFCURVE",
"40 63 CURVE SMOOTH",
"40 46 OFFCURVE",
"42 32 OFFCURVE",
"45 23 CURVE",
"48 8 OFFCURVE",
"56 1 OFFCURVE",
"67 1 CURVE SMOOTH",
"220 0 LINE",
"352 -1 LINE SMOOTH"
);
},
{
closed = 1;
nodes = (
"377 300 OFFCURVE",
"378 324 OFFCURVE",
"379 357 CURVE SMOOTH",
"380 381 LINE SMOOTH",
"381 402 OFFCURVE",
"382 418 OFFCURVE",
"382 429 CURVE SMOOTH",
"383 549 LINE",
"390 552 OFFCURVE",
"393 553 OFFCURVE",
"394 554 CURVE",
"398 555 OFFCURVE",
"410 559 OFFCURVE",
"425 559 CURVE SMOOTH",
"432 559 OFFCURVE",
"441 554 OFFCURVE",
"449 545 CURVE",
"470 517 OFFCURVE",
"479 429 OFFCURVE",
"479 394 CURVE SMOOTH",
"479 375 LINE SMOOTH",
"479 347 OFFCURVE",
"477 314 OFFCURVE",
"473 275 CURVE",
"458 184 OFFCURVE",
"444 139 OFFCURVE",
"425 120 CURVE",
"424 119 OFFCURVE",
"421 119 OFFCURVE",
"420 118 CURVE",
"417 117 OFFCURVE",
"414 116 OFFCURVE",
"410 115 CURVE",
"399 114 OFFCURVE",
"390 113 OFFCURVE",
"383 113 CURVE SMOOTH",
"377 113 OFFCURVE",
"374 113 OFFCURVE",
"370 114 CURVE",
"376 285 LINE SMOOTH"
);
}
);
width = 815;
}
);
note = D;
unicode = 0044;
},
{
glyphname = Eth;
lastChange = "2017-06-11 23:28:21 +0000";
layers = (
{
layerId = "CBDECE4A-293B-4E5C-B714-A3FD26C7130D";
paths = (
{
closed = 1;
nodes = (
"576 -1 OFFCURVE",
"684 24 OFFCURVE",
"753 81 CURVE SMOOTH",
"820 138 OFFCURVE",
"848 227 OFFCURVE",
"848 363 CURVE SMOOTH",
"848 442 OFFCURVE",
"832 506 OFFCURVE",
"801 556 CURVE SMOOTH",
"752 639 OFFCURVE",
"656 673 OFFCURVE",
"573 673 CURVE SMOOTH",
"548 673 OFFCURVE",
"514 672 OFFCURVE",
"473 671 CURVE SMOOTH",
"438 670 LINE SMOOTH",
"409 669 OFFCURVE",
"370 669 OFFCURVE",
"320 669 CURVE SMOOTH",
"289 669 OFFCURVE",
"265 669 OFFCURVE",
"248 670 CURVE",
"146 671 LINE SMOOTH",
"133 671 OFFCURVE",
"119 658 OFFCURVE",
"119 645 CURVE SMOOTH",
"119 423 LINE",
"95 423 LINE",
"71 423 LINE SMOOTH",
"58 423 OFFCURVE",
"43 413 OFFCURVE",
"43 408 CURVE SMOOTH",
"43 382 OFFCURVE",
"43 364 OFFCURVE",
"44 353 CURVE",
"44 294 LINE SMOOTH",
"44 288 OFFCURVE",
"52 283 OFFCURVE",
"68 280 CURVE",
"77 279 OFFCURVE",
"94 278 OFFCURVE",
"121 278 CURVE",
"122 243 LINE",
"123 236 OFFCURVE",
"123 225 OFFCURVE",
"123 211 CURVE SMOOTH",
"123 151 LINE",
"124 127 OFFCURVE",
"125 92 OFFCURVE",
"125 63 CURVE SMOOTH",
"125 24 OFFCURVE",
"131 1 OFFCURVE",
"151 1 CURVE SMOOTH",
"291 0 LINE",
"411 -1 LINE SMOOTH"
);
},
{
closed = 1;
nodes = (
"419 223 LINE",
"419 280 LINE",
"434 280 OFFCURVE",
"446 281 OFFCURVE",
"454 283 CURVE",
"469 284 OFFCURVE",
"481 290 OFFCURVE",
"481 311 CURVE SMOOTH",
"481 334 LINE",
"482 339 OFFCURVE",
"483 345 OFFCURVE",
"483 354 CURVE SMOOTH",
"484 408 LINE SMOOTH",
"484 413 OFFCURVE",
"475 418 OFFCURVE",
"463 419 CURVE",
"447 422 OFFCURVE",
"433 423 OFFCURVE",
"420 423 CURVE",
"420 503 LINE",
"420 568 LINE",
"426 570 OFFCURVE",
"430 572 OFFCURVE",
"431 573 CURVE",
"435 574 OFFCURVE",
"449 578 OFFCURVE",
"464 578 CURVE SMOOTH",
"475 578 OFFCURVE",
"483 573 OFFCURVE",
"489 564 CURVE",
"517 532 OFFCURVE",
"524 468 OFFCURVE",
"524 413 CURVE SMOOTH",
"524 394 LINE SMOOTH",
"524 313 OFFCURVE",
"519 252 OFFCURVE",
"510 211 CURVE",
"501 178 OFFCURVE",
"489 154 OFFCURVE",
"474 139 CURVE",
"471 138 OFFCURVE",
"465 135 OFFCURVE",
"460 134 CURVE",
"449 133 OFFCURVE",
"440 132 OFFCURVE",
"433 132 CURVE SMOOTH",
"427 132 OFFCURVE",
"422 132 OFFCURVE",
"419 133 CURVE",
"419 175 LINE"
);
}
);
width = 895;
}
);
note = Eth;
unicode = 00D0;
},
{
glyphname = E;
lastChange = "2017-06-26 18:02:02 +0000";
layers = (
{
layerId = "CBDECE4A-293B-4E5C-B714-A3FD26C7130D";
paths = (
{
closed = 1;
nodes = (
"310 1 OFFCURVE",
"413 1 OFFCURVE",
"483 1 CURVE SMOOTH",
"516 1 OFFCURVE",
"540 2 OFFCURVE",
"555 3 CURVE SMOOTH",
"584 5 OFFCURVE",
"608 5 OFFCURVE",
"625 5 CURVE SMOOTH",
"638 5 OFFCURVE",
"645 12 OFFCURVE",
"645 26 CURVE SMOOTH",
"645 31 OFFCURVE",
"644 36 OFFCURVE",
"643 41 CURVE SMOOTH",
"635 81 OFFCURVE",
"622 143 OFFCURVE",
"615 156 CURVE",
"612 161 OFFCURVE",
"610 163 OFFCURVE",
"607 163 CURVE SMOOTH",
"566 163 OFFCURVE",
"534 162 OFFCURVE",
"511 160 CURVE",
"490 159 OFFCURVE",
"458 158 OFFCURVE",
"365 158 CURVE",
"365 175 OFFCURVE",
"365 188 OFFCURVE",
"366 196 CURVE",
"370 252 OFFCURVE",
"364 248 OFFCURVE",
"385 253 CURVE SMOOTH",
"389 254 OFFCURVE",
"401 254 OFFCURVE",
"420 254 CURVE",
"430 253 OFFCURVE",
"452 253 OFFCURVE",
"486 253 CURVE SMOOTH",
"525 253 OFFCURVE",
"552 255 OFFCURVE",
"566 258 CURVE",
"590 260 OFFCURVE",
"602 267 OFFCURVE",
"602 278 CURVE SMOOTH",
"602 281 LINE",
"598 380 LINE",
"597 389 OFFCURVE",
"594 399 OFFCURVE",
"577 403 CURVE",
"565 403 LINE",
"532 406 OFFCURVE",
"502 408 OFFCURVE",
"476 408 CURVE SMOOTH",
"387 408 LINE SMOOTH",
"374 408 OFFCURVE",
"371 411 OFFCURVE",
"371 428 CURVE",
"373 463 LINE SMOOTH",
"374 474 OFFCURVE",
"379 474 OFFCURVE",
"382 483 CURVE",
"385 491 OFFCURVE",
"388 495 OFFCURVE",
"390 495 CURVE",
"403 496 OFFCURVE",
"420 497 OFFCURVE",
"442 500 CURVE",
"495 504 LINE",
"536 509 OFFCURVE",
"570 511 OFFCURVE",
"598 511 CURVE SMOOTH",
"603 511 OFFCURVE",
"607 511 OFFCURVE",
"610 510 CURVE",
"617 510 OFFCURVE",
"620 513 OFFCURVE",
"621 520 CURVE",
"621 521 OFFCURVE",
"621 523 OFFCURVE",
"622 527 CURVE",
"622 530 OFFCURVE",
"622 534 OFFCURVE",
"621 538 CURVE",
"618 553 OFFCURVE",
"615 565 OFFCURVE",
"613 595 CURVE",
"610 614 OFFCURVE",
"608 626 OFFCURVE",
"606 631 CURVE",
"601 656 OFFCURVE",
"594 669 OFFCURVE",
"583 669 CURVE",
"554 672 OFFCURVE",
"512 674 OFFCURVE",
"457 675 CURVE SMOOTH",
"413 675 LINE SMOOTH",
"373 675 OFFCURVE",
"314 674 OFFCURVE",
"235 673 CURVE",
"210 671 OFFCURVE",
"170 670 OFFCURVE",
"116 670 CURVE SMOOTH",
"93 670 OFFCURVE",
"76 669 OFFCURVE",
"66 668 CURVE",
"50 663 OFFCURVE",
"42 657 OFFCURVE",
"42 650 CURVE",
"35 570 OFFCURVE",
"35 477 OFFCURVE",
"35 393 CURVE SMOOTH",
"35 348 OFFCURVE",
"35 319 OFFCURVE",
"36 305 CURVE SMOOTH",
"37 291 OFFCURVE",
"37 271 OFFCURVE",
"37 246 CURVE SMOOTH",
"38 215 LINE SMOOTH",
"39 198 OFFCURVE",
"40 183 OFFCURVE",
"40 172 CURVE",
"42 129 LINE",
"43 118 OFFCURVE",
"45 103 OFFCURVE",
"45 83 CURVE",
"47 54 OFFCURVE",
"48 31 OFFCURVE",
"48 14 CURVE",
"47 13 OFFCURVE",
"48 13 OFFCURVE",
"50 12 CURVE",
"51 11 OFFCURVE",
"54 10 OFFCURVE",
"57 9 CURVE",
"78 4 LINE",
"87 3 OFFCURVE",
"95 3 OFFCURVE",
"102 2 CURVE SMOOTH",
"109 1 OFFCURVE",
"114 0 OFFCURVE",
"117 0 CURVE SMOOTH",
"275 0 LINE SMOOTH"
);
}
);
width = 660;
}
);
note = E;
unicode = 0045;
},
{
glyphname = Eogonek;
lastChange = "2017-06-11 23:28:21 +0000";
layers = (
{
layerId = "CBDECE4A-293B-4E5C-B714-A3FD26C7130D";
paths = (
{
closed = 1;
nodes = (
"623 -154 OFFCURVE",
"594 -160 OFFCURVE",
"567 -160 CURVE SMOOTH",
"558 -160 OFFCURVE",
"552 -160 OFFCURVE",
"547 -161 CURVE",
"539 -164 OFFCURVE",
"529 -159 OFFCURVE",
"526 -158 CURVE",
"511 -154 OFFCURVE",
"503 -146 OFFCURVE",
"503 -126 CURVE SMOOTH",
"503 -118 OFFCURVE",
"507 -106 OFFCURVE",
"516 -90 CURVE SMOOTH",
"529 -67 OFFCURVE",
"543 -49 OFFCURVE",
"562 -33 CURVE",
"599 5 LINE",
"612 5 OFFCURVE",
"618 12 OFFCURVE",
"618 26 CURVE SMOOTH",
"618 31 OFFCURVE",
"617 36 OFFCURVE",
"616 41 CURVE SMOOTH",
"608 81 OFFCURVE",
"595 123 OFFCURVE",
"588 136 CURVE",
"585 141 OFFCURVE",
"583 143 OFFCURVE",
"580 143 CURVE SMOOTH",
"539 143 OFFCURVE",
"507 142 OFFCURVE",
"484 140 CURVE",
"463 139 OFFCURVE",
"431 138 OFFCURVE",
"388 138 CURVE",
"388 155 OFFCURVE",
"388 168 OFFCURVE",
"389 176 CURVE",
"390 192 OFFCURVE",
"391 204 OFFCURVE",
"391 213 CURVE SMOOTH",
"391 240 OFFCURVE",
"393 249 OFFCURVE",
"408 253 CURVE SMOOTH",
"412 254 OFFCURVE",
"424 254 OFFCURVE",
"443 254 CURVE",
"453 253 OFFCURVE",
"475 253 OFFCURVE",
"509 253 CURVE SMOOTH",
"548 253 OFFCURVE",
"575 255 OFFCURVE",
"589 258 CURVE",
"613 260 OFFCURVE",
"625 267 OFFCURVE",
"625 278 CURVE SMOOTH",
"625 281 LINE",
"621 370 LINE",
"620 379 OFFCURVE",
"617 389 OFFCURVE",
"600 393 CURVE",
"588 393 LINE",
"555 396 OFFCURVE",
"525 398 OFFCURVE",
"499 398 CURVE SMOOTH",
"410 398 LINE SMOOTH",
"397 398 OFFCURVE",
"394 401 OFFCURVE",
"394 418 CURVE",
"396 443 LINE SMOOTH",
"399 474 OFFCURVE",
"402 494 OFFCURVE",
"405 503 CURVE",
"408 511 OFFCURVE",
"411 515 OFFCURVE",
"413 515 CURVE",
"426 516 OFFCURVE",
"443 517 OFFCURVE",
"465 520 CURVE",
"518 524 LINE",
"559 529 OFFCURVE",
"593 531 OFFCURVE",
"621 531 CURVE SMOOTH",
"626 531 OFFCURVE",
"630 531 OFFCURVE",
"633 530 CURVE",
"640 530 OFFCURVE",
"643 533 OFFCURVE",
"644 540 CURVE",
"644 541 OFFCURVE",
"644 543 OFFCURVE",
"645 547 CURVE",
"645 550 OFFCURVE",
"645 554 OFFCURVE",
"644 558 CURVE",
"641 573 OFFCURVE",
"638 585 OFFCURVE",
"636 595 CURVE",
"633 614 OFFCURVE",
"631 626 OFFCURVE",
"629 631 CURVE",
"624 656 OFFCURVE",
"617 669 OFFCURVE",
"606 669 CURVE",
"577 672 OFFCURVE",
"535 674 OFFCURVE",
"480 675 CURVE SMOOTH",
"436 675 LINE SMOOTH",
"396 675 OFFCURVE",
"337 674 OFFCURVE",
"258 673 CURVE",
"233 671 OFFCURVE",
"193 670 OFFCURVE",
"139 670 CURVE SMOOTH",
"116 670 OFFCURVE",
"99 669 OFFCURVE",
"89 668 CURVE",
"73 663 OFFCURVE",
"65 657 OFFCURVE",
"65 650 CURVE",
"58 570 OFFCURVE",
"58 477 OFFCURVE",
"58 393 CURVE SMOOTH",
"58 348 OFFCURVE",
"58 319 OFFCURVE",
"59 305 CURVE SMOOTH",
"60 291 OFFCURVE",
"60 271 OFFCURVE",
"60 246 CURVE SMOOTH",
"61 215 LINE SMOOTH",
"62 198 OFFCURVE",
"63 183 OFFCURVE",
"63 172 CURVE",
"65 129 LINE",
"66 118 OFFCURVE",
"68 103 OFFCURVE",
"68 83 CURVE",
"70 54 OFFCURVE",
"71 31 OFFCURVE",
"71 14 CURVE",
"70 13 OFFCURVE",
"71 13 OFFCURVE",
"73 12 CURVE",
"74 11 OFFCURVE",
"77 10 OFFCURVE",
"80 9 CURVE",
"101 4 LINE",
"110 3 OFFCURVE",
"118 3 OFFCURVE",
"125 2 CURVE SMOOTH",
"132 1 OFFCURVE",
"137 0 OFFCURVE",
"140 0 CURVE SMOOTH",
"298 0 LINE SMOOTH",
"328 1 OFFCURVE",
"373 1 OFFCURVE",
"433 1 CURVE",
"416 -10 LINE SMOOTH",
"413 -12 OFFCURVE",
"407 -15 OFFCURVE",
"400 -19 CURVE",
"392 -24 OFFCURVE",
"386 -28 OFFCURVE",
"381 -33 CURVE",
"325 -70 OFFCURVE",
"298 -103 OFFCURVE",
"298 -163 CURVE SMOOTH",
"298 -175 OFFCURVE",
"300 -186 OFFCURVE",
"303 -195 CURVE",
"314 -220 OFFCURVE",
"337 -240 OFFCURVE",
"374 -253 CURVE SMOOTH",
"413 -268 OFFCURVE",
"468 -276 OFFCURVE",
"541 -276 CURVE",
"551 -274 LINE",
"553 -273 OFFCURVE",
"556 -273 OFFCURVE",
"559 -273 CURVE SMOOTH",
"562 -273 OFFCURVE",
"566 -272 OFFCURVE",
"571 -271 CURVE",
"582 -270 OFFCURVE",
"598 -265 OFFCURVE",
"618 -258 CURVE",
"631 -251 OFFCURVE",
"643 -245 OFFCURVE",
"644 -240 CURVE SMOOTH",
"661 -158 LINE",
"661 -153 LINE SMOOTH",
"661 -148 OFFCURVE",
"659 -145 OFFCURVE",
"654 -143 CURVE"
);
}
);
width = 693;
}
);
note = Eogonek;
unicode = 0118;
},
{
glyphname = F;
lastChange = "2017-06-28 15:06:02 +0000";
layers = (
{
layerId = "CBDECE4A-293B-4E5C-B714-A3FD26C7130D";
paths = (
{
closed = 1;
nodes = (
"161 -3 LINE",
"165 -2 OFFCURVE",
"168 -1 OFFCURVE",
"171 0 CURVE",
"173 0 OFFCURVE",
"174 0 OFFCURVE",
"175 1 CURVE",
"258 -9 LINE",
"261 -6 OFFCURVE",
"265 -5 OFFCURVE",
"266 -5 CURVE SMOOTH",
"269 -5 OFFCURVE",
"270 -5 OFFCURVE",
"270 -6 CURVE",
"273 -7 LINE",
"274 -7 OFFCURVE",
"276 -7 OFFCURVE",
"277 -8 CURVE SMOOTH",
"278 -9 OFFCURVE",
"280 -9 OFFCURVE",
"283 -9 CURVE SMOOTH",
"285 -9 LINE",
"295 -9 LINE",
"298 -8 OFFCURVE",
"305 -7 OFFCURVE",
"316 -7 CURVE",
"339 -6 OFFCURVE",
"356 -5 OFFCURVE",
"368 -5 CURVE",
"374 10 OFFCURVE",
"377 33 OFFCURVE",
"378 65 CURVE SMOOTH",
"379 87 OFFCURVE",
"380 128 OFFCURVE",
"380 189 CURVE",
"383 195 OFFCURVE",
"387 198 OFFCURVE",
"390 199 CURVE",
"394 202 OFFCURVE",
"401 203 OFFCURVE",
"412 203 CURVE SMOOTH",
"426 203 LINE",
"434 204 OFFCURVE",
"440 205 OFFCURVE",
"445 206 CURVE",
"448 207 OFFCURVE",
"455 208 OFFCURVE",
"465 208 CURVE SMOOTH",
"485 208 LINE",
"530 211 LINE",
"535 212 OFFCURVE",
"540 213 OFFCURVE",
"545 213 CURVE SMOOTH",
"553 213 OFFCURVE",
"557 216 OFFCURVE",
"560 228 CURVE",
"560 255 LINE",
"560 313 LINE SMOOTH",
"560 346 OFFCURVE",
"559 367 OFFCURVE",
"556 375 CURVE SMOOTH",
"552 386 OFFCURVE",
"546 389 OFFCURVE",
"530 389 CURVE SMOOTH",
"410 389 LINE",
"407 392 OFFCURVE",
"406 395 OFFCURVE",
"406 398 CURVE",
"407 400 LINE",
"407 444 OFFCURVE",
"412 511 OFFCURVE",
"413 520 CURVE",
"413 523 OFFCURVE",
"413 525 OFFCURVE",
"414 526 CURVE SMOOTH",
"415 527 OFFCURVE",
"415 529 OFFCURVE",
"415 530 CURVE",
"416 530 OFFCURVE",
"417 530 OFFCURVE",
"418 531 CURVE SMOOTH",
"419 532 OFFCURVE",
"420 532 OFFCURVE",
"422 533 CURVE",
"424 532 OFFCURVE",
"432 532 OFFCURVE",
"446 532 CURVE SMOOTH",
"460 532 OFFCURVE",
"470 533 OFFCURVE",
"477 535 CURVE",
"507 536 LINE",
"552 536 LINE",
"566 536 LINE SMOOTH",
"582 536 OFFCURVE",
"602 535 OFFCURVE",
"602 550 CURVE SMOOTH",
"602 573 OFFCURVE",
"602 590 OFFCURVE",
"603 601 CURVE SMOOTH",
"604 613 OFFCURVE",
"605 631 OFFCURVE",
"605 635 CURVE SMOOTH",
"605 640 OFFCURVE",
"604 647 OFFCURVE",
"603 656 CURVE",
"602 684 OFFCURVE",
"593 698 OFFCURVE",
"578 698 CURVE",
"575 696 OFFCURVE",
"573 695 OFFCURVE",
"570 695 CURVE SMOOTH",
"563 695 OFFCURVE",
"557 696 OFFCURVE",
"552 697 CURVE",
"549 698 OFFCURVE",
"545 698 OFFCURVE",
"540 698 CURVE SMOOTH",
"511 698 OFFCURVE",
"491 699 OFFCURVE",
"478 700 CURVE",
"375 700 LINE",
"364 701 OFFCURVE",
"348 701 OFFCURVE",
"328 701 CURVE SMOOTH",
"318 701 LINE",
"300 701 LINE SMOOTH",
"291 701 OFFCURVE",
"284 701 OFFCURVE",
"280 702 CURVE",
"270 702 LINE SMOOTH",
"236 702 OFFCURVE",
"194 701 OFFCURVE",
"143 700 CURVE SMOOTH",
"105 699 OFFCURVE",
"74 697 OFFCURVE",
"51 697 CURVE",
"48 698 LINE",
"42 698 LINE",
"37 697 OFFCURVE",
"35 693 OFFCURVE",
"35 687 CURVE SMOOTH",
"35 339 LINE",
"36 328 OFFCURVE",
"40 298 OFFCURVE",
"40 275 CURVE",
"42 250 OFFCURVE",
"44 206 OFFCURVE",
"47 145 CURVE",
"47 124 OFFCURVE",
"48 93 OFFCURVE",
"50 71 CURVE",
"50 49 LINE SMOOTH",
"50 30 OFFCURVE",
"52 -11 OFFCURVE",
"80 -11 CURVE",
"100 -10 LINE"
);
}
);
width = 600;
}
);
note = F;
unicode = 0046;
},
{
glyphname = G;
lastChange = "2017-07-05 12:29:49 +0000";
layers = (
{
layerId = "CBDECE4A-293B-4E5C-B714-A3FD26C7130D";
paths = (
{
closed = 1;
nodes = (
"752 359 OFFCURVE",
"747 366 OFFCURVE",
"730 369 CURVE SMOOTH",
"725 370 OFFCURVE",
"713 370 OFFCURVE",
"695 370 CURVE",
"685 369 OFFCURVE",
"664 369 OFFCURVE",
"633 369 CURVE SMOOTH",
"527 369 LINE SMOOTH",
"518 369 OFFCURVE",
"512 369 OFFCURVE",
"510 370 CURVE",
"499 370 OFFCURVE",
"496 367 OFFCURVE",
"496 355 CURVE SMOOTH",
"496 329 LINE SMOOTH",
"496 301 OFFCURVE",
"496 259 OFFCURVE",
"497 245 CURVE SMOOTH",
"498 224 LINE SMOOTH",
"499 204 OFFCURVE",
"500 198 OFFCURVE",
"500 188 CURVE",
"477 169 OFFCURVE",
"478 164 OFFCURVE",
"461 164 CURVE SMOOTH",
"434 164 OFFCURVE",
"404 178 OFFCURVE",
"390 200 CURVE",
"373 220 OFFCURVE",
"363 258 OFFCURVE",
"363 351 CURVE SMOOTH",
"363 467 OFFCURVE",
"414 500 OFFCURVE",
"498 500 CURVE SMOOTH",
"499 500 OFFCURVE",
"499 501 OFFCURVE",
"500 502 CURVE",
"500 500 LINE",
"500 500 OFFCURVE",
"501 500 OFFCURVE",
"501 501 CURVE",
"527 504 OFFCURVE",
"543 499 OFFCURVE",
"565 499 CURVE SMOOTH",
"579 499 LINE",
"693 479 LINE",
"710 491 OFFCURVE",
"714 510 OFFCURVE",
"714 541 CURVE SMOOTH",
"714 559 OFFCURVE",
"713 576 OFFCURVE",
"711 608 CURVE",
"709 619 OFFCURVE",
"708 629 OFFCURVE",
"708 639 CURVE",
"706 659 LINE",
"704 659 LINE SMOOTH",
"701 659 OFFCURVE",
"699 661 OFFCURVE",
"696 666 CURVE",
"695 667 OFFCURVE",
"693 668 OFFCURVE",
"692 670 CURVE",
"690 672 OFFCURVE",
"689 673 OFFCURVE",
"688 673 CURVE SMOOTH",
"677 673 OFFCURVE",
"661 674 OFFCURVE",
"638 679 CURVE SMOOTH",
"608 685 LINE",
"597 686 OFFCURVE",
"589 687 OFFCURVE",
"583 688 CURVE",
"524 695 OFFCURVE",
"486 699 OFFCURVE",
"453 699 CURVE",
"329 699 OFFCURVE",
"211 666 OFFCURVE",
"141 609 CURVE SMOOTH",
"67 548 OFFCURVE",
"25 464 OFFCURVE",
"25 356 CURVE SMOOTH",
"25 164 OFFCURVE",
"97 54 OFFCURVE",
"190 11 CURVE",
"231 -11 OFFCURVE",
"278 -23 OFFCURVE",
"330 -23 CURVE SMOOTH",
"429 -23 OFFCURVE",
"494 13 OFFCURVE",
"506 78 CURVE",
"507 64 OFFCURVE",
"509 52 OFFCURVE",
"510 45 CURVE",
"511 29 OFFCURVE",
"513 15 OFFCURVE",
"518 4 CURVE",
"520 0 OFFCURVE",
"522 -2 OFFCURVE",
"525 -2 CURVE SMOOTH",
"528 -2 OFFCURVE",
"531 -2 OFFCURVE",
"533 -1 CURVE",
"660 -1 LINE",
"661 0 LINE",
"661 1 OFFCURVE",
"661 1 OFFCURVE",
"662 2 CURVE",
"666 2 LINE",
"666 1 OFFCURVE",
"666 1 OFFCURVE",
"667 0 CURVE SMOOTH",
"668 -1 OFFCURVE",
"671 -1 OFFCURVE",
"677 -1 CURVE SMOOTH",
"680 -1 LINE",
"702 0 LINE",
"711 1 OFFCURVE",
"724 2 OFFCURVE",
"741 2 CURVE",
"748 16 OFFCURVE",
"750 55 OFFCURVE",
"750 135 CURVE SMOOTH",
"750 140 LINE SMOOTH",
"750 148 OFFCURVE",
"752 154 OFFCURVE",
"753 159 CURVE",
"753 332 LINE",
"752 335 OFFCURVE",
"752 338 OFFCURVE",
"752 341 CURVE SMOOTH"
);
}
);
width = 778;
}
);
note = G;
unicode = 0047;
},
{
glyphname = H;
lastChange = "2017-06-26 18:03:11 +0000";
layers = (
{
layerId = "CBDECE4A-293B-4E5C-B714-A3FD26C7130D";
paths = (
{
closed = 1;
nodes = (
"264 -5 OFFCURVE",
"300 -4 OFFCURVE",
"352 -1 CURVE SMOOTH",
"367 0 LINE",
"387 7 OFFCURVE",
"387 55 OFFCURVE",
"387 66 CURVE",
"388 89 OFFCURVE",
"388 141 OFFCURVE",
"388 224 CURVE SMOOTH",
"388 235 OFFCURVE",
"391 241 OFFCURVE",
"397 241 CURVE SMOOTH",
"405 241 LINE SMOOTH",
"411 241 OFFCURVE",
"427 240 OFFCURVE",
"452 239 CURVE",
"463 238 OFFCURVE",
"477 238 OFFCURVE",
"495 238 CURVE SMOOTH",
"502 238 LINE",
"513 53 LINE",
"514 44 OFFCURVE",
"515 37 OFFCURVE",
"516 32 CURVE SMOOTH",
"518 20 OFFCURVE",
"519 12 OFFCURVE",
"523 5 CURVE",
"525 2 OFFCURVE",
"527 0 OFFCURVE",
"529 0 CURVE SMOOTH",
"804 0 LINE SMOOTH",
"813 0 OFFCURVE",
"827 16 OFFCURVE",
"827 23 CURVE",
"852 403 LINE",
"852 404 OFFCURVE",
"852 405 OFFCURVE",
"851 407 CURVE",
"850 410 OFFCURVE",
"848 415 OFFCURVE",
"848 423 CURVE SMOOTH",
"848 449 OFFCURVE",
"849 483 OFFCURVE",
"852 526 CURVE",
"853 570 OFFCURVE",
"854 605 OFFCURVE",
"854 631 CURVE SMOOTH",
"854 650 OFFCURVE",
"852 659 OFFCURVE",
"844 664 CURVE",
"839 668 OFFCURVE",
"828 670 OFFCURVE",
"812 670 CURVE SMOOTH",
"785 670 LINE",
"768 669 OFFCURVE",
"732 668 OFFCURVE",
"679 668 CURVE SMOOTH",
"622 668 LINE",
"609 667 OFFCURVE",
"593 666 OFFCURVE",
"574 666 CURVE",
"547 665 LINE",
"532 665 OFFCURVE",
"523 664 OFFCURVE",
"519 663 CURVE",
"514 663 OFFCURVE",
"509 660 OFFCURVE",
"505 655 CURVE",
"501 648 OFFCURVE",
"500 630 OFFCURVE",
"500 609 CURVE SMOOTH",
"500 601 LINE",
"499 560 LINE SMOOTH",
"499 549 OFFCURVE",
"499 540 OFFCURVE",
"498 534 CURVE",
"497 466 LINE",
"485 466 OFFCURVE",
"476 467 OFFCURVE",
"470 468 CURVE",
"459 468 OFFCURVE",
"431 469 OFFCURVE",
"414 473 CURVE",
"388 473 LINE",
"389 514 LINE",
"390 522 OFFCURVE",
"390 535 OFFCURVE",
"390 553 CURVE SMOOTH",
"390 557 OFFCURVE",
"390 560 OFFCURVE",
"389 563 CURVE SMOOTH",
"388 566 OFFCURVE",
"387 568 OFFCURVE",
"387 571 CURVE",
"388 583 LINE",
"390 599 LINE",
"390 602 OFFCURVE",
"390 604 OFFCURVE",
"391 607 CURVE SMOOTH",
"392 610 OFFCURVE",
"392 612 OFFCURVE",
"392 615 CURVE SMOOTH",
"392 625 LINE SMOOTH",
"392 660 OFFCURVE",
"380 668 OFFCURVE",
"345 668 CURVE SMOOTH",
"330 668 LINE",
"293 668 LINE",
"247 668 LINE",
"235 669 OFFCURVE",
"219 669 OFFCURVE",
"200 669 CURVE SMOOTH",
"182 669 OFFCURVE",
"170 669 OFFCURVE",
"163 670 CURVE",
"147 670 LINE",
"89 670 LINE SMOOTH",
"76 670 OFFCURVE",
"67 667 OFFCURVE",
"60 661 CURVE",
"57 659 OFFCURVE",
"54 657 OFFCURVE",
"51 654 CURVE",
"47 651 OFFCURVE",
"44 649 OFFCURVE",
"43 648 CURVE",
"43 647 OFFCURVE",
"43 646 OFFCURVE",
"43 644 CURVE",
"42 641 OFFCURVE",
"42 637 OFFCURVE",
"42 631 CURVE",
"41 612 OFFCURVE",
"40 593 OFFCURVE",
"40 573 CURVE",
"39 566 OFFCURVE",
"39 556 OFFCURVE",
"39 543 CURVE",
"37 491 LINE",
"37 471 OFFCURVE",
"37 455 OFFCURVE",
"36 443 CURVE SMOOTH",
"35 431 OFFCURVE",
"35 423 OFFCURVE",
"35 418 CURVE SMOOTH",
"35 398 LINE",
"54 34 LINE",
"54 27 OFFCURVE",
"60 8 OFFCURVE",
"65 8 CURVE",
"113 -5 OFFCURVE",
"159 -6 OFFCURVE",
"243 -6 CURVE"
);
}
);
width = 889;
}
);
note = H;
unicode = 0048;
},
{
glyphname = Hbar;
lastChange = "2017-06-13 13:46:05 +0000";
layers = (
{
layerId = "CBDECE4A-293B-4E5C-B714-A3FD26C7130D";
paths = (
{
closed = 1;
nodes = (
"285 -5 OFFCURVE",
"321 -4 OFFCURVE",
"373 -1 CURVE SMOOTH",
"388 0 LINE",
"408 7 OFFCURVE",
"408 55 OFFCURVE",
"408 66 CURVE",
"409 89 OFFCURVE",
"409 71 OFFCURVE",
"409 154 CURVE SMOOTH",
"409 165 OFFCURVE",
"412 171 OFFCURVE",
"418 171 CURVE SMOOTH",
"426 171 LINE SMOOTH",
"432 171 OFFCURVE",
"448 170 OFFCURVE",
"473 169 CURVE",
"484 168 OFFCURVE",
"498 168 OFFCURVE",
"516 168 CURVE SMOOTH",
"523 168 LINE",
"534 53 LINE",
"535 44 OFFCURVE",
"536 37 OFFCURVE",
"537 32 CURVE SMOOTH",
"539 20 OFFCURVE",
"540 12 OFFCURVE",
"544 5 CURVE",
"546 2 OFFCURVE",
"548 0 OFFCURVE",
"550 0 CURVE SMOOTH",
"825 0 LINE SMOOTH",
"834 0 OFFCURVE",
"848 16 OFFCURVE",
"848 23 CURVE",
"873 333 LINE",
"873 334 OFFCURVE",
"873 335 OFFCURVE",
"872 337 CURVE",
"871 340 OFFCURVE",
"869 345 OFFCURVE",
"869 353 CURVE SMOOTH",
"870 408 LINE",
"871 415 OFFCURVE",
"871 477 OFFCURVE",
"871 493 CURVE",
"884 493 LINE SMOOTH",
"905 493 OFFCURVE",
"921 496 OFFCURVE",
"930 503 CURVE",
"935 506 OFFCURVE",
"938 512 OFFCURVE",
"938 521 CURVE SMOOTH",
"938 533 LINE SMOOTH",
"938 534 OFFCURVE",
"938 536 OFFCURVE",
"937 537 CURVE SMOOTH",
"936 538 OFFCURVE",
"936 540 OFFCURVE",
"936 541 CURVE SMOOTH",
"936 544 OFFCURVE",
"936 545 OFFCURVE",
"935 546 CURVE",
"934 553 LINE",
"934 556 OFFCURVE",
"934 559 OFFCURVE",
"933 560 CURVE",
"933 573 LINE SMOOTH",
"933 574 OFFCURVE",
"932 576 OFFCURVE",
"930 577 CURVE",
"927 578 OFFCURVE",
"924 578 OFFCURVE",
"920 579 CURVE",
"918 579 OFFCURVE",
"914 580 OFFCURVE",
"908 581 CURVE SMOOTH",
"902 582 OFFCURVE",
"896 583 OFFCURVE",
"890 583 CURVE SMOOTH",
"883 583 OFFCURVE",
"878 583 OFFCURVE",
"875 584 CURVE",
"875 631 LINE SMOOTH",
"875 650 OFFCURVE",
"873 659 OFFCURVE",
"865 664 CURVE",
"860 668 OFFCURVE",
"849 670 OFFCURVE",
"833 670 CURVE SMOOTH",
"806 670 LINE",
"789 669 OFFCURVE",
"753 668 OFFCURVE",
"700 668 CURVE SMOOTH",
"643 668 LINE",
"630 667 OFFCURVE",
"614 666 OFFCURVE",
"595 666 CURVE",
"568 665 LINE",
"553 665 OFFCURVE",
"544 664 OFFCURVE",
"540 663 CURVE",
"535 663 OFFCURVE",
"530 660 OFFCURVE",
"526 655 CURVE",
"522 648 OFFCURVE",
"521 610 OFFCURVE",
"521 589 CURVE SMOOTH",
"521 586 LINE",
"443 586 LINE",
"411 586 LINE",
"411 591 OFFCURVE",
"412 594 OFFCURVE",
"413 595 CURVE",
"413 605 LINE SMOOTH",
"413 640 OFFCURVE",
"401 668 OFFCURVE",
"366 668 CURVE SMOOTH",
"351 668 LINE",
"314 668 LINE",
"268 668 LINE",
"256 669 OFFCURVE",
"240 669 OFFCURVE",
"221 669 CURVE SMOOTH",
"203 669 OFFCURVE",
"191 669 OFFCURVE",
"184 670 CURVE",
"168 670 LINE",
"110 670 LINE SMOOTH",
"97 670 OFFCURVE",
"88 667 OFFCURVE",
"81 661 CURVE",
"78 659 OFFCURVE",
"75 657 OFFCURVE",
"72 654 CURVE",
"68 651 OFFCURVE",
"65 649 OFFCURVE",
"64 648 CURVE",
"63 645 OFFCURVE",
"63 640 OFFCURVE",
"63 633 CURVE",
"62 606 OFFCURVE",
"62 597 OFFCURVE",
"61 588 CURVE",
"53 588 LINE SMOOTH",
"50 588 OFFCURVE",
"47 588 OFFCURVE",
"44 587 CURVE SMOOTH",
"41 586 OFFCURVE",
"38 586 OFFCURVE",
"35 586 CURVE",
"19 583 OFFCURVE",
"9 581 OFFCURVE",
"5 579 CURVE",
"4 579 OFFCURVE",
"0 578 OFFCURVE",
"0 575 CURVE SMOOTH",
"0 567 OFFCURVE",
"0 561 OFFCURVE",
"1 558 CURVE",
"1 543 LINE SMOOTH",
"1 536 OFFCURVE",
"2 531 OFFCURVE",
"3 526 CURVE",
"3 508 LINE SMOOTH",
"3 504 OFFCURVE",
"8 501 OFFCURVE",
"18 499 CURVE",
"45 496 OFFCURVE",
"58 495 OFFCURVE",
"58 495 CURVE",
"59 495 LINE",
"58 490 OFFCURVE",
"58 482 OFFCURVE",
"58 471 CURVE SMOOTH",
"58 375 LINE",
"57 367 OFFCURVE",
"56 358 OFFCURVE",
"56 348 CURVE SMOOTH",
"56 328 LINE",
"75 34 LINE",
"75 27 OFFCURVE",
"81 8 OFFCURVE",
"86 8 CURVE",
"134 -5 OFFCURVE",
"180 -6 OFFCURVE",
"264 -6 CURVE"
);
},
{
closed = 1;
nodes = (
"506 396 OFFCURVE",
"497 397 OFFCURVE",
"491 398 CURVE",
"480 398 OFFCURVE",
"452 399 OFFCURVE",
"435 403 CURVE",
"409 403 LINE",
"410 494 LINE",
"410 495 LINE",
"419 495 LINE",
"464 495 LINE SMOOTH",
"487 495 OFFCURVE",
"505 495 OFFCURVE",
"518 494 CURVE",
"518 396 LINE"
);
}
);
width = 930;
}
);
note = Hbar;
unicode = 0126;
},
{
glyphname = I;
lastChange = "2017-06-26 18:03:42 +0000";
layers = (
{
layerId = "CBDECE4A-293B-4E5C-B714-A3FD26C7130D";
paths = (
{
closed = 1;
nodes = (
"126 0 LINE",
"164 0 LINE SMOOTH",
"174 0 OFFCURVE",
"179 0 OFFCURVE",
"180 1 CURVE",
"272 1 LINE",
"280 5 LINE",
"281 5 OFFCURVE",
"284 4 OFFCURVE",
"289 3 CURVE",
"289 2 OFFCURVE",
"291 1 OFFCURVE",
"296 1 CURVE SMOOTH",
"299 1 LINE",
"309 1 LINE",
"312 2 OFFCURVE",
"319 3 OFFCURVE",
"330 3 CURVE",
"353 4 OFFCURVE",
"370 5 OFFCURVE",
"382 5 CURVE",
"387 14 OFFCURVE",
"389 24 OFFCURVE",
"389 33 CURVE",
"392 61 OFFCURVE",
"394 95 OFFCURVE",
"394 135 CURVE SMOOTH",
"394 199 LINE",
"395 215 LINE",
"395 230 OFFCURVE",
"395 243 OFFCURVE",
"396 253 CURVE",
"397 298 LINE",
"398 309 OFFCURVE",
"399 325 OFFCURVE",
"399 345 CURVE SMOOTH",
"399 364 OFFCURVE",
"399 376 OFFCURVE",
"400 381 CURVE",
"400 396 LINE",
"400 591 LINE SMOOTH",
"400 612 OFFCURVE",
"400 626 OFFCURVE",
"399 633 CURVE",
"397 642 OFFCURVE",
"394 649 OFFCURVE",
"391 655 CURVE",
"384 664 OFFCURVE",
"374 666 OFFCURVE",
"354 666 CURVE",
"350 665 OFFCURVE",
"347 664 OFFCURVE",
"346 664 CURVE",
"344 663 OFFCURVE",
"341 663 OFFCURVE",
"337 666 CURVE",
"312 670 OFFCURVE",
"282 671 OFFCURVE",
"265 668 CURVE",
"263 668 OFFCURVE",
"261 668 OFFCURVE",
"260 667 CURVE SMOOTH",
"259 666 OFFCURVE",
"257 666 OFFCURVE",
"255 666 CURVE SMOOTH",
"155 666 LINE",
"132 665 OFFCURVE",
"98 665 OFFCURVE",
"52 665 CURVE SMOOTH",
"43 665 OFFCURVE",
"39 662 OFFCURVE",
"39 655 CURVE SMOOTH",
"39 339 LINE",
"37 298 OFFCURVE",
"36 257 OFFCURVE",
"36 215 CURVE SMOOTH",
"35 91 LINE",
"35 78 LINE SMOOTH",
"35 70 OFFCURVE",
"35 64 OFFCURVE",
"36 59 CURVE",
"37 44 OFFCURVE",
"39 31 OFFCURVE",
"42 19 CURVE",
"46 7 OFFCURVE",
"55 -1 OFFCURVE",
"64 -1 CURVE",
"89 0 LINE"
);
}
);
width = 435;
}
);
note = I;
unicode = 0049;
},
{
glyphname = IJ;
lastChange = "2017-06-18 16:42:20 +0000";
layers = (
{
layerId = "CBDECE4A-293B-4E5C-B714-A3FD26C7130D";
paths = (
{
closed = 1;
nodes = (
"150 280 LINE",
"188 280 LINE SMOOTH",
"198 280 OFFCURVE",
"203 280 OFFCURVE",
"204 281 CURVE",
"296 281 LINE SMOOTH",
"297 281 OFFCURVE",
"301 283 OFFCURVE",
"304 284 CURVE",
"313 283 LINE",
"313 282 OFFCURVE",
"315 281 OFFCURVE",
"320 281 CURVE SMOOTH",
"323 281 LINE",
"333 281 LINE SMOOTH",
"342 281 OFFCURVE",
"349 282 OFFCURVE",
"354 283 CURVE",
"406 284 LINE",
"411 290 OFFCURVE",
"413 297 OFFCURVE",
"413 304 CURVE",
"416 323 OFFCURVE",
"418 346 OFFCURVE",
"418 375 CURVE SMOOTH",
"418 420 LINE",
"419 431 LINE",
"419 441 OFFCURVE",
"419 450 OFFCURVE",
"420 458 CURVE",
"421 490 LINE",
"422 497 OFFCURVE",
"423 508 OFFCURVE",
"423 523 CURVE SMOOTH",
"423 535 OFFCURVE",
"423 543 OFFCURVE",
"424 548 CURVE",
"424 559 LINE",
"424 625 LINE SMOOTH",
"424 640 OFFCURVE",
"424 650 OFFCURVE",
"423 655 CURVE",
"420 663 OFFCURVE",
"413 675 OFFCURVE",
"403 677 CURVE SMOOTH",
"398 678 OFFCURVE",
"389 678 OFFCURVE",
"378 678 CURVE SMOOTH",
"377 678 OFFCURVE",
"375 678 OFFCURVE",
"374 677 CURVE SMOOTH",
"373 676 OFFCURVE",
"371 676 OFFCURVE",
"370 676 CURVE SMOOTH",
"366 676 OFFCURVE",
"363 677 OFFCURVE",
"361 678 CURVE",
"344 681 OFFCURVE",
"306 682 OFFCURVE",
"289 679 CURVE",
"279 678 LINE",
"179 678 LINE",
"80 678 LINE SMOOTH",
"68 678 OFFCURVE",
"63 677 OFFCURVE",
"63 670 CURVE SMOOTH",
"63 519 LINE",
"61 490 OFFCURVE",
"60 461 OFFCURVE",
"60 431 CURVE SMOOTH",
"59 344 LINE",
"59 335 LINE SMOOTH",
"59 329 OFFCURVE",
"59 324 OFFCURVE",
"60 321 CURVE",
"63 298 OFFCURVE",
"68 279 OFFCURVE",
"88 279 CURVE",
"113 280 LINE"
);
},
{
closed = 1;
nodes = (
"602 -29 OFFCURVE",
"647 -25 OFFCURVE",
"704 -8 CURVE",
"811 29 OFFCURVE",
"870 80 OFFCURVE",
"890 173 CURVE SMOOTH",
"898 209 OFFCURVE",
"899 241 OFFCURVE",
"899 294 CURVE",
"900 303 LINE",
"900 323 LINE SMOOTH",
"900 333 OFFCURVE",
"900 341 OFFCURVE",
"901 346 CURVE",
"902 349 OFFCURVE",
"902 353 OFFCURVE",
"902 358 CURVE SMOOTH",
"902 364 OFFCURVE",
"902 368 OFFCURVE",
"903 370 CURVE",
"903 388 LINE",
"903 396 LINE",
"903 591 LINE SMOOTH",
"903 612 OFFCURVE",
"902 626 OFFCURVE",
"901 633 CURVE",
"900 644 OFFCURVE",
"897 651 OFFCURVE",
"893 655 CURVE",
"886 664 OFFCURVE",
"876 666 OFFCURVE",
"856 666 CURVE SMOOTH",
"758 666 LINE",
"658 666 LINE",
"554 665 LINE SMOOTH",
"545 665 OFFCURVE",
"541 662 OFFCURVE",
"541 655 CURVE SMOOTH",
"543 449 LINE",
"543 406 LINE SMOOTH",
"543 400 OFFCURVE",
"543 393 OFFCURVE",
"542 386 CURVE SMOOTH",
"541 378 OFFCURVE",
"537 297 OFFCURVE",
"537 278 CURVE SMOOTH",
"537 261 OFFCURVE",
"537 249 OFFCURVE",
"536 243 CURVE SMOOTH",
"535 238 OFFCURVE",
"533 231 OFFCURVE",
"530 223 CURVE",
"529 216 OFFCURVE",
"526 209 OFFCURVE",
"521 200 CURVE",
"512 181 OFFCURVE",
"498 171 OFFCURVE",
"463 171 CURVE SMOOTH",
"414 171 OFFCURVE",
"377 175 OFFCURVE",
"289 200 CURVE",
"289 200 OFFCURVE",
"282 205 OFFCURVE",
"281 196 CURVE SMOOTH",
"280 190 OFFCURVE",
"278 185 OFFCURVE",
"278 181 CURVE",
"276 169 OFFCURVE",
"275 157 OFFCURVE",
"275 146 CURVE",
"274 137 OFFCURVE",
"273 130 OFFCURVE",
"273 125 CURVE",
"270 117 OFFCURVE",
"267 41 OFFCURVE",
"267 33 CURVE SMOOTH",
"267 30 OFFCURVE",
"267 29 OFFCURVE",
"268 28 CURVE",
"323 8 LINE SMOOTH",
"392 -17 OFFCURVE",
"470 -29 OFFCURVE",
"557 -29 CURVE SMOOTH"
);
}
);
width = 951;
}
);
note = IJ;
unicode = 0132;
},
{
glyphname = Iogonek;
lastChange = "2017-06-11 23:28:21 +0000";
layers = (
{
layerId = "CBDECE4A-293B-4E5C-B714-A3FD26C7130D";
paths = (
{
closed = 1;
nodes = (
"421 642 OFFCURVE",
"418 649 OFFCURVE",
"415 655 CURVE",
"408 664 OFFCURVE",
"398 666 OFFCURVE",
"378 666 CURVE",
"374 665 OFFCURVE",
"371 664 OFFCURVE",
"370 664 CURVE",
"368 663 OFFCURVE",
"365 663 OFFCURVE",
"361 666 CURVE",
"336 670 OFFCURVE",
"306 671 OFFCURVE",
"289 668 CURVE",
"287 668 OFFCURVE",
"285 668 OFFCURVE",
"284 667 CURVE SMOOTH",
"283 666 OFFCURVE",
"281 666 OFFCURVE",
"279 666 CURVE SMOOTH",
"179 666 LINE",
"156 665 OFFCURVE",
"122 665 OFFCURVE",
"76 665 CURVE SMOOTH",
"67 665 OFFCURVE",
"63 662 OFFCURVE",
"63 655 CURVE SMOOTH",
"63 339 LINE",
"61 298 OFFCURVE",
"60 257 OFFCURVE",
"60 215 CURVE SMOOTH",
"59 91 LINE",
"59 78 LINE SMOOTH",
"59 70 OFFCURVE",
"59 64 OFFCURVE",
"60 59 CURVE",
"61 44 OFFCURVE",
"63 31 OFFCURVE",
"66 19 CURVE",
"70 7 OFFCURVE",
"79 -1 OFFCURVE",
"88 -1 CURVE",
"113 0 LINE",
"150 0 LINE",
"181 0 LINE",
"166 -10 LINE SMOOTH",
"163 -12 OFFCURVE",
"157 -15 OFFCURVE",
"150 -19 CURVE",
"142 -24 OFFCURVE",
"136 -28 OFFCURVE",
"131 -33 CURVE",
"75 -70 OFFCURVE",
"48 -103 OFFCURVE",
"48 -163 CURVE SMOOTH",
"48 -175 OFFCURVE",
"50 -186 OFFCURVE",
"53 -195 CURVE",
"64 -220 OFFCURVE",
"87 -240 OFFCURVE",
"124 -253 CURVE SMOOTH",
"163 -268 OFFCURVE",
"218 -276 OFFCURVE",
"291 -276 CURVE",
"301 -274 LINE",
"303 -273 OFFCURVE",
"306 -273 OFFCURVE",
"309 -273 CURVE SMOOTH",
"312 -273 OFFCURVE",
"316 -272 OFFCURVE",
"321 -271 CURVE",
"332 -270 OFFCURVE",
"348 -265 OFFCURVE",
"368 -258 CURVE",
"381 -251 OFFCURVE",
"393 -245 OFFCURVE",
"394 -240 CURVE SMOOTH",
"411 -158 LINE",
"411 -153 LINE SMOOTH",
"411 -148 OFFCURVE",
"409 -145 OFFCURVE",
"404 -143 CURVE",
"373 -154 OFFCURVE",
"344 -160 OFFCURVE",
"317 -160 CURVE SMOOTH",
"308 -160 OFFCURVE",
"302 -160 OFFCURVE",
"297 -161 CURVE",
"289 -164 OFFCURVE",
"279 -159 OFFCURVE",
"276 -158 CURVE",
"261 -154 OFFCURVE",
"253 -146 OFFCURVE",
"253 -126 CURVE SMOOTH",
"253 -118 OFFCURVE",
"257 -106 OFFCURVE",
"266 -90 CURVE SMOOTH",
"279 -67 OFFCURVE",
"293 -49 OFFCURVE",
"312 -33 CURVE",
"347 3 LINE",
"354 3 LINE",
"377 4 OFFCURVE",
"394 5 OFFCURVE",
"406 5 CURVE",
"411 14 OFFCURVE",
"413 24 OFFCURVE",
"413 33 CURVE",
"416 61 OFFCURVE",
"418 95 OFFCURVE",
"418 135 CURVE SMOOTH",
"418 199 LINE",
"419 215 LINE",
"419 230 OFFCURVE",
"419 243 OFFCURVE",
"420 253 CURVE",
"421 298 LINE",
"422 309 OFFCURVE",
"423 325 OFFCURVE",
"423 345 CURVE SMOOTH",
"423 364 OFFCURVE",
"423 376 OFFCURVE",
"424 381 CURVE",
"424 396 LINE",
"424 591 LINE SMOOTH",
"424 612 OFFCURVE",
"424 626 OFFCURVE",
"423 633 CURVE"
);
}
);
width = 480;
}
);
note = Iogonek;
unicode = 012E;
},
{
glyphname = J;
lastChange = "2017-07-05 12:17:52 +0000";
layers = (
{
layerId = "CBDECE4A-293B-4E5C-B714-A3FD26C7130D";
paths = (
{
closed = 1;
nodes = (
"455 -25 OFFCURVE",
"545 49 OFFCURVE",
"572 173 CURVE SMOOTH",
"580 209 OFFCURVE",
"581 241 OFFCURVE",
"581 294 CURVE",
"582 303 LINE",
"582 323 LINE SMOOTH",
"582 333 OFFCURVE",
"582 341 OFFCURVE",
"583 346 CURVE",
"584 350 OFFCURVE",
"584 354 OFFCURVE",
"584 358 CURVE",
"583 362 OFFCURVE",
"583 366 OFFCURVE",
"584 370 CURVE",
"585 373 OFFCURVE",
"585 376 OFFCURVE",
"585 380 CURVE SMOOTH",
"585 384 OFFCURVE",
"585 387 OFFCURVE",
"586 388 CURVE",
"586 396 LINE",
"586 591 LINE SMOOTH",
"586 599 OFFCURVE",
"585 613 OFFCURVE",
"583 633 CURVE SMOOTH",
"582 641 OFFCURVE",
"580 648 OFFCURVE",
"576 655 CURVE",
"568 664 OFFCURVE",
"558 666 OFFCURVE",
"538 666 CURVE SMOOTH",
"441 666 LINE",
"341 666 LINE",
"237 665 LINE SMOOTH",
"228 665 OFFCURVE",
"223 663 OFFCURVE",
"223 655 CURVE SMOOTH",
"224 529 LINE",
"224 486 LINE",
"221 394 OFFCURVE",
"220 336 OFFCURVE",
"220 307 CURVE SMOOTH",
"220 288 OFFCURVE",
"220 276 OFFCURVE",
"219 269 CURVE",
"219 269 OFFCURVE",
"217 262 OFFCURVE",
"214 249 CURVE SMOOTH",
"211 237 OFFCURVE",
"209 229 OFFCURVE",
"207 226 CURVE",
"200 207 OFFCURVE",
"189 197 OFFCURVE",
"176 197 CURVE SMOOTH",
"146 197 OFFCURVE",
"138 201 OFFCURVE",
"67 226 CURVE",
"57 233 OFFCURVE",
"54 227 OFFCURVE",
"54 226 CURVE",
"53 225 OFFCURVE",
"53 224 OFFCURVE",
"52 222 CURVE SMOOTH",
"51 220 OFFCURVE",
"51 215 OFFCURVE",
"51 207 CURVE",
"46 186 OFFCURVE",
"46 94 OFFCURVE",
"46 75 CURVE",
"45 71 OFFCURVE",
"43 64 OFFCURVE",
"42 55 CURVE SMOOTH",
"40 33 LINE",
"40 30 OFFCURVE",
"40 29 OFFCURVE",
"41 28 CURVE",
"86 8 LINE SMOOTH",
"144 -18 OFFCURVE",
"168 -29 OFFCURVE",
"238 -29 CURVE SMOOTH",
"261 -29 OFFCURVE",
"287 -31 OFFCURVE",
"316 -28 CURVE"
);
}
);
width = 621;
}
);
note = J;
unicode = 004A;
},
{
glyphname = K;
lastChange = "2017-07-05 12:23:56 +0000";
layers = (
{
layerId = "CBDECE4A-293B-4E5C-B714-A3FD26C7130D";
paths = (
{
closed = 1;
nodes = (
"606 25 OFFCURVE",
"641 -18 OFFCURVE",
"645 -22 CURVE SMOOTH",
"658 -35 OFFCURVE",
"674 -38 OFFCURVE",
"689 -26 CURVE",
"714 -16 OFFCURVE",
"712 -10 OFFCURVE",
"725 -1 CURVE",
"747 18 LINE",
"758 26 OFFCURVE",
"777 43 OFFCURVE",
"789 49 CURVE SMOOTH",
"808 59 OFFCURVE",
"811 75 OFFCURVE",
"834 79 CURVE",
"845 84 OFFCURVE",
"849 93 OFFCURVE",
"860 104 CURVE",
"867 111 OFFCURVE",
"868 115 OFFCURVE",
"868 123 CURVE SMOOTH",
"868 128 OFFCURVE",
"864 135 OFFCURVE",
"857 145 CURVE",
"824 183 OFFCURVE",
"769 240 OFFCURVE",
"740 271 CURVE",
"710 300 OFFCURVE",
"702 314 OFFCURVE",
"680 331 CURVE",
"675 334 OFFCURVE",
"671 338 OFFCURVE",
"666 342 CURVE",
"655 351 OFFCURVE",
"650 356 OFFCURVE",
"650 367 CURVE SMOOTH",
"650 378 OFFCURVE",
"650 377 OFFCURVE",
"655 381 CURVE",
"670 394 LINE",
"673 397 OFFCURVE",
"676 399 OFFCURVE",
"677 400 CURVE",
"686 412 LINE",
"703 434 LINE",
"705 436 OFFCURVE",
"707 438 OFFCURVE",
"708 439 CURVE SMOOTH",
"709 440 OFFCURVE",
"710 441 OFFCURVE",
"711 441 CURVE",
"715 448 OFFCURVE",
"720 454 OFFCURVE",
"728 462 CURVE",
"772 506 LINE SMOOTH",
"793 527 OFFCURVE",
"818 551 OFFCURVE",
"814 559 CURVE SMOOTH",
"813 561 LINE",
"806 575 OFFCURVE",
"771 592 OFFCURVE",
"757 607 CURVE",
"740 626 OFFCURVE",
"734 624 OFFCURVE",
"717 637 CURVE",
"695 650 OFFCURVE",
"695 670 OFFCURVE",
"669 680 CURVE",
"680 668 OFFCURVE",
"653 688 OFFCURVE",
"657 688 CURVE",
"654 687 OFFCURVE",
"640 686 OFFCURVE",
"627 676 CURVE",
"589 642 OFFCURVE",
"539 592 OFFCURVE",
"507 558 CURVE SMOOTH",
"480 529 OFFCURVE",
"415 465 OFFCURVE",
"433 483 CURVE SMOOTH",
"435 485 OFFCURVE",
"429 480 OFFCURVE",
"428 479 CURVE",
"428 479 OFFCURVE",
"390 437 OFFCURVE",
"385 432 CURVE",
"378 428 OFFCURVE",
"388 464 OFFCURVE",
"380 464 CURVE",
"383 553 LINE",
"384 586 OFFCURVE",
"385 611 OFFCURVE",
"385 628 CURVE SMOOTH",
"385 643 LINE SMOOTH",
"385 650 OFFCURVE",
"385 654 OFFCURVE",
"384 656 CURVE",
"382 667 OFFCURVE",
"376 673 OFFCURVE",
"367 673 CURVE SMOOTH",
"335 673 LINE",
"282 673 LINE",
"215 673 LINE",
"104 673 LINE",
"82 673 LINE SMOOTH",
"72 673 OFFCURVE",
"64 672 OFFCURVE",
"59 670 CURVE",
"41 667 OFFCURVE",
"33 658 OFFCURVE",
"35 643 CURVE",
"35 633 LINE SMOOTH",
"35 624 OFFCURVE",
"36 618 OFFCURVE",
"37 613 CURVE",
"37 591 OFFCURVE",
"37 574 OFFCURVE",
"38 563 CURVE",
"38 543 LINE",
"38 528 LINE SMOOTH",
"38 504 OFFCURVE",
"37 491 OFFCURVE",
"36 478 CURVE",
"35 471 OFFCURVE",
"35 467 OFFCURVE",
"35 466 CURVE SMOOTH",
"35 465 OFFCURVE",
"35 463 OFFCURVE",
"36 460 CURVE SMOOTH",
"37 457 OFFCURVE",
"37 453 OFFCURVE",
"37 448 CURVE",
"38 428 LINE",
"38 405 OFFCURVE",
"38 388 OFFCURVE",
"35 380 CURVE",
"35 370 LINE SMOOTH",
"35 359 OFFCURVE",
"36 343 OFFCURVE",
"37 320 CURVE SMOOTH",
"38 295 LINE",
"41 262 OFFCURVE",
"42 237 OFFCURVE",
"43 220 CURVE SMOOTH",
"45 143 LINE SMOOTH",
"45 123 OFFCURVE",
"46 108 OFFCURVE",
"47 98 CURVE",
"47 58 LINE",
"48 50 OFFCURVE",
"48 40 OFFCURVE",
"48 29 CURVE SMOOTH",
"48 22 OFFCURVE",
"48 18 OFFCURVE",
"49 18 CURVE",
"52 10 LINE",
"97 6 LINE",
"104 6 LINE",
"107 5 OFFCURVE",
"113 5 OFFCURVE",
"122 5 CURVE SMOOTH",
"142 5 LINE",
"159 5 LINE",
"272 4 LINE SMOOTH",
"287 4 OFFCURVE",
"312 5 OFFCURVE",
"347 6 CURVE",
"354 5 OFFCURVE",
"359 5 OFFCURVE",
"362 8 CURVE",
"367 9 OFFCURVE",
"369 12 OFFCURVE",
"369 19 CURVE SMOOTH",
"369 23 LINE",
"369 38 LINE",
"369 51 LINE",
"372 104 LINE",
"372 108 OFFCURVE",
"444 184 OFFCURVE",
"449 184 CURVE SMOOTH",
"450 184 OFFCURVE",
"453 182 OFFCURVE",
"458 179 CURVE",
"474 165 LINE SMOOTH",
"478 161 OFFCURVE",
"482 157 OFFCURVE",
"488 151 CURVE SMOOTH",
"494 145 OFFCURVE",
"496 141 OFFCURVE",
"498 139 CURVE",
"577 46 LINE",
"577 45 OFFCURVE",
"580 43 OFFCURVE",
"584 39 CURVE",
"598 27 LINE"
);
}
);
width = 854;
}
);
note = K;
unicode = 004B;
},
{
glyphname = L;
lastChange = "2017-07-05 12:30:34 +0000";
layers = (
{
layerId = "CBDECE4A-293B-4E5C-B714-A3FD26C7130D";
paths = (
{
closed = 1;
nodes = (
"523 0 OFFCURVE",
"536 1 OFFCURVE",
"545 3 CURVE",
"561 4 OFFCURVE",
"574 10 OFFCURVE",
"574 21 CURVE SMOOTH",
"574 23 LINE",
"574 214 LINE SMOOTH",
"574 223 OFFCURVE",
"564 234 OFFCURVE",
"549 234 CURVE SMOOTH",
"512 234 OFFCURVE",
"485 234 OFFCURVE",
"467 233 CURVE",
"394 233 LINE SMOOTH",
"381 233 OFFCURVE",
"372 233 OFFCURVE",
"372 244 CURVE SMOOTH",
"372 256 LINE",
"372 318 LINE",
"372 383 LINE",
"372 523 LINE",
"371 529 LINE",
"371 532 OFFCURVE",
"370 537 OFFCURVE",
"369 545 CURVE",
"367 556 OFFCURVE",
"366 566 OFFCURVE",
"366 573 CURVE SMOOTH",
"366 578 OFFCURVE",
"367 585 OFFCURVE",
"369 595 CURVE",
"370 603 OFFCURVE",
"371 608 OFFCURVE",
"371 610 CURVE",
"372 618 LINE",
"372 666 OFFCURVE",
"350 669 OFFCURVE",
"324 669 CURVE SMOOTH",
"311 669 OFFCURVE",
"303 669 OFFCURVE",
"300 669 CURVE SMOOTH",
"246 669 LINE",
"235 670 OFFCURVE",
"219 670 OFFCURVE",
"197 670 CURVE SMOOTH",
"187 670 OFFCURVE",
"179 670 OFFCURVE",
"174 671 CURVE",
"135 672 OFFCURVE",
"100 673 OFFCURVE",
"67 673 CURVE SMOOTH",
"60 673 OFFCURVE",
"54 670 OFFCURVE",
"51 664 CURVE",
"44 653 OFFCURVE",
"40 638 OFFCURVE",
"40 619 CURVE SMOOTH",
"40 596 LINE",
"36 524 OFFCURVE",
"35 481 OFFCURVE",
"35 426 CURVE SMOOTH",
"36 344 LINE",
"36 248 LINE",
"36 28 LINE SMOOTH",
"36 16 OFFCURVE",
"49 3 OFFCURVE",
"61 3 CURVE SMOOTH",
"143 2 LINE",
"158 1 OFFCURVE",
"180 1 OFFCURVE",
"209 1 CURVE SMOOTH",
"240 0 OFFCURVE",
"290 0 OFFCURVE",
"359 0 CURVE SMOOTH",
"504 0 LINE SMOOTH"
);
}
);
width = 589;
}
);
note = L;
unicode = 004C;
},
{
glyphname = Ldot;
lastChange = "2017-06-11 23:28:21 +0000";
layers = (
{
layerId = "CBDECE4A-293B-4E5C-B714-A3FD26C7130D";
paths = (
{
closed = 1;
nodes = (
"547 0 OFFCURVE",
"560 1 OFFCURVE",
"569 3 CURVE",
"585 4 OFFCURVE",
"598 10 OFFCURVE",
"598 21 CURVE SMOOTH",
"598 23 LINE",
"598 214 LINE SMOOTH",
"598 223 OFFCURVE",
"588 234 OFFCURVE",
"573 234 CURVE SMOOTH",
"536 234 OFFCURVE",
"509 234 OFFCURVE",
"491 233 CURVE",
"418 233 LINE SMOOTH",
"405 233 OFFCURVE",
"396 233 OFFCURVE",
"396 244 CURVE SMOOTH",
"396 256 LINE",
"396 318 LINE",
"396 383 LINE",
"396 523 LINE",
"395 529 LINE",
"395 532 OFFCURVE",
"394 537 OFFCURVE",
"393 545 CURVE",
"391 556 OFFCURVE",
"390 566 OFFCURVE",
"390 573 CURVE SMOOTH",
"390 578 OFFCURVE",
"391 585 OFFCURVE",
"393 595 CURVE",
"394 603 OFFCURVE",
"395 608 OFFCURVE",
"395 610 CURVE",
"396 618 LINE",
"396 666 OFFCURVE",
"374 669 OFFCURVE",
"348 669 CURVE SMOOTH",
"335 669 OFFCURVE",
"327 669 OFFCURVE",
"324 669 CURVE SMOOTH",
"270 669 LINE",
"259 670 OFFCURVE",
"243 670 OFFCURVE",
"221 670 CURVE SMOOTH",
"211 670 OFFCURVE",
"203 670 OFFCURVE",
"198 671 CURVE",
"159 672 OFFCURVE",
"124 673 OFFCURVE",
"91 673 CURVE SMOOTH",
"84 673 OFFCURVE",
"78 670 OFFCURVE",
"75 664 CURVE",
"68 653 OFFCURVE",
"64 638 OFFCURVE",
"64 619 CURVE SMOOTH",
"64 596 LINE",
"60 524 OFFCURVE",
"59 481 OFFCURVE",
"59 426 CURVE SMOOTH",
"60 344 LINE",
"60 248 LINE",
"60 28 LINE SMOOTH",
"60 16 OFFCURVE",
"73 3 OFFCURVE",
"85 3 CURVE SMOOTH",
"167 2 LINE",
"182 1 OFFCURVE",
"204 1 OFFCURVE",
"233 1 CURVE SMOOTH",
"264 0 OFFCURVE",
"314 0 OFFCURVE",
"383 0 CURVE SMOOTH",
"528 0 LINE SMOOTH"
);
},
{
closed = 1;
nodes = (
"523 351 LINE",
"527 353 LINE",
"527 354 OFFCURVE",
"527 354 OFFCURVE",
"528 354 CURVE",
"533 353 LINE",
"534 352 OFFCURVE",
"536 351 OFFCURVE",
"539 351 CURVE",
"543 353 LINE",
"548 354 LINE",
"563 355 LINE",
"568 357 LINE",
"568 357 LINE",
"571 357 LINE",
"571 356 OFFCURVE",
"571 356 OFFCURVE",
"572 356 CURVE",
"572 356 OFFCURVE",
"572 356 OFFCURVE",
"572 356 CURVE",
"581 357 LINE",
"585 359 OFFCURVE",
"587 362 OFFCURVE",
"588 367 CURVE",
"591 375 LINE",
"591 441 LINE SMOOTH",
"591 448 OFFCURVE",
"591 454 OFFCURVE",
"591 457 CURVE",
"590 460 OFFCURVE",
"590 463 OFFCURVE",
"590 464 CURVE SMOOTH",
"590 473 LINE",
"590 479 LINE SMOOTH",
"590 484 OFFCURVE",
"590 487 OFFCURVE",
"591 490 CURVE",
"591 491 LINE SMOOTH",
"591 496 OFFCURVE",
"586 499 OFFCURVE",
"575 499 CURVE SMOOTH",
"566 499 LINE",
"557 499 LINE",
"552 499 LINE",
"545 499 LINE",
"537 499 LINE",
"530 499 LINE",
"510 499 LINE",
"507 498 OFFCURVE",
"501 497 OFFCURVE",
"494 497 CURVE SMOOTH",
"489 497 OFFCURVE",
"485 497 OFFCURVE",
"482 498 CURVE",
"478 499 OFFCURVE",
"474 499 OFFCURVE",
"470 499 CURVE SMOOTH",
"446 499 LINE SMOOTH",
"436 499 OFFCURVE",
"430 496 OFFCURVE",
"428 490 CURVE",
"428 471 LINE",
"427 460 OFFCURVE",
"426 452 OFFCURVE",
"426 446 CURVE",
"425 434 OFFCURVE",
"424 416 OFFCURVE",
"424 393 CURVE SMOOTH",
"424 376 OFFCURVE",
"424 366 OFFCURVE",
"425 362 CURVE",
"430 357 LINE",
"484 353 LINE",
"488 353 OFFCURVE",
"492 352 OFFCURVE",
"496 351 CURVE",
"507 351 LINE"
);
}
);
width = 625;
}
);
note = Ldot;
unicode = 013F;
},
{
glyphname = Lslash;
lastChange = "2017-06-13 13:43:49 +0000";
layers = (
{
layerId = "CBDECE4A-293B-4E5C-B714-A3FD26C7130D";
paths = (
{
closed = 1;
nodes = (
"588 0 OFFCURVE",
"601 1 OFFCURVE",
"610 3 CURVE",
"626 4 OFFCURVE",
"639 10 OFFCURVE",
"639 21 CURVE SMOOTH",
"639 23 LINE",
"639 214 LINE SMOOTH",
"639 223 OFFCURVE",
"627 234 OFFCURVE",
"614 234 CURVE SMOOTH",
"577 234 OFFCURVE",
"550 234 OFFCURVE",
"533 233 CURVE",
"458 233 LINE SMOOTH",
"445 233 OFFCURVE",
"438 232 OFFCURVE",
"438 244 CURVE SMOOTH",
"438 256 LINE",
"438 386 LINE",
"445 388 LINE",
"495 401 LINE",
"499 403 LINE",
"501 403 OFFCURVE",
"503 404 OFFCURVE",
"504 405 CURVE",
"508 407 OFFCURVE",
"510 408 OFFCURVE",
"511 408 CURVE",
"555 419 OFFCURVE",
"563 440 OFFCURVE",
"563 476 CURVE",
"564 552 OFFCURVE",
"565 543 OFFCURVE",
"565 564 CURVE SMOOTH",
"565 575 OFFCURVE",
"558 581 OFFCURVE",
"544 583 CURVE",
"536 583 OFFCURVE",
"523 580 OFFCURVE",
"504 575 CURVE",
"498 574 OFFCURVE",
"492 573 OFFCURVE",
"486 572 CURVE",
"480 570 OFFCURVE",
"474 569 OFFCURVE",
"468 568 CURVE",
"465 567 OFFCURVE",
"453 564 OFFCURVE",
"433 561 CURVE",
"432 562 OFFCURVE",
"431 565 OFFCURVE",
"431 568 CURVE SMOOTH",
"431 573 LINE",
"434 595 LINE SMOOTH",
"435 603 OFFCURVE",
"436 608 OFFCURVE",
"436 610 CURVE",
"437 614 OFFCURVE",
"438 617 OFFCURVE",
"438 618 CURVE SMOOTH",
"438 642 OFFCURVE",
"431 657 OFFCURVE",
"418 664 CURVE SMOOTH",
"410 668 OFFCURVE",
"399 669 OFFCURVE",
"382 669 CURVE SMOOTH",
"373 669 OFFCURVE",
"368 669 OFFCURVE",
"365 669 CURVE SMOOTH",
"311 669 LINE",
"300 670 OFFCURVE",
"284 670 OFFCURVE",
"263 670 CURVE",
"236 671 LINE SMOOTH",
"197 672 OFFCURVE",
"163 673 OFFCURVE",
"133 673 CURVE SMOOTH",
"125 673 OFFCURVE",
"119 670 OFFCURVE",
"116 664 CURVE",
"109 654 OFFCURVE",
"105 639 OFFCURVE",
"105 619 CURVE SMOOTH",
"105 596 LINE",
"102 558 OFFCURVE",
"101 515 OFFCURVE",
"100 468 CURVE",
"97 468 OFFCURVE",
"95 468 OFFCURVE",
"93 467 CURVE",
"90 466 OFFCURVE",
"88 465 OFFCURVE",
"86 464 CURVE",
"46 454 LINE",
"35 450 OFFCURVE",
"20 433 OFFCURVE",
"20 422 CURVE SMOOTH",
"20 398 OFFCURVE",
"21 329 OFFCURVE",
"21 305 CURVE SMOOTH",
"21 291 OFFCURVE",
"30 284 OFFCURVE",
"47 284 CURVE SMOOTH",
"53 284 OFFCURVE",
"88 292 OFFCURVE",
"101 295 CURVE",
"101 28 LINE SMOOTH",
"101 16 OFFCURVE",
"114 3 OFFCURVE",
"126 3 CURVE SMOOTH",
"208 2 LINE",
"223 1 OFFCURVE",
"245 1 OFFCURVE",
"274 1 CURVE SMOOTH",
"305 0 OFFCURVE",
"355 0 OFFCURVE",
"423 0 CURVE SMOOTH",
"569 0 LINE SMOOTH"
);
}
);
width = 676;
}
);
note = Lslash;
unicode = 0141;
},
{
glyphname = M;
lastChange = "2017-06-26 18:06:54 +0000";
layers = (
{
layerId = "CBDECE4A-293B-4E5C-B714-A3FD26C7130D";
paths = (
{
closed = 1;
nodes = (
"186 -3 OFFCURVE",
"203 1 OFFCURVE",
"219 2 CURVE SMOOTH",
"232 3 OFFCURVE",
"250 5 OFFCURVE",
"273 6 CURVE",
"278 5 LINE",
"285 5 LINE SMOOTH",
"288 5 OFFCURVE",
"290 9 OFFCURVE",
"291 18 CURVE",
"298 45 OFFCURVE",
"300 100 OFFCURVE",
"300 193 CURVE SMOOTH",
"300 240 LINE SMOOTH",
"300 245 OFFCURVE",
"302 248 OFFCURVE",
"307 248 CURVE SMOOTH",
"308 248 OFFCURVE",
"309 243 OFFCURVE",
"315 235 CURVE SMOOTH",
"340 198 LINE",
"363 147 OFFCURVE",
"408 101 OFFCURVE",
"435 58 CURVE",
"455 58 LINE",
"477 58 LINE",
"482 57 OFFCURVE",
"489 56 OFFCURVE",
"497 56 CURVE SMOOTH",
"512 56 LINE SMOOTH",
"518 56 OFFCURVE",
"525 58 OFFCURVE",
"533 63 CURVE",
"562 84 OFFCURVE",
"581 124 OFFCURVE",
"593 151 CURVE SMOOTH",
"598 163 LINE",
"602 170 OFFCURVE",
"604 178 OFFCURVE",
"607 186 CURVE SMOOTH",
"616 211 LINE",
"627 238 LINE SMOOTH",
"630 245 OFFCURVE",
"632 248 OFFCURVE",
"635 248 CURVE SMOOTH",
"640 248 OFFCURVE",
"642 245 OFFCURVE",
"642 240 CURVE SMOOTH",
"642 217 OFFCURVE",
"642 200 OFFCURVE",
"643 188 CURVE",
"644 134 LINE",
"645 122 OFFCURVE",
"645 105 OFFCURVE",
"645 84 CURVE SMOOTH",
"645 52 OFFCURVE",
"647 29 OFFCURVE",
"651 16 CURVE",
"652 9 OFFCURVE",
"654 5 OFFCURVE",
"657 5 CURVE SMOOTH",
"665 5 LINE",
"666 6 OFFCURVE",
"667 6 OFFCURVE",
"668 6 CURVE",
"707 3 LINE",
"724 3 OFFCURVE",
"736 1 OFFCURVE",
"745 0 CURVE",
"770 -1 LINE SMOOTH",
"791 -2 OFFCURVE",
"808 -3 OFFCURVE",
"820 -3 CURVE SMOOTH",
"827 -3 OFFCURVE",
"832 -2 OFFCURVE",
"837 -1 CURVE",
"857 -1 LINE",
"875 -1 LINE",
"882 -1 LINE",
"927 10 LINE",
"930 18 LINE",
"930 29 LINE",
"930 58 LINE",
"927 73 OFFCURVE",
"927 103 OFFCURVE",
"927 143 CURVE SMOOTH",
"927 162 OFFCURVE",
"927 176 OFFCURVE",
"926 185 CURVE",
"926 220 LINE",
"928 240 LINE",
"929 256 OFFCURVE",
"935 325 OFFCURVE",
"935 370 CURVE SMOOTH",
"935 428 LINE SMOOTH",
"935 488 OFFCURVE",
"934 532 OFFCURVE",
"933 560 CURVE SMOOTH",
"930 658 LINE",
"928 668 OFFCURVE",
"926 673 OFFCURVE",
"925 673 CURVE SMOOTH",
"903 673 LINE",
"890 673 LINE",
"880 673 LINE",
"865 673 LINE",
"696 673 LINE",
"618 673 LINE SMOOTH",
"617 673 OFFCURVE",
"616 672 OFFCURVE",
"615 671 CURVE SMOOTH",
"614 670 OFFCURVE",
"613 669 OFFCURVE",
"611 668 CURVE",
"608 665 OFFCURVE",
"605 661 OFFCURVE",
"602 656 CURVE",
"592 641 OFFCURVE",
"586 631 OFFCURVE",
"583 625 CURVE",
"582 624 OFFCURVE",
"581 621 OFFCURVE",
"580 618 CURVE",
"579 614 OFFCURVE",
"577 609 OFFCURVE",
"575 604 CURVE",
"558 568 LINE",
"518 483 LINE",
"503 450 LINE",
"500 445 OFFCURVE",
"499 441 OFFCURVE",
"498 439 CURVE",
"497 436 OFFCURVE",
"497 435 OFFCURVE",
"496 434 CURVE",
"492 423 OFFCURVE",
"487 398 OFFCURVE",
"480 398 CURVE SMOOTH",
"475 398 OFFCURVE",
"452 423 OFFCURVE",
"447 434 CURVE",
"447 435 OFFCURVE",
"446 436 OFFCURVE",
"445 439 CURVE",
"443 441 OFFCURVE",
"441 444 OFFCURVE",
"440 449 CURVE",
"438 454 OFFCURVE",
"436 460 OFFCURVE",
"434 465 CURVE",
"431 470 OFFCURVE",
"429 476 OFFCURVE",
"427 481 CURVE SMOOTH",
"419 500 OFFCURVE",
"414 514 OFFCURVE",
"409 524 CURVE",
"385 555 LINE SMOOTH",
"371 574 OFFCURVE",
"371 593 OFFCURVE",
"366 604 CURVE",
"348 625 OFFCURVE",
"344 633 OFFCURVE",
"340 641 CURVE",
"332 654 OFFCURVE",
"325 663 OFFCURVE",
"320 668 CURVE SMOOTH",
"319 669 OFFCURVE",
"317 670 OFFCURVE",
"316 671 CURVE SMOOTH",
"315 672 OFFCURVE",
"314 673 OFFCURVE",
"313 673 CURVE SMOOTH",
"235 673 LINE",
"106 673 LINE SMOOTH",
"89 673 OFFCURVE",
"76 671 OFFCURVE",
"65 668 CURVE SMOOTH",
"49 664 OFFCURVE",
"37 654 OFFCURVE",
"37 641 CURVE SMOOTH",
"37 640 OFFCURVE",
"38 638 OFFCURVE",
"39 637 CURVE SMOOTH",
"40 636 OFFCURVE",
"40 635 OFFCURVE",
"40 634 CURVE SMOOTH",
"40 624 OFFCURVE",
"40 615 OFFCURVE",
"41 608 CURVE",
"42 580 LINE",
"42 561 OFFCURVE",
"41 541 OFFCURVE",
"40 518 CURVE",
"38 500 OFFCURVE",
"37 483 OFFCURVE",
"37 466 CURVE",
"38 459 LINE",
"38 454 OFFCURVE",
"39 450 OFFCURVE",
"40 448 CURVE",
"40 435 LINE",
"40 428 LINE SMOOTH",
"40 379 OFFCURVE",
"39 344 OFFCURVE",
"38 323 CURVE SMOOTH",
"37 289 LINE SMOOTH",
"36 260 OFFCURVE",
"35 237 OFFCURVE",
"35 220 CURVE SMOOTH",
"37 143 LINE SMOOTH",
"37 123 OFFCURVE",
"37 108 OFFCURVE",
"38 98 CURVE",
"39 52 LINE",
"40 46 OFFCURVE",
"40 38 OFFCURVE",
"40 29 CURVE SMOOTH",
"40 22 OFFCURVE",
"40 18 OFFCURVE",
"41 18 CURVE",
"45 10 LINE",
"90 -1 LINE",
"97 -1 LINE",
"115 -1 LINE",
"135 -1 LINE",
"139 -2 OFFCURVE",
"144 -3 OFFCURVE",
"151 -3 CURVE SMOOTH"
);
}
);
width = 970;
}
);
note = M;
unicode = 004D;
},
{
glyphname = N;
lastChange = "2017-06-26 18:07:09 +0000";
layers = (
{
layerId = "CBDECE4A-293B-4E5C-B714-A3FD26C7130D";
paths = (
{
closed = 1;
nodes = (
"163 -3 OFFCURVE",
"210 1 OFFCURVE",
"226 2 CURVE SMOOTH",
"239 3 OFFCURVE",
"257 5 OFFCURVE",
"280 6 CURVE",
"287 5 OFFCURVE",
"293 5 OFFCURVE",
"296 8 CURVE",
"301 9 OFFCURVE",
"304 13 OFFCURVE",
"304 18 CURVE",
"303 23 LINE",
"303 38 LINE",
"303 58 LINE SMOOTH",
"303 70 OFFCURVE",
"304 80 OFFCURVE",
"305 88 CURVE",
"305 126 LINE",
"305 165 LINE SMOOTH",
"305 180 OFFCURVE",
"305 191 OFFCURVE",
"306 198 CURVE",
"306 220 LINE SMOOTH",
"306 225 OFFCURVE",
"309 228 OFFCURVE",
"315 228 CURVE SMOOTH",
"316 228 OFFCURVE",
"317 227 OFFCURVE",
"319 226 CURVE",
"320 224 OFFCURVE",
"322 222 OFFCURVE",
"323 219 CURVE",
"332 207 OFFCURVE",
"360 182 OFFCURVE",
"360 181 CURVE",
"532 18 LINE",
"547 6 OFFCURVE",
"564 -3 OFFCURVE",
"591 0 CURVE",
"606 0 LINE",
"667 0 LINE",
"686 0 LINE",
"731 0 LINE",
"748 -1 LINE",
"765 0 LINE",
"773 3 OFFCURVE",
"778 13 OFFCURVE",
"781 28 CURVE",
"785 66 LINE",
"785 224 LINE",
"785 258 LINE",
"785 316 LINE SMOOTH",
"785 347 OFFCURVE",
"785 372 OFFCURVE",
"786 389 CURVE",
"786 463 LINE SMOOTH",
"786 490 OFFCURVE",
"786 510 OFFCURVE",
"787 521 CURVE",
"787 553 LINE",
"785 563 LINE",
"785 571 LINE",
"785 583 LINE SMOOTH",
"785 590 OFFCURVE",
"785 595 OFFCURVE",
"786 599 CURVE",
"787 615 LINE",
"788 625 LINE",
"788 661 OFFCURVE",
"777 668 OFFCURVE",
"742 668 CURVE SMOOTH",
"730 668 LINE",
"702 668 LINE",
"668 668 LINE",
"659 669 OFFCURVE",
"688 669 OFFCURVE",
"673 669 CURVE SMOOTH",
"660 669 OFFCURVE",
"650 669 OFFCURVE",
"645 670 CURVE",
"633 670 LINE",
"576 670 LINE SMOOTH",
"572 670 OFFCURVE",
"567 669 OFFCURVE",
"560 668 CURVE",
"552 665 OFFCURVE",
"544 660 OFFCURVE",
"536 653 CURVE",
"535 652 OFFCURVE",
"534 652 OFFCURVE",
"533 651 CURVE SMOOTH",
"532 650 OFFCURVE",
"531 648 OFFCURVE",
"530 646 CURVE SMOOTH",
"529 644 OFFCURVE",
"529 640 OFFCURVE",
"528 635 CURVE",
"525 564 LINE",
"525 471 LINE",
"524 461 OFFCURVE",
"523 447 OFFCURVE",
"523 430 CURVE",
"491 458 LINE",
"355 589 LINE SMOOTH",
"346 597 OFFCURVE",
"338 613 OFFCURVE",
"326 631 CURVE SMOOTH",
"318 643 OFFCURVE",
"320 637 OFFCURVE",
"312 648 CURVE",
"309 653 OFFCURVE",
"293 672 OFFCURVE",
"286 676 CURVE SMOOTH",
"279 680 OFFCURVE",
"266 681 OFFCURVE",
"247 681 CURVE SMOOTH",
"237 681 OFFCURVE",
"212 681 OFFCURVE",
"172 677 CURVE SMOOTH",
"150 675 LINE",
"111 674 OFFCURVE",
"110 673 OFFCURVE",
"85 673 CURVE SMOOTH",
"52 673 OFFCURVE",
"33 665 OFFCURVE",
"37 634 CURVE",
"38 623 OFFCURVE",
"38 605 OFFCURVE",
"38 582 CURVE SMOOTH",
"38 559 OFFCURVE",
"38 541 OFFCURVE",
"37 530 CURVE",
"35 428 LINE SMOOTH",
"35 359 OFFCURVE",
"35 281 OFFCURVE",
"42 220 CURVE",
"42 185 LINE",
"43 176 OFFCURVE",
"43 162 OFFCURVE",
"43 143 CURVE",
"44 132 OFFCURVE",
"45 117 OFFCURVE",
"45 98 CURVE SMOOTH",
"45 72 OFFCURVE",
"46 49 OFFCURVE",
"47 29 CURVE",
"47 22 OFFCURVE",
"47 18 OFFCURVE",
"48 18 CURVE",
"51 10 LINE",
"96 -1 LINE",
"105 -1 LINE",
"121 -1 LINE",
"141 -1 LINE",
"146 -2 OFFCURVE",
"151 -3 OFFCURVE",
"158 -3 CURVE SMOOTH"
);
}
);
width = 823;
}
);
note = N;
unicode = 004E;
},
{
glyphname = Eng;
lastChange = "2017-06-15 13:23:39 +0000";
layers = (
{
layerId = "CBDECE4A-293B-4E5C-B714-A3FD26C7130D";
paths = (
{
closed = 1;
nodes = (
"618 -293 OFFCURVE",
"638 -288 OFFCURVE",
"663 -278 CURVE SMOOTH",
"708 -260 OFFCURVE",
"744 -231 OFFCURVE",
"769 -191 CURVE",
"809 -140 OFFCURVE",
"813 -59 OFFCURVE",
"813 58 CURVE SMOOTH",
"813 224 LINE",
"813 258 LINE",
"813 316 LINE SMOOTH",
"813 347 OFFCURVE",
"813 372 OFFCURVE",
"814 389 CURVE",
"814 463 LINE SMOOTH",
"814 490 OFFCURVE",
"814 510 OFFCURVE",
"815 521 CURVE",
"815 553 LINE",
"813 563 LINE",
"813 571 LINE",
"813 583 LINE SMOOTH",
"813 590 OFFCURVE",
"813 595 OFFCURVE",
"814 599 CURVE",
"815 615 LINE",
"816 625 LINE",
"816 661 OFFCURVE",
"805 668 OFFCURVE",
"770 668 CURVE SMOOTH",
"758 668 LINE",
"730 668 LINE",
"696 668 LINE",
"687 669 OFFCURVE",
"676 669 OFFCURVE",
"661 669 CURVE SMOOTH",
"648 669 OFFCURVE",
"638 669 OFFCURVE",
"633 670 CURVE",
"621 670 LINE",
"564 670 LINE SMOOTH",
"560 670 OFFCURVE",
"555 669 OFFCURVE",
"548 668 CURVE",
"540 665 OFFCURVE",
"532 660 OFFCURVE",
"524 653 CURVE",
"523 652 OFFCURVE",
"522 652 OFFCURVE",
"521 651 CURVE SMOOTH",
"520 650 OFFCURVE",
"519 648 OFFCURVE",
"518 646 CURVE SMOOTH",
"517 644 OFFCURVE",
"517 640 OFFCURVE",
"516 635 CURVE",
"513 564 LINE",
"513 471 LINE",
"512 461 OFFCURVE",
"511 447 OFFCURVE",
"511 430 CURVE",
"479 478 LINE",
"413 579 LINE SMOOTH",
"406 589 OFFCURVE",
"396 603 OFFCURVE",
"384 621 CURVE SMOOTH",
"376 633 OFFCURVE",
"368 644 OFFCURVE",
"360 655 CURVE",
"357 660 OFFCURVE",
"351 672 OFFCURVE",
"344 676 CURVE SMOOTH",
"337 680 OFFCURVE",
"324 681 OFFCURVE",
"305 681 CURVE SMOOTH",
"295 681 OFFCURVE",
"270 680 OFFCURVE",
"230 677 CURVE SMOOTH",
"208 675 LINE",
"169 674 OFFCURVE",
"138 673 OFFCURVE",
"113 673 CURVE SMOOTH",
"80 673 OFFCURVE",
"61 665 OFFCURVE",
"65 634 CURVE",
"66 623 OFFCURVE",
"66 605 OFFCURVE",
"66 582 CURVE SMOOTH",
"66 559 OFFCURVE",
"66 541 OFFCURVE",
"65 530 CURVE",
"63 428 LINE SMOOTH",
"63 359 OFFCURVE",
"63 281 OFFCURVE",
"70 220 CURVE",
"70 185 LINE",
"71 176 OFFCURVE",
"71 162 OFFCURVE",
"71 143 CURVE",
"72 132 OFFCURVE",
"73 117 OFFCURVE",
"73 98 CURVE SMOOTH",
"73 72 OFFCURVE",
"74 49 OFFCURVE",
"75 29 CURVE",
"75 22 OFFCURVE",
"75 18 OFFCURVE",
"76 18 CURVE",
"79 10 LINE",
"124 -1 LINE",
"133 -1 LINE",
"149 -1 LINE",
"169 -1 LINE",
"174 -2 OFFCURVE",
"179 -3 OFFCURVE",
"186 -3 CURVE SMOOTH",
"221 -3 OFFCURVE",
"268 1 OFFCURVE",
"284 2 CURVE SMOOTH",
"297 3 OFFCURVE",
"315 5 OFFCURVE",
"338 6 CURVE",
"345 5 OFFCURVE",
"351 5 OFFCURVE",
"354 8 CURVE",
"359 9 OFFCURVE",
"362 13 OFFCURVE",
"362 18 CURVE",
"361 23 LINE",
"361 38 LINE",
"361 58 LINE SMOOTH",
"361 70 OFFCURVE",
"362 80 OFFCURVE",
"363 88 CURVE",
"363 126 LINE",
"363 165 LINE SMOOTH",
"363 180 OFFCURVE",
"363 191 OFFCURVE",
"364 198 CURVE",
"364 220 LINE SMOOTH",
"364 225 OFFCURVE",
"367 228 OFFCURVE",
"373 228 CURVE SMOOTH",
"374 228 OFFCURVE",
"375 227 OFFCURVE",
"377 226 CURVE",
"378 224 OFFCURVE",
"380 222 OFFCURVE",
"381 219 CURVE",
"390 207 OFFCURVE",
"418 162 OFFCURVE",
"418 161 CURVE",
"509 33 LINE",
"509 -21 OFFCURVE",
"508 -38 OFFCURVE",
"505 -59 CURVE",
"501 -78 LINE",
"500 -80 OFFCURVE",
"500 -83 OFFCURVE",
"499 -88 CURVE SMOOTH",
"498 -93 OFFCURVE",
"496 -97 OFFCURVE",
"493 -101 CURVE",
"487 -120 OFFCURVE",
"476 -129 OFFCURVE",
"461 -129 CURVE SMOOTH",
"405 -129 OFFCURVE",
"377 -125 OFFCURVE",
"301 -100 CURVE",
"300 -99 OFFCURVE",
"300 -99 OFFCURVE",
"300 -100 CURVE",
"299 -101 OFFCURVE",
"298 -105 OFFCURVE",
"298 -110 CURVE SMOOTH",
"298 -113 OFFCURVE",
"297 -116 OFFCURVE",
"296 -120 CURVE",
"295 -131 OFFCURVE",
"293 -145 OFFCURVE",
"293 -154 CURVE SMOOTH",
"293 -196 LINE",
"292 -201 OFFCURVE",
"290 -208 OFFCURVE",
"289 -216 CURVE SMOOTH",
"287 -238 LINE",
"287 -241 OFFCURVE",
"287 -243 OFFCURVE",
"288 -244 CURVE",
"333 -264 LINE SMOOTH",
"390 -288 OFFCURVE",
"453 -300 OFFCURVE",
"521 -300 CURVE SMOOTH",
"548 -300 OFFCURVE",
"576 -298 OFFCURVE",
"603 -294 CURVE"
);
}
);
width = 873;
}
);
note = Eng;
unicode = 014A;
},
{
glyphname = O;
lastChange = "2017-07-05 12:27:43 +0000";
layers = (
{
layerId = "CBDECE4A-293B-4E5C-B714-A3FD26C7130D";
paths = (
{
closed = 1;
nodes = (
"605 -46 OFFCURVE",
"725 -6 OFFCURVE",
"787 105 CURVE SMOOTH",
"820 164 OFFCURVE",
"833 250 OFFCURVE",
"833 358 CURVE SMOOTH",
"833 449 OFFCURVE",
"812 524 OFFCURVE",
"770 580 CURVE SMOOTH",
"699 674 OFFCURVE",
"560 718 OFFCURVE",
"447 718 CURVE SMOOTH",
"302 718 OFFCURVE",
"183 685 OFFCURVE",
"119 621 CURVE SMOOTH",
"55 557 OFFCURVE",
"25 457 OFFCURVE",
"25 314 CURVE SMOOTH",
"25 212 OFFCURVE",
"44 134 OFFCURVE",
"83 76 CURVE SMOOTH",
"148 -20 OFFCURVE",
"278 -46 OFFCURVE",
"437 -46 CURVE SMOOTH"
);
},
{
closed = 1;
nodes = (
"424 90 OFFCURVE",
"408 106 OFFCURVE",
"398 135 CURVE SMOOTH",
"386 170 OFFCURVE",
"382 211 OFFCURVE",
"382 238 CURVE",
"379 259 OFFCURVE",
"378 287 OFFCURVE",
"378 319 CURVE SMOOTH",
"378 368 OFFCURVE",
"379 404 OFFCURVE",
"382 428 CURVE",
"382 453 OFFCURVE",
"386 492 OFFCURVE",
"398 526 CURVE",
"408 550 OFFCURVE",
"424 563 OFFCURVE",
"447 563 CURVE SMOOTH",
"458 563 OFFCURVE",
"458 556 OFFCURVE",
"470 548 CURVE SMOOTH",
"533 506 OFFCURVE",
"519 409 OFFCURVE",
"519 358 CURVE SMOOTH",
"519 336 LINE",
"519 302 LINE SMOOTH",
"519 237 OFFCURVE",
"511 152 OFFCURVE",
"487 128 CURVE SMOOTH",
"468 109 OFFCURVE",
"460 90 OFFCURVE",
"447 90 CURVE SMOOTH"
);
}
);
width = 858;
}
);
note = O;
unicode = 004F;
},
{
glyphname = uni0230;
lastChange = "2017-06-11 23:28:21 +0000";
layers = (
{
layerId = "CBDECE4A-293B-4E5C-B714-A3FD26C7130D";
paths = (
{
closed = 1;
nodes = (
"626 961 OFFCURVE",
"633 968 OFFCURVE",
"635 981 CURVE",
"638 990 OFFCURVE",
"639 1001 OFFCURVE",
"639 1016 CURVE SMOOTH",
"639 1039 LINE",
"638 1047 OFFCURVE",
"638 1056 OFFCURVE",
"638 1066 CURVE SMOOTH",
"638 1076 LINE SMOOTH",
"638 1080 OFFCURVE",
"638 1085 OFFCURVE",
"637 1092 CURVE SMOOTH",
"636 1098 OFFCURVE",
"636 1106 OFFCURVE",
"636 1116 CURVE SMOOTH",
"636 1136 OFFCURVE",
"608 1141 OFFCURVE",
"581 1141 CURVE SMOOTH",
"558 1141 LINE SMOOTH",
"545 1141 OFFCURVE",
"515 1142 OFFCURVE",
"468 1143 CURVE SMOOTH",
"428 1144 LINE SMOOTH",
"401 1145 OFFCURVE",
"384 1146 OFFCURVE",
"375 1146 CURVE SMOOTH",
"353 1146 LINE",
"243 1146 LINE SMOOTH",
"235 1146 OFFCURVE",
"227 1138 OFFCURVE",
"226 1137 CURVE",
"221 1133 OFFCURVE",
"218 1128 OFFCURVE",
"218 1121 CURVE SMOOTH",
"218 1104 OFFCURVE",
"218 1093 OFFCURVE",
"219 1086 CURVE",
"219 1057 LINE",
"219 1027 LINE",
"219 991 LINE SMOOTH",
"219 984 OFFCURVE",
"221 979 OFFCURVE",
"226 976 CURVE",
"234 968 OFFCURVE",
"247 966 OFFCURVE",
"268 966 CURVE SMOOTH",
"296 966 LINE",
"396 966 LINE",
"406 966 LINE",
"428 966 LINE SMOOTH",
"438 966 OFFCURVE",
"446 965 OFFCURVE",
"453 964 CURVE",
"456 963 OFFCURVE",
"461 963 OFFCURVE",
"466 964 CURVE",
"471 964 OFFCURVE",
"475 964 OFFCURVE",
"478 964 CURVE SMOOTH",
"498 964 LINE",
"508 963 LINE",
"533 963 LINE",
"555 962 LINE",
"566 962 OFFCURVE",
"574 962 OFFCURVE",
"581 961 CURVE",
"615 961 LINE SMOOTH"
);
},
{
closed = 1;
nodes = (
"526 740 LINE",
"537 741 OFFCURVE",
"543 750 OFFCURVE",
"543 768 CURVE SMOOTH",
"543 778 OFFCURVE",
"542 785 OFFCURVE",
"541 790 CURVE",
"540 793 OFFCURVE",
"540 796 OFFCURVE",
"541 801 CURVE",
"541 806 OFFCURVE",
"541 809 OFFCURVE",
"541 811 CURVE SMOOTH",
"541 821 LINE",
"541 834 LINE",
"541 844 LINE",
"540 845 OFFCURVE",
"540 847 OFFCURVE",
"540 848 CURVE SMOOTH",
"540 849 OFFCURVE",
"540 849 OFFCURVE",
"540 850 CURVE SMOOTH",
"540 859 OFFCURVE",
"540 865 OFFCURVE",
"541 870 CURVE",
"542 873 OFFCURVE",
"542 877 OFFCURVE",
"542 881 CURVE",
"541 885 OFFCURVE",
"541 888 OFFCURVE",
"541 890 CURVE SMOOTH",
"541 899 OFFCURVE",
"540 905 OFFCURVE",
"539 909 CURVE SMOOTH",
"538 913 OFFCURVE",
"535 915 OFFCURVE",
"530 915 CURVE SMOOTH",
"526 915 LINE",
"520 914 LINE",
"513 914 LINE SMOOTH",
"510 914 OFFCURVE",
"507 914 OFFCURVE",
"505 915 CURVE",
"503 915 OFFCURVE",
"501 915 OFFCURVE",
"500 915 CURVE",
"486 916 LINE",
"451 914 LINE",
"348 914 LINE SMOOTH",
"331 914 OFFCURVE",
"328 910 OFFCURVE",
"319 885 CURVE",
"319 884 OFFCURVE",
"319 884 OFFCURVE",
"320 883 CURVE",
"320 882 OFFCURVE",
"320 881 OFFCURVE",
"320 880 CURVE SMOOTH",
"320 878 LINE",
"316 846 LINE",
"314 842 OFFCURVE",
"313 838 OFFCURVE",
"313 835 CURVE",
"314 828 LINE",
"315 808 LINE",
"315 779 LINE",
"321 746 LINE",
"328 740 LINE"
);
},
{
closed = 1;
nodes = (
"606 -24 OFFCURVE",
"707 10 OFFCURVE",
"768 115 CURVE SMOOTH",
"799 172 OFFCURVE",
"814 252 OFFCURVE",
"814 355 CURVE SMOOTH",
"814 443 OFFCURVE",
"793 514 OFFCURVE",
"751 568 CURVE SMOOTH",
"683 659 OFFCURVE",
"561 695 OFFCURVE",
"448 695 CURVE SMOOTH",
"303 695 OFFCURVE",
"204 667 OFFCURVE",
"140 606 CURVE SMOOTH",
"76 545 OFFCURVE",
"46 450 OFFCURVE",
"46 313 CURVE SMOOTH",
"46 217 OFFCURVE",
"65 142 OFFCURVE",
"104 88 CURVE SMOOTH",
"171 -3 OFFCURVE",
"279 -24 OFFCURVE",
"438 -24 CURVE SMOOTH"
);
},
{
closed = 1;
nodes = (
"415 73 OFFCURVE",
"405 90 OFFCURVE",
"398 125 CURVE SMOOTH",
"391 166 OFFCURVE",
"388 203 OFFCURVE",
"388 234 CURVE",
"386 259 OFFCURVE",
"385 290 OFFCURVE",
"385 328 CURVE SMOOTH",
"385 385 OFFCURVE",
"386 426 OFFCURVE",
"388 453 CURVE",
"388 484 OFFCURVE",
"391 519 OFFCURVE",
"398 558 CURVE",
"405 586 OFFCURVE",
"415 600 OFFCURVE",
"430 600 CURVE SMOOTH",
"437 600 OFFCURVE",
"444 594 OFFCURVE",
"449 583 CURVE SMOOTH",
"469 536 OFFCURVE",
"476 432 OFFCURVE",
"476 373 CURVE SMOOTH",
"476 348 LINE",
"476 308 LINE SMOOTH",
"476 233 OFFCURVE",
"469 131 OFFCURVE",
"449 88 CURVE SMOOTH",
"444 78 OFFCURVE",
"438 73 OFFCURVE",
"430 73 CURVE SMOOTH"
);
}
);
width = 859;
}
);
note = uni0230;
unicode = 0230;
},
{
glyphname = Ohorn;
lastChange = "2017-06-25 17:31:59 +0000";
layers = (
{
layerId = "CBDECE4A-293B-4E5C-B714-A3FD26C7130D";
paths = (
{
closed = 1;
nodes = (
"420 90 OFFCURVE",
"407 105 OFFCURVE",
"397 137 CURVE SMOOTH",
"386 173 OFFCURVE",
"384 208 OFFCURVE",
"384 236 CURVE",
"381 259 OFFCURVE",
"380 287 OFFCURVE",
"380 321 CURVE SMOOTH",
"380 373 OFFCURVE",
"381 410 OFFCURVE",
"384 435 CURVE",
"384 463 OFFCURVE",
"388 494 OFFCURVE",
"397 530 CURVE",
"407 555 OFFCURVE",
"420 568 OFFCURVE",
"440 568 CURVE SMOOTH",
"450 568 OFFCURVE",
"459 563 OFFCURVE",
"466 553 CURVE SMOOTH",
"495 512 OFFCURVE",
"502 416 OFFCURVE",
"502 362 CURVE SMOOTH",
"502 303 LINE SMOOTH",
"502 235 OFFCURVE",
"493 142 OFFCURVE",
"466 104 CURVE SMOOTH",
"459 94 OFFCURVE",
"451 90 OFFCURVE",
"440 90 CURVE SMOOTH"
);
},
{
closed = 1;
nodes = (
"859 819 LINE",
"697 822 LINE",
"702 804 LINE",
"705 770 LINE",
"705 747 LINE SMOOTH",
"705 736 OFFCURVE",
"698 694 OFFCURVE",
"684 678 CURVE",
"676 670 LINE SMOOTH",
"673 667 OFFCURVE",
"669 665 OFFCURVE",
"662 662 CURVE SMOOTH",
"644 655 LINE",
"641 658 LINE",
"568 681 LINE",
"531 690 OFFCURVE",
"491 695 OFFCURVE",
"448 695 CURVE SMOOTH",
"303 695 OFFCURVE",
"204 667 OFFCURVE",
"140 606 CURVE SMOOTH",
"76 545 OFFCURVE",
"46 450 OFFCURVE",
"46 313 CURVE SMOOTH",
"46 217 OFFCURVE",
"65 142 OFFCURVE",
"104 88 CURVE SMOOTH",
"171 -3 OFFCURVE",
"279 -24 OFFCURVE",
"438 -24 CURVE SMOOTH",
"606 -24 OFFCURVE",
"707 10 OFFCURVE",
"768 115 CURVE SMOOTH",
"799 172 OFFCURVE",
"814 252 OFFCURVE",
"814 355 CURVE SMOOTH",
"814 425 OFFCURVE",
"800 487 OFFCURVE",
"771 541 CURVE",
"750 565 LINE",
"749 566 LINE",
"759 571 OFFCURVE",
"771 580 OFFCURVE",
"784 590 CURVE",
"804 607 LINE",
"834 644 LINE",
"839 653 OFFCURVE",
"859 684 OFFCURVE",
"864 711 CURVE",
"869 746 LINE",
"869 766 LINE",
"864 802 LINE"
);
}
);
width = 859;
}
);
note = Ohorn;
unicode = 01A0;
},
{
glyphname = uni01EA;
lastChange = "2017-07-05 12:37:08 +0000";
layers = (
{
layerId = "CBDECE4A-293B-4E5C-B714-A3FD26C7130D";
paths = (
{
closed = 1;
nodes = (
"683 659 OFFCURVE",
"561 695 OFFCURVE",
"448 695 CURVE SMOOTH",
"303 695 OFFCURVE",
"204 667 OFFCURVE",
"140 606 CURVE SMOOTH",
"76 545 OFFCURVE",
"46 450 OFFCURVE",
"46 313 CURVE SMOOTH",
"46 217 OFFCURVE",
"65 142 OFFCURVE",
"104 88 CURVE SMOOTH",
"171 -3 OFFCURVE",
"259 -24 OFFCURVE",
"358 -24 CURVE",
"346 -33 LINE",
"290 -70 OFFCURVE",
"263 -103 OFFCURVE",
"263 -163 CURVE SMOOTH",
"263 -175 OFFCURVE",
"265 -186 OFFCURVE",
"268 -195 CURVE",
"279 -220 OFFCURVE",
"302 -240 OFFCURVE",
"339 -253 CURVE SMOOTH",
"378 -267 OFFCURVE",
"433 -276 OFFCURVE",
"506 -276 CURVE",
"516 -274 LINE",
"518 -273 OFFCURVE",
"521 -273 OFFCURVE",
"524 -273 CURVE SMOOTH",
"527 -273 OFFCURVE",
"531 -272 OFFCURVE",
"536 -271 CURVE",
"547 -270 OFFCURVE",
"563 -265 OFFCURVE",
"583 -258 CURVE",
"596 -251 OFFCURVE",
"608 -245 OFFCURVE",
"609 -240 CURVE SMOOTH",
"626 -158 LINE",
"626 -153 LINE SMOOTH",
"626 -148 OFFCURVE",
"624 -145 OFFCURVE",
"619 -143 CURVE",
"588 -154 OFFCURVE",
"559 -160 OFFCURVE",
"532 -160 CURVE SMOOTH",
"523 -160 OFFCURVE",
"517 -160 OFFCURVE",
"512 -161 CURVE",
"504 -164 OFFCURVE",
"494 -159 OFFCURVE",
"491 -158 CURVE",
"476 -154 OFFCURVE",
"468 -146 OFFCURVE",
"468 -126 CURVE SMOOTH",
"468 -118 OFFCURVE",
"472 -106 OFFCURVE",
"481 -90 CURVE SMOOTH",
"494 -67 OFFCURVE",
"508 -49 OFFCURVE",
"527 -33 CURVE",
"617 -8 LINE",
"698 14 OFFCURVE",
"739 66 OFFCURVE",
"768 115 CURVE",
"799 172 OFFCURVE",
"814 252 OFFCURVE",
"814 355 CURVE SMOOTH",
"814 443 OFFCURVE",
"793 514 OFFCURVE",
"751 568 CURVE SMOOTH"
);
},
{
closed = 1;
nodes = (
"391 194 OFFCURVE",
"389 228 OFFCURVE",
"389 256 CURVE",
"386 279 OFFCURVE",
"385 307 OFFCURVE",
"385 341 CURVE SMOOTH",
"385 393 OFFCURVE",
"386 430 OFFCURVE",
"389 455 CURVE",
"389 483 OFFCURVE",
"393 514 OFFCURVE",
"401 550 CURVE",
"411 575 OFFCURVE",
"423 588 OFFCURVE",
"442 588 CURVE SMOOTH",
"452 588 OFFCURVE",
"460 583 OFFCURVE",
"466 573 CURVE SMOOTH",
"492 530 OFFCURVE",
"501 436 OFFCURVE",
"501 382 CURVE SMOOTH",
"501 359 LINE",
"501 323 LINE SMOOTH",
"501 255 OFFCURVE",
"490 164 OFFCURVE",
"466 124 CURVE SMOOTH",
"460 114 OFFCURVE",
"453 110 OFFCURVE",
"442 110 CURVE SMOOTH",
"423 110 OFFCURVE",
"410 125 OFFCURVE",
"401 157 CURVE SMOOTH"
);
}
);
width = 859;
}
);
note = uni01EA;
unicode = 01EA;
},
{
glyphname = Oslash;
lastChange = "2017-06-20 16:21:02 +0000";
layers = (
{
layerId = "CBDECE4A-293B-4E5C-B714-A3FD26C7130D";
paths = (
{
closed = 1;
nodes = (
"131 -50 OFFCURVE",
"141 -42 OFFCURVE",
"154 -31 CURVE SMOOTH",
"167 -20 OFFCURVE",
"183 -5 OFFCURVE",
"204 16 CURVE",
"234 1 OFFCURVE",
"274 -10 OFFCURVE",
"323 -18 CURVE",
"356 -22 OFFCURVE",
"399 -24 OFFCURVE",
"453 -24 CURVE SMOOTH",
"620 -24 OFFCURVE",
"724 10 OFFCURVE",
"781 115 CURVE SMOOTH",
"812 170 OFFCURVE",
"828 250 OFFCURVE",
"828 355 CURVE SMOOTH",
"828 438 OFFCURVE",
"809 506 OFFCURVE",
"771 560 CURVE",
"789 576 LINE",
"795 582 OFFCURVE",
"800 586 OFFCURVE",
"803 588 CURVE",
"804 590 OFFCURVE",
"808 594 OFFCURVE",
"813 599 CURVE SMOOTH",
"817 603 OFFCURVE",
"826 613 OFFCURVE",
"840 630 CURVE",
"845 639 OFFCURVE",
"848 645 OFFCURVE",
"848 648 CURVE SMOOTH",
"848 655 OFFCURVE",
"845 658 OFFCURVE",
"835 663 CURVE",
"830 666 OFFCURVE",
"826 668 OFFCURVE",
"823 670 CURVE",
"817 671 OFFCURVE",
"812 674 OFFCURVE",
"808 678 CURVE",
"793 685 LINE",
"789 688 OFFCURVE",
"785 689 OFFCURVE",
"781 689 CURVE SMOOTH",
"778 689 OFFCURVE",
"774 688 OFFCURVE",
"771 686 CURVE",
"705 625 LINE",
"642 672 OFFCURVE",
"550 695 OFFCURVE",
"463 695 CURVE SMOOTH",
"318 695 OFFCURVE",
"218 667 OFFCURVE",
"154 606 CURVE SMOOTH",
"90 545 OFFCURVE",
"60 450 OFFCURVE",
"60 313 CURVE SMOOTH",
"60 209 OFFCURVE",
"83 129 OFFCURVE",
"128 74 CURVE",
"98 43 LINE SMOOTH",
"94 39 OFFCURVE",
"90 35 OFFCURVE",
"86 30 CURVE SMOOTH",
"82 25 OFFCURVE",
"78 21 OFFCURVE",
"74 18 CURVE",
"73 16 OFFCURVE",
"70 13 OFFCURVE",
"67 8 CURVE",
"63 3 OFFCURVE",
"61 -1 OFFCURVE",
"60 -4 CURVE SMOOTH",
"57 -13 OFFCURVE",
"61 -20 OFFCURVE",
"76 -28 CURVE",
"83 -33 LINE",
"86 -34 OFFCURVE",
"90 -38 OFFCURVE",
"96 -44 CURVE",
"99 -45 OFFCURVE",
"104 -48 OFFCURVE",
"108 -48 CURVE",
"113 -51 OFFCURVE",
"118 -53 OFFCURVE",
"123 -53 CURVE"
);
},
{
closed = 1;
nodes = (
"381 436 OFFCURVE",
"384 510 OFFCURVE",
"402 561 CURVE SMOOTH",
"411 587 OFFCURVE",
"424 600 OFFCURVE",
"442 600 CURVE SMOOTH",
"463 600 OFFCURVE",
"478 571 OFFCURVE",
"485 543 CURVE SMOOTH",
"491 518 OFFCURVE",
"497 500 OFFCURVE",
"501 449 CURVE",
"381 329 LINE"
);
},
{
closed = 1;
nodes = (
"423 73 OFFCURVE",
"410 88 OFFCURVE",
"402 118 CURVE",
"392 147 OFFCURVE",
"394 159 OFFCURVE",
"391 194 CURVE",
"503 310 LINE",
"498 219 OFFCURVE",
"497 162 OFFCURVE",
"481 113 CURVE SMOOTH",
"471 86 OFFCURVE",
"458 73 OFFCURVE",
"442 73 CURVE SMOOTH"
);
}
);
width = 901;
}
);
note = Oslash;
unicode = 00D8;
},
{
glyphname = uni022C;
lastChange = "2017-06-20 16:19:20 +0000";
layers = (
{
layerId = "CBDECE4A-293B-4E5C-B714-A3FD26C7130D";
paths = (
{
closed = 1;
nodes = (
"637 967 OFFCURVE",
"640 990 OFFCURVE",
"640 1015 CURVE SMOOTH",
"640 1035 LINE",
"639 1042 OFFCURVE",
"639 1049 OFFCURVE",
"639 1058 CURVE SMOOTH",
"639 1067 LINE",
"638 1101 LINE",
"638 1117 OFFCURVE",
"614 1123 OFFCURVE",
"583 1123 CURVE SMOOTH",
"559 1123 LINE SMOOTH",
"546 1123 OFFCURVE",
"516 1124 OFFCURVE",
"469 1125 CURVE SMOOTH",
"422 1126 OFFCURVE",
"391 1127 OFFCURVE",
"376 1127 CURVE SMOOTH",
"354 1127 LINE",
"244 1127 LINE SMOOTH",
"237 1127 OFFCURVE",
"229 1121 OFFCURVE",
"228 1120 CURVE",
"222 1115 OFFCURVE",
"219 1111 OFFCURVE",
"219 1106 CURVE SMOOTH",
"219 1091 OFFCURVE",
"219 1081 OFFCURVE",
"220 1075 CURVE",
"220 1051 LINE",
"220 1025 LINE",
"220 993 LINE SMOOTH",
"220 988 OFFCURVE",
"224 983 OFFCURVE",
"228 980 CURVE",
"234 975 OFFCURVE",
"248 972 OFFCURVE",
"269 972 CURVE SMOOTH",
"298 972 LINE",
"398 972 LINE",
"408 972 LINE",
"429 972 LINE SMOOTH",
"439 972 OFFCURVE",
"447 972 OFFCURVE",
"454 971 CURVE",
"456 970 OFFCURVE",
"459 970 OFFCURVE",
"463 970 CURVE",
"479 971 LINE",
"499 971 LINE",
"502 970 OFFCURVE",
"504 970 OFFCURVE",
"506 970 CURVE",
"507 969 OFFCURVE",
"508 969 OFFCURVE",
"509 969 CURVE SMOOTH",
"534 969 LINE",
"556 968 LINE",
"567 968 OFFCURVE",
"576 968 OFFCURVE",
"583 967 CURVE",
"616 967 LINE SMOOTH"
);
},
{
closed = 1;
nodes = (
"543 735 OFFCURVE",
"570 745 OFFCURVE",
"594 756 CURVE",
"639 779 OFFCURVE",
"658 820 OFFCURVE",
"658 865 CURVE SMOOTH",
"658 885 OFFCURVE",
"653 904 OFFCURVE",
"643 921 CURVE",
"640 928 OFFCURVE",
"636 931 OFFCURVE",
"631 931 CURVE SMOOTH",
"504 931 LINE SMOOTH",
"495 931 OFFCURVE",
"491 929 OFFCURVE",
"491 925 CURVE",
"500 918 OFFCURVE",
"513 890 OFFCURVE",
"513 878 CURVE SMOOTH",
"513 874 LINE",
"510 865 OFFCURVE",
"506 860 OFFCURVE",
"491 860 CURVE SMOOTH",
"485 860 OFFCURVE",
"480 861 OFFCURVE",
"476 863 CURVE SMOOTH",
"470 866 OFFCURVE",
"463 874 OFFCURVE",
"454 886 CURVE SMOOTH",
"448 894 OFFCURVE",
"444 898 OFFCURVE",
"441 899 CURVE",
"429 910 OFFCURVE",
"420 914 OFFCURVE",
"401 921 CURVE",
"386 928 OFFCURVE",
"369 931 OFFCURVE",
"351 931 CURVE SMOOTH",
"262 931 OFFCURVE",
"223 893 OFFCURVE",
"206 846 CURVE SMOOTH",
"202 834 OFFCURVE",
"200 821 OFFCURVE",
"201 807 CURVE",
"201 793 OFFCURVE",
"201 784 OFFCURVE",
"201 780 CURVE SMOOTH",
"201 775 OFFCURVE",
"204 767 OFFCURVE",
"205 764 CURVE",
"205 763 OFFCURVE",
"206 756 OFFCURVE",
"209 753 CURVE",
"216 745 OFFCURVE",
"219 743 OFFCURVE",
"231 743 CURVE SMOOTH",
"273 743 LINE",
"306 743 LINE SMOOTH",
"309 743 OFFCURVE",
"310 744 OFFCURVE",
"311 745 CURVE",
"314 752 OFFCURVE",
"317 759 OFFCURVE",
"318 766 CURVE",
"318 773 OFFCURVE",
"319 778 OFFCURVE",
"321 781 CURVE SMOOTH",
"323 784 OFFCURVE",
"325 788 OFFCURVE",
"326 791 CURVE",
"329 797 OFFCURVE",
"333 801 OFFCURVE",
"338 801 CURVE SMOOTH",
"357 801 OFFCURVE",
"373 788 OFFCURVE",
"386 780 CURVE",
"392 775 OFFCURVE",
"397 772 OFFCURVE",
"401 769 CURVE SMOOTH",
"436 744 OFFCURVE",
"454 735 OFFCURVE",
"511 735 CURVE SMOOTH"
);
},
{
closed = 1;
nodes = (
"606 -24 OFFCURVE",
"707 10 OFFCURVE",
"768 115 CURVE SMOOTH",
"799 172 OFFCURVE",
"814 252 OFFCURVE",
"814 355 CURVE SMOOTH",
"814 443 OFFCURVE",
"793 514 OFFCURVE",
"751 568 CURVE SMOOTH",
"683 659 OFFCURVE",
"561 695 OFFCURVE",
"448 695 CURVE SMOOTH",
"303 695 OFFCURVE",
"204 667 OFFCURVE",
"140 606 CURVE SMOOTH",
"76 545 OFFCURVE",
"46 450 OFFCURVE",
"46 313 CURVE SMOOTH",
"46 217 OFFCURVE",
"65 142 OFFCURVE",
"104 88 CURVE SMOOTH",
"171 -3 OFFCURVE",
"279 -24 OFFCURVE",
"438 -24 CURVE SMOOTH"
);
},
{
closed = 1;
nodes = (
"417 77 OFFCURVE",
"404 93 OFFCURVE",
"394 127 CURVE SMOOTH",
"383 166 OFFCURVE",
"381 201 OFFCURVE",
"381 230 CURVE",
"378 254 OFFCURVE",
"377 284 OFFCURVE",
"377 320 CURVE SMOOTH",
"377 374 OFFCURVE",
"378 413 OFFCURVE",
"381 439 CURVE",
"381 468 OFFCURVE",
"385 502 OFFCURVE",
"394 539 CURVE",
"404 566 OFFCURVE",
"417 579 OFFCURVE",
"437 579 CURVE SMOOTH",
"447 579 OFFCURVE",
"456 573 OFFCURVE",
"463 563 CURVE SMOOTH",
"493 520 OFFCURVE",
"499 419 OFFCURVE",
"499 363 CURVE SMOOTH",
"499 339 LINE",
"499 301 LINE SMOOTH",
"499 229 OFFCURVE",
"493 130 OFFCURVE",
"463 91 CURVE SMOOTH",
"456 82 OFFCURVE",
"448 77 OFFCURVE",
"437 77 CURVE SMOOTH"
);
}
);
width = 859;
}
);
note = uni022C;
unicode = 022C;
},
{
glyphname = OE;
lastChange = "2017-06-20 16:18:55 +0000";
layers = (
{
layerId = "CBDECE4A-293B-4E5C-B714-A3FD26C7130D";
paths = (
{
closed = 1;
nodes = (
"524 -24 OFFCURVE",
"569 -15 OFFCURVE",
"616 3 CURVE",
"623 1 OFFCURVE",
"630 0 OFFCURVE",
"639 0 CURVE SMOOTH",
"698 0 LINE SMOOTH",
"733 0 OFFCURVE",
"835 1 OFFCURVE",
"905 1 CURVE SMOOTH",
"938 1 OFFCURVE",
"962 2 OFFCURVE",
"978 3 CURVE SMOOTH",
"1006 5 OFFCURVE",
"1029 5 OFFCURVE",
"1048 5 CURVE SMOOTH",
"1060 5 OFFCURVE",
"1068 14 OFFCURVE",
"1068 26 CURVE SMOOTH",
"1068 28 OFFCURVE",
"1068 30 OFFCURVE",
"1067 33 CURVE",
"1066 35 OFFCURVE",
"1066 38 OFFCURVE",
"1065 41 CURVE",
"1062 60 OFFCURVE",
"1047 120 OFFCURVE",
"1036 136 CURVE",
"1034 141 OFFCURVE",
"1032 143 OFFCURVE",
"1029 143 CURVE SMOOTH",
"987 143 OFFCURVE",
"955 142 OFFCURVE",
"933 140 CURVE",
"912 139 OFFCURVE",
"880 138 OFFCURVE",
"808 138 CURVE",
"807 143 OFFCURVE",
"807 149 OFFCURVE",
"807 157 CURVE SMOOTH",
"807 166 OFFCURVE",
"807 172 OFFCURVE",
"808 176 CURVE",
"809 192 OFFCURVE",
"810 204 OFFCURVE",
"810 213 CURVE SMOOTH",
"810 241 OFFCURVE",
"811 249 OFFCURVE",
"826 253 CURVE",
"831 254 OFFCURVE",
"842 254 OFFCURVE",
"861 254 CURVE",
"872 253 OFFCURVE",
"895 253 OFFCURVE",
"928 253 CURVE SMOOTH",
"967 253 OFFCURVE",
"993 255 OFFCURVE",
"1008 258 CURVE",
"1032 260 OFFCURVE",
"1044 267 OFFCURVE",
"1044 278 CURVE SMOOTH",
"1044 281 LINE",
"1040 370 LINE",
"1037 383 OFFCURVE",
"1035 389 OFFCURVE",
"1019 393 CURVE",
"1006 393 LINE",
"975 396 OFFCURVE",
"945 398 OFFCURVE",
"918 398 CURVE SMOOTH",
"829 398 LINE SMOOTH",
"817 398 OFFCURVE",
"813 401 OFFCURVE",
"813 418 CURVE",
"815 443 LINE",
"816 469 OFFCURVE",
"819 489 OFFCURVE",
"824 503 CURVE",
"825 504 OFFCURVE",
"826 507 OFFCURVE",
"828 510 CURVE",
"829 513 OFFCURVE",
"831 515 OFFCURVE",
"833 515 CURVE",
"848 516 OFFCURVE",
"865 517 OFFCURVE",
"884 520 CURVE",
"938 524 LINE",
"979 529 OFFCURVE",
"1013 531 OFFCURVE",
"1040 531 CURVE SMOOTH",
"1045 531 OFFCURVE",
"1049 531 OFFCURVE",
"1051 530 CURVE",
"1057 530 OFFCURVE",
"1061 533 OFFCURVE",
"1063 540 CURVE",
"1063 541 OFFCURVE",
"1063 543 OFFCURVE",
"1064 547 CURVE",
"1064 550 OFFCURVE",
"1064 554 OFFCURVE",
"1063 558 CURVE SMOOTH",
"1055 595 LINE",
"1050 627 OFFCURVE",
"1046 669 OFFCURVE",
"1025 669 CURVE",
"996 672 OFFCURVE",
"955 675 OFFCURVE",
"900 675 CURVE SMOOTH",
"856 675 LINE SMOOTH",
"816 675 OFFCURVE",
"736 674 OFFCURVE",
"676 673 CURVE",
"679 673 OFFCURVE",
"598 668 OFFCURVE",
"594 668 CURVE",
"545 686 OFFCURVE",
"511 695 OFFCURVE",
"453 695 CURVE SMOOTH",
"308 695 OFFCURVE",
"207 667 OFFCURVE",
"144 606 CURVE SMOOTH",
"80 545 OFFCURVE",
"50 450 OFFCURVE",
"50 313 CURVE SMOOTH",
"50 218 OFFCURVE",
"69 143 OFFCURVE",
"108 88 CURVE SMOOTH",
"176 -3 OFFCURVE",
"284 -24 OFFCURVE",
"443 -24 CURVE SMOOTH"
);
},
{
closed = 1;
nodes = (
"417 90 OFFCURVE",
"405 105 OFFCURVE",
"397 137 CURVE SMOOTH",
"386 181 OFFCURVE",
"382 252 OFFCURVE",
"382 321 CURVE SMOOTH",
"382 424 OFFCURVE",
"383 487 OFFCURVE",
"397 530 CURVE SMOOTH",
"405 555 OFFCURVE",
"417 568 OFFCURVE",
"432 568 CURVE SMOOTH",
"440 568 OFFCURVE",
"448 563 OFFCURVE",
"455 553 CURVE",
"477 510 OFFCURVE",
"480 459 OFFCURVE",
"484 362 CURVE",
"484 339 LINE",
"484 303 LINE SMOOTH",
"484 204 OFFCURVE",
"477 143 OFFCURVE",
"455 104 CURVE",
"447 94 OFFCURVE",
"441 90 OFFCURVE",
"432 90 CURVE SMOOTH"
);
}
);
width = 1210;
}
);
note = OE;
unicode = 0152;
},
{
glyphname = P;
lastChange = "2017-06-26 18:07:34 +0000";
layers = (
{
layerId = "CBDECE4A-293B-4E5C-B714-A3FD26C7130D";
paths = (
{
closed = 1;
nodes = (
"172 2 OFFCURVE",
"209 3 OFFCURVE",
"255 3 CURVE",
"266 4 OFFCURVE",
"287 4 OFFCURVE",
"316 4 CURVE SMOOTH",
"356 4 OFFCURVE",
"371 11 OFFCURVE",
"371 55 CURVE SMOOTH",
"371 69 OFFCURVE",
"371 80 OFFCURVE",
"372 89 CURVE",
"372 97 OFFCURVE",
"372 104 OFFCURVE",
"372 110 CURVE SMOOTH",
"372 127 OFFCURVE",
"372 144 OFFCURVE",
"371 159 CURVE",
"508 159 LINE SMOOTH",
"598 159 OFFCURVE",
"666 180 OFFCURVE",
"711 223 CURVE",
"762 268 OFFCURVE",
"788 342 OFFCURVE",
"788 443 CURVE SMOOTH",
"788 503 OFFCURVE",
"772 551 OFFCURVE",
"741 586 CURVE SMOOTH",
"685 651 OFFCURVE",
"596 673 OFFCURVE",
"512 673 CURVE SMOOTH",
"486 673 OFFCURVE",
"453 672 OFFCURVE",
"413 671 CURVE SMOOTH",
"376 670 LINE SMOOTH",
"349 669 OFFCURVE",
"310 669 OFFCURVE",
"260 669 CURVE SMOOTH",
"225 669 OFFCURVE",
"197 669 OFFCURVE",
"176 670 CURVE",
"61 671 LINE SMOOTH",
"49 671 OFFCURVE",
"35 657 OFFCURVE",
"35 645 CURVE SMOOTH",
"35 425 LINE SMOOTH",
"35 352 OFFCURVE",
"36 283 OFFCURVE",
"38 218 CURVE SMOOTH",
"39 173 OFFCURVE",
"40 121 OFFCURVE",
"40 63 CURVE SMOOTH",
"40 44 OFFCURVE",
"42 30 OFFCURVE",
"45 23 CURVE",
"48 8 OFFCURVE",
"56 1 OFFCURVE",
"67 1 CURVE SMOOTH",
"145 1 LINE"
);
},
{
closed = 1;
nodes = (
"384 280 LINE",
"382 281 OFFCURVE",
"381 281 OFFCURVE",
"380 282 CURVE SMOOTH",
"379 283 OFFCURVE",
"379 283 OFFCURVE",
"379 283 CURVE",
"379 344 OFFCURVE",
"381 393 OFFCURVE",
"384 430 CURVE SMOOTH",
"388 478 OFFCURVE",
"380 547 OFFCURVE",
"396 571 CURVE",
"400 579 OFFCURVE",
"424 573 OFFCURVE",
"432 573 CURVE",
"445 573 OFFCURVE",
"452 564 OFFCURVE",
"459 550 CURVE SMOOTH",
"466 536 OFFCURVE",
"474 496 OFFCURVE",
"474 475 CURVE SMOOTH",
"474 464 LINE SMOOTH",
"474 440 OFFCURVE",
"473 418 OFFCURVE",
"472 399 CURVE SMOOTH",
"468 328 OFFCURVE",
"456 279 OFFCURVE",
"426 279 CURVE SMOOTH",
"397 279 LINE"
);
}
);
width = 794;
}
);
note = P;
unicode = 0050;
},
{
glyphname = Thorn;
lastChange = "2017-06-15 13:29:11 +0000";
layers = (
{
layerId = "CBDECE4A-293B-4E5C-B714-A3FD26C7130D";
paths = (
{
closed = 1;
nodes = (
"165 -19 OFFCURVE",
"231 -19 OFFCURVE",
"278 -16 CURVE",
"338 -16 LINE SMOOTH",
"379 -16 OFFCURVE",
"394 -9 OFFCURVE",
"394 36 CURVE SMOOTH",
"394 65 OFFCURVE",
"394 72 OFFCURVE",
"394 139 CURVE",
"530 139 LINE SMOOTH",
"711 139 OFFCURVE",
"811 217 OFFCURVE",
"811 398 CURVE SMOOTH",
"811 450 OFFCURVE",
"795 491 OFFCURVE",
"763 521 CURVE SMOOTH",
"709 571 OFFCURVE",
"625 593 OFFCURVE",
"534 593 CURVE SMOOTH",
"395 593 LINE",
"395 604 LINE",
"394 607 OFFCURVE",
"394 611 OFFCURVE",
"394 616 CURVE SMOOTH",
"394 668 LINE SMOOTH",
"394 715 OFFCURVE",
"378 720 OFFCURVE",
"338 720 CURVE SMOOTH",
"278 720 LINE",
"266 721 OFFCURVE",
"248 721 OFFCURVE",
"225 721 CURVE",
"201 722 OFFCURVE",
"156 723 OFFCURVE",
"89 723 CURVE SMOOTH",
"78 723 OFFCURVE",
"71 715 OFFCURVE",
"68 703 CURVE",
"65 694 OFFCURVE",
"63 681 OFFCURVE",
"63 663 CURVE SMOOTH",
"63 618 LINE SMOOTH",
"63 605 OFFCURVE",
"63 596 OFFCURVE",
"62 589 CURVE",
"61 554 LINE",
"60 512 LINE SMOOTH",
"59 465 OFFCURVE",
"58 429 OFFCURVE",
"58 404 CURVE SMOOTH",
"58 353 LINE",
"59 261 LINE SMOOTH",
"60 185 OFFCURVE",
"62 131 OFFCURVE",
"63 98 CURVE SMOOTH",
"63 43 LINE SMOOTH",
"63 24 OFFCURVE",
"65 10 OFFCURVE",
"68 3 CURVE",
"71 -10 OFFCURVE",
"78 -19 OFFCURVE",
"89 -19 CURVE SMOOTH"
);
},
{
closed = 1;
nodes = (
"433 234 OFFCURVE",
"424 234 OFFCURVE",
"420 235 CURVE",
"413 235 OFFCURVE",
"409 235 OFFCURVE",
"408 236 CURVE",
"406 236 OFFCURVE",
"404 236 OFFCURVE",
"403 237 CURVE SMOOTH",
"402 238 OFFCURVE",
"401 238 OFFCURVE",
"401 238 CURVE",
"402 279 OFFCURVE",
"403 308 OFFCURVE",
"403 325 CURVE SMOOTH",
"404 368 LINE SMOOTH",
"404 389 OFFCURVE",
"407 459 OFFCURVE",
"415 488 CURVE",
"416 489 OFFCURVE",
"417 491 OFFCURVE",
"418 494 CURVE SMOOTH",
"419 497 OFFCURVE",
"421 499 OFFCURVE",
"423 499 CURVE SMOOTH",
"435 499 OFFCURVE",
"445 497 OFFCURVE",
"453 493 CURVE",
"482 477 OFFCURVE",
"493 443 OFFCURVE",
"493 428 CURVE SMOOTH",
"493 419 LINE SMOOTH",
"493 371 OFFCURVE",
"490 311 OFFCURVE",
"479 274 CURVE SMOOTH",
"472 250 OFFCURVE",
"461 234 OFFCURVE",
"446 234 CURVE SMOOTH"
);
}
);
width = 828;
}
);
note = Thorn;
unicode = 00DE;
},
{
glyphname = Q;
lastChange = "2017-06-25 17:25:01 +0000";
layers = (
{
layerId = "CBDECE4A-293B-4E5C-B714-A3FD26C7130D";
paths = (
{
closed = 1;
nodes = (
"483 -195 LINE SMOOTH",
"486 -195 OFFCURVE",
"487 -193 OFFCURVE",
"487 -191 CURVE",
"491 -191 OFFCURVE",
"495 -190 OFFCURVE",
"500 -189 CURVE SMOOTH",
"517 -186 OFFCURVE",
"533 -181 OFFCURVE",
"549 -176 CURVE",
"552 -174 OFFCURVE",
"555 -173 OFFCURVE",
"558 -172 CURVE",
"560 -172 OFFCURVE",
"561 -172 OFFCURVE",
"562 -172 CURVE",
"569 -170 OFFCURVE",
"576 -168 OFFCURVE",
"582 -165 CURVE",
"600 -160 LINE",
"603 -158 OFFCURVE",
"606 -156 OFFCURVE",
"610 -153 CURVE",
"614 -152 OFFCURVE",
"618 -149 OFFCURVE",
"623 -146 CURVE",
"652 -132 LINE",
"675 -116 OFFCURVE",
"685 -108 OFFCURVE",
"685 -96 CURVE SMOOTH",
"685 -78 OFFCURVE",
"663 -48 OFFCURVE",
"619 8 CURVE",
"739 48 OFFCURVE",
"803 148 OFFCURVE",
"803 376 CURVE SMOOTH",
"803 520 OFFCURVE",
"721 630 OFFCURVE",
"597 675 CURVE SMOOTH",
"548 693 OFFCURVE",
"494 699 OFFCURVE",
"437 699 CURVE SMOOTH",
"292 699 OFFCURVE",
"192 673 OFFCURVE",
"129 615 CURVE SMOOTH",
"65 556 OFFCURVE",
"35 436 OFFCURVE",
"35 336 CURVE SMOOTH",
"35 225 OFFCURVE",
"49 161 OFFCURVE",
"78 115 CURVE",
"126 30 OFFCURVE",
"220 -6 OFFCURVE",
"339 -12 CURVE",
"346 -23 OFFCURVE",
"351 -32 OFFCURVE",
"354 -38 CURVE",
"433 -162 LINE",
"437 -165 LINE",
"438 -166 OFFCURVE",
"439 -167 OFFCURVE",
"442 -167 CURVE",
"445 -172 LINE",
"458 -185 OFFCURVE",
"466 -191 OFFCURVE",
"470 -192 CURVE",
"474 -194 OFFCURVE",
"476 -195 OFFCURVE",
"477 -195 CURVE SMOOTH",
"479 -195 LINE"
);
},
{
closed = 1;
nodes = (
"411 102 OFFCURVE",
"394 116 OFFCURVE",
"382 147 CURVE SMOOTH",
"370 177 OFFCURVE",
"369 209 OFFCURVE",
"366 240 CURVE",
"363 262 OFFCURVE",
"362 289 OFFCURVE",
"362 322 CURVE SMOOTH",
"362 371 OFFCURVE",
"363 406 OFFCURVE",
"366 430 CURVE",
"369 462 OFFCURVE",
"372 493 OFFCURVE",
"382 521 CURVE",
"394 545 OFFCURVE",
"412 557 OFFCURVE",
"432 557 CURVE SMOOTH",
"443 557 OFFCURVE",
"453 552 OFFCURVE",
"463 542 CURVE",
"498 496 OFFCURVE",
"497 454 OFFCURVE",
"504 361 CURVE",
"504 339 LINE",
"504 305 LINE SMOOTH",
"504 211 OFFCURVE",
"495 156 OFFCURVE",
"463 114 CURVE",
"453 106 OFFCURVE",
"443 102 OFFCURVE",
"432 102 CURVE SMOOTH"
);
}
);
width = 838;
}
);
note = Q;
unicode = 0051;
},
{
glyphname = R;
lastChange = "2017-07-05 15:26:22 +0000";
layers = (
{
layerId = "CBDECE4A-293B-4E5C-B714-A3FD26C7130D";
paths = (
{
closed = 1;
nodes = (
"599 -44 LINE SMOOTH",
"601 -44 OFFCURVE",
"602 -42 OFFCURVE",
"603 -39 CURVE",
"608 -39 LINE SMOOTH",
"611 -39 OFFCURVE",
"617 -38 OFFCURVE",
"621 -35 CURVE",
"629 -34 OFFCURVE",
"635 -32 OFFCURVE",
"638 -30 CURVE",
"656 -25 OFFCURVE",
"667 -21 OFFCURVE",
"671 -19 CURVE SMOOTH",
"673 -18 OFFCURVE",
"675 -18 OFFCURVE",
"676 -17 CURVE SMOOTH",
"677 -16 OFFCURVE",
"677 -16 OFFCURVE",
"678 -16 CURVE",
"693 -11 OFFCURVE",
"708 -6 OFFCURVE",
"721 3 CURVE SMOOTH",
"756 27 LINE",
"761 32 OFFCURVE",
"769 37 OFFCURVE",
"779 42 CURVE",
"790 47 OFFCURVE",
"799 53 OFFCURVE",
"807 59 CURVE SMOOTH",
"828 75 OFFCURVE",
"839 84 OFFCURVE",
"839 97 CURVE SMOOTH",
"839 102 OFFCURVE",
"837 108 OFFCURVE",
"832 117 CURVE",
"826 130 OFFCURVE",
"810 149 OFFCURVE",
"791 177 CURVE SMOOTH",
"759 225 LINE",
"756 228 OFFCURVE",
"754 232 OFFCURVE",
"751 235 CURVE SMOOTH",
"748 238 OFFCURVE",
"746 240 OFFCURVE",
"744 243 CURVE",
"730 259 LINE SMOOTH",
"723 267 OFFCURVE",
"719 265 OFFCURVE",
"716 273 CURVE SMOOTH",
"712 283 OFFCURVE",
"704 294 OFFCURVE",
"700 296 CURVE",
"721 306 OFFCURVE",
"740 319 OFFCURVE",
"757 336 CURVE SMOOTH",
"792 371 OFFCURVE",
"814 417 OFFCURVE",
"814 478 CURVE SMOOTH",
"814 531 OFFCURVE",
"795 580 OFFCURVE",
"755 613 CURVE",
"711 652 OFFCURVE",
"646 674 OFFCURVE",
"560 678 CURVE",
"539 678 OFFCURVE",
"472 679 OFFCURVE",
"419 680 CURVE SMOOTH",
"380 681 LINE SMOOTH",
"345 682 OFFCURVE",
"319 683 OFFCURVE",
"302 683 CURVE SMOOTH",
"224 685 OFFCURVE",
"147 686 OFFCURVE",
"72 686 CURVE SMOOTH",
"58 686 OFFCURVE",
"48 674 OFFCURVE",
"42 650 CURVE",
"37 633 OFFCURVE",
"35 605 OFFCURVE",
"35 568 CURVE SMOOTH",
"35 542 OFFCURVE",
"36 521 OFFCURVE",
"39 504 CURVE",
"40 477 OFFCURVE",
"41 457 OFFCURVE",
"41 443 CURVE",
"40 431 LINE",
"39 413 LINE",
"39 404 OFFCURVE",
"38 398 OFFCURVE",
"37 394 CURVE",
"37 390 OFFCURVE",
"37 387 OFFCURVE",
"37 386 CURVE",
"36 385 OFFCURVE",
"36 384 OFFCURVE",
"36 383 CURVE SMOOTH",
"36 359 OFFCURVE",
"37 333 OFFCURVE",
"39 306 CURVE SMOOTH",
"41 284 LINE SMOOTH",
"42 271 OFFCURVE",
"44 252 OFFCURVE",
"44 228 CURVE",
"47 191 LINE SMOOTH",
"50 148 OFFCURVE",
"53 118 OFFCURVE",
"54 101 CURVE",
"53 110 OFFCURVE",
"55 94 OFFCURVE",
"58 53 CURVE SMOOTH",
"59 42 OFFCURVE",
"60 35 OFFCURVE",
"60 31 CURVE SMOOTH",
"60 28 OFFCURVE",
"60 25 OFFCURVE",
"61 23 CURVE",
"61 21 OFFCURVE",
"61 20 OFFCURVE",
"61 19 CURVE",
"64 11 LINE",
"100 -1 LINE",
"109 -1 LINE",
"127 -1 LINE",
"149 -1 LINE",
"153 -2 OFFCURVE",
"158 -3 OFFCURVE",
"165 -3 CURVE SMOOTH",
"213 -3 OFFCURVE",
"327 4 OFFCURVE",
"374 8 CURVE",
"374 8 OFFCURVE",
"375 8 OFFCURVE",
"376 8 CURVE",
"377 7 OFFCURVE",
"378 7 OFFCURVE",
"379 6 CURVE",
"385 6 LINE SMOOTH",
"389 6 OFFCURVE",
"392 10 OFFCURVE",
"394 19 CURVE",
"397 37 OFFCURVE",
"399 61 OFFCURVE",
"399 90 CURVE SMOOTH",
"399 121 OFFCURVE",
"400 145 OFFCURVE",
"402 163 CURVE SMOOTH",
"403 170 OFFCURVE",
"405 174 OFFCURVE",
"409 174 CURVE SMOOTH",
"412 174 OFFCURVE",
"414 172 OFFCURVE",
"417 168 CURVE",
"420 163 OFFCURVE",
"424 158 OFFCURVE",
"429 153 CURVE",
"436 143 OFFCURVE",
"442 134 OFFCURVE",
"446 125 CURVE",
"548 -11 LINE",
"548 -11 OFFCURVE",
"549 -12 OFFCURVE",
"552 -15 CURVE",
"554 -16 LINE",
"555 -16 OFFCURVE",
"556 -17 OFFCURVE",
"557 -18 CURVE",
"558 -18 OFFCURVE",
"559 -20 OFFCURVE",
"561 -23 CURVE",
"568 -30 OFFCURVE",
"576 -37 OFFCURVE",
"586 -43 CURVE",
"588 -44 OFFCURVE",
"590 -44 OFFCURVE",
"593 -44 CURVE SMOOTH",
"596 -44 LINE"
);
},
{
closed = 1;
nodes = (
"390 320 LINE",
"389 320 OFFCURVE",
"387 322 OFFCURVE",
"387 323 CURVE SMOOTH",
"387 348 OFFCURVE",
"388 380 OFFCURVE",
"389 419 CURVE SMOOTH",
"390 449 LINE SMOOTH",
"390 467 OFFCURVE",
"391 483 OFFCURVE",
"394 496 CURVE",
"395 528 OFFCURVE",
"398 551 OFFCURVE",
"404 566 CURVE",
"406 574 OFFCURVE",
"409 578 OFFCURVE",
"412 578 CURVE SMOOTH",
"424 578 OFFCURVE",
"434 575 OFFCURVE",
"441 569 CURVE",
"474 550 OFFCURVE",
"472 506 OFFCURVE",
"472 475 CURVE SMOOTH",
"472 464 LINE SMOOTH",
"472 445 OFFCURVE",
"471 428 OFFCURVE",
"470 414 CURVE SMOOTH",
"467 366 OFFCURVE",
"453 319 OFFCURVE",
"412 319 CURVE SMOOTH",
"397 319 LINE"
);
}
);
width = 844;
}
);
note = R;
unicode = 0052;
},
{
glyphname = S;
lastChange = "2017-07-05 15:27:19 +0000";
layers = (
{
layerId = "CBDECE4A-293B-4E5C-B714-A3FD26C7130D";
paths = (
{
closed = 1;
nodes = (
"353 -66 OFFCURVE",
"404 -58 OFFCURVE",
"447 -42 CURVE",
"496 -26 OFFCURVE",
"537 -1 OFFCURVE",
"570 34 CURVE",
"603 73 OFFCURVE",
"622 118 OFFCURVE",
"627 170 CURVE",
"630 222 OFFCURVE",
"617 282 OFFCURVE",
"578 322 CURVE SMOOTH",
"542 359 OFFCURVE",
"499 384 OFFCURVE",
"450 399 CURVE",
"447 400 OFFCURVE",
"441 403 OFFCURVE",
"431 407 CURVE",
"421 410 OFFCURVE",
"411 416 OFFCURVE",
"401 421 CURVE",
"380 435 OFFCURVE",
"370 451 OFFCURVE",
"370 468 CURVE SMOOTH",
"370 498 OFFCURVE",
"476 487 OFFCURVE",
"495 487 CURVE SMOOTH",
"499 487 LINE",
"509 487 LINE",
"602 474 LINE",
"619 487 OFFCURVE",
"623 508 OFFCURVE",
"623 543 CURVE SMOOTH",
"623 563 OFFCURVE",
"622 581 OFFCURVE",
"620 599 CURVE",
"618 611 OFFCURVE",
"617 622 OFFCURVE",
"617 633 CURVE",
"615 655 LINE",
"614 655 LINE",
"613 655 LINE SMOOTH",
"610 655 OFFCURVE",
"608 657 OFFCURVE",
"605 662 CURVE",
"604 663 OFFCURVE",
"602 665 OFFCURVE",
"601 668 CURVE",
"599 670 OFFCURVE",
"598 671 OFFCURVE",
"597 671 CURVE SMOOTH",
"586 671 OFFCURVE",
"570 672 OFFCURVE",
"547 677 CURVE SMOOTH",
"517 683 LINE",
"506 684 OFFCURVE",
"498 686 OFFCURVE",
"492 687 CURVE",
"433 695 OFFCURVE",
"395 699 OFFCURVE",
"362 699 CURVE SMOOTH",
"305 699 OFFCURVE",
"253 693 OFFCURVE",
"206 681 CURVE SMOOTH",
"96 653 OFFCURVE",
"21 581 OFFCURVE",
"21 455 CURVE SMOOTH",
"21 349 OFFCURVE",
"118 255 OFFCURVE",
"215 241 CURVE SMOOTH",
"282 231 OFFCURVE",
"306 181 OFFCURVE",
"250 163 CURVE SMOOTH",
"234 158 OFFCURVE",
"218 156 OFFCURVE",
"203 156 CURVE",
"187 157 LINE",
"153 157 LINE SMOOTH",
"127 157 OFFCURVE",
"84 172 OFFCURVE",
"33 205 CURVE",
"26 201 OFFCURVE",
"21 194 OFFCURVE",
"20 186 CURVE",
"20 183 LINE",
"32 89 OFFCURVE",
"37 50 OFFCURVE",
"53 -1 CURVE",
"114 -42 OFFCURVE",
"198 -66 OFFCURVE",
"293 -66 CURVE SMOOTH"
);
}
);
width = 657;
}
);
note = S;
unicode = 0053;
},
{
glyphname = Scedilla;
lastChange = "2017-06-11 23:28:21 +0000";
layers = (
{
layerId = "CBDECE4A-293B-4E5C-B714-A3FD26C7130D";
paths = (
{
closed = 1;
nodes = (
"585 371 OFFCURVE",
"542 395 OFFCURVE",
"493 409 CURVE",
"490 410 OFFCURVE",
"484 413 OFFCURVE",
"474 417 CURVE",
"464 420 OFFCURVE",
"454 425 OFFCURVE",
"444 430 CURVE",
"423 444 OFFCURVE",
"413 459 OFFCURVE",
"413 475 CURVE SMOOTH",
"413 476 OFFCURVE",
"417 478 OFFCURVE",
"425 479 CURVE",
"458 486 LINE",
"487 491 OFFCURVE",
"513 493 OFFCURVE",
"536 493 CURVE SMOOTH",
"550 493 LINE",
"560 493 LINE",
"653 481 LINE",
"670 493 OFFCURVE",
"674 513 OFFCURVE",
"674 546 CURVE SMOOTH",
"674 565 OFFCURVE",
"673 583 OFFCURVE",
"671 600 CURVE",
"669 611 OFFCURVE",
"668 622 OFFCURVE",
"668 632 CURVE",
"666 653 LINE",
"665 653 LINE",
"664 653 LINE SMOOTH",
"661 653 OFFCURVE",
"659 655 OFFCURVE",
"656 660 CURVE",
"655 661 OFFCURVE",
"653 663 OFFCURVE",
"652 665 CURVE",
"650 667 OFFCURVE",
"649 668 OFFCURVE",
"648 668 CURVE SMOOTH",
"637 668 OFFCURVE",
"621 670 OFFCURVE",
"598 674 CURVE SMOOTH",
"568 680 LINE",
"557 681 OFFCURVE",
"549 683 OFFCURVE",
"543 684 CURVE",
"484 691 OFFCURVE",
"438 695 OFFCURVE",
"405 695 CURVE SMOOTH",
"348 695 OFFCURVE",
"296 689 OFFCURVE",
"249 678 CURVE SMOOTH",
"140 650 OFFCURVE",
"64 583 OFFCURVE",
"64 463 CURVE SMOOTH",
"64 414 OFFCURVE",
"80 350 OFFCURVE",
"148 301 CURVE",
"181 279 OFFCURVE",
"217 258 OFFCURVE",
"258 239 CURVE SMOOTH",
"311 213 LINE",
"308 204 OFFCURVE",
"302 197 OFFCURVE",
"293 194 CURVE SMOOTH",
"277 189 OFFCURVE",
"261 187 OFFCURVE",
"246 187 CURVE",
"230 188 LINE",
"206 188 LINE SMOOTH",
"150 188 OFFCURVE",
"107 203 OFFCURVE",
"56 234 CURVE",
"49 230 OFFCURVE",
"44 224 OFFCURVE",
"43 216 CURVE",
"43 213 LINE",
"55 124 OFFCURVE",
"60 86 OFFCURVE",
"76 38 CURVE",
"107 19 OFFCURVE",
"146 3 OFFCURVE",
"193 -8 CURVE SMOOTH",
"226 -15 OFFCURVE",
"255 -19 OFFCURVE",
"280 -21 CURVE",
"271 -78 LINE",
"269 -118 LINE",
"282 -112 OFFCURVE",
"296 -109 OFFCURVE",
"311 -109 CURVE SMOOTH",
"350 -109 OFFCURVE",
"374 -128 OFFCURVE",
"374 -163 CURVE SMOOTH",
"374 -196 OFFCURVE",
"354 -229 OFFCURVE",
"309 -229 CURVE SMOOTH",
"284 -229 OFFCURVE",
"261 -224 OFFCURVE",
"240 -215 CURVE",
"239 -216 OFFCURVE",
"238 -219 OFFCURVE",
"236 -224 CURVE SMOOTH",
"234 -229 OFFCURVE",
"232 -236 OFFCURVE",
"229 -243 CURVE",
"219 -298 LINE",
"225 -305 OFFCURVE",
"234 -311 OFFCURVE",
"245 -315 CURVE SMOOTH",
"268 -324 OFFCURVE",
"289 -328 OFFCURVE",
"309 -328 CURVE SMOOTH",
"326 -328 LINE SMOOTH",
"495 -328 OFFCURVE",
"549 -261 OFFCURVE",
"549 -174 CURVE SMOOTH",
"549 -115 OFFCURVE",
"497 -65 OFFCURVE",
"384 -48 CURVE",
"389 -22 LINE",
"462 -15 OFFCURVE",
"548 6 OFFCURVE",
"613 71 CURVE",
"646 108 OFFCURVE",
"665 151 OFFCURVE",
"670 201 CURVE",
"673 212 OFFCURVE",
"674 223 OFFCURVE",
"674 233 CURVE SMOOTH",
"674 266 OFFCURVE",
"654 304 OFFCURVE",
"621 336 CURVE SMOOTH"
);
}
);
width = 721;
}
);
note = Scedilla;
unicode = 015E;
},
{
glyphname = uni1E9E;
lastChange = "2017-06-11 23:28:21 +0000";
layers = (
{
layerId = "CBDECE4A-293B-4E5C-B714-A3FD26C7130D";
paths = (
{
closed = 1;
nodes = (
"449 -13 LINE SMOOTH",
"547 -13 OFFCURVE",
"628 -4 OFFCURVE",
"693 13 CURVE SMOOTH",
"804 41 OFFCURVE",
"846 95 OFFCURVE",
"846 150 CURVE SMOOTH",
"846 161 OFFCURVE",
"845 167 OFFCURVE",
"844 171 CURVE",
"837 238 OFFCURVE",
"825 281 OFFCURVE",
"798 313 CURVE SMOOTH",
"771 346 OFFCURVE",
"730 366 OFFCURVE",
"666 378 CURVE",
"663 383 LINE",
"667 387 OFFCURVE",
"672 390 OFFCURVE",
"678 391 CURVE",
"680 392 OFFCURVE",
"683 393 OFFCURVE",
"686 394 CURVE SMOOTH",
"689 395 OFFCURVE",
"693 397 OFFCURVE",
"698 398 CURVE",
"738 423 OFFCURVE",
"756 458 OFFCURVE",
"756 506 CURVE SMOOTH",
"756 553 OFFCURVE",
"739 592 OFFCURVE",
"704 621 CURVE SMOOTH",
"647 668 OFFCURVE",
"581 676 OFFCURVE",
"496 688 CURVE SMOOTH",
"458 694 LINE",
"435 694 LINE SMOOTH",
"429 694 OFFCURVE",
"425 694 OFFCURVE",
"424 695 CURVE",
"418 695 LINE SMOOTH",
"415 695 OFFCURVE",
"413 695 OFFCURVE",
"411 696 CURVE",
"400 696 LINE",
"378 696 LINE SMOOTH",
"302 696 OFFCURVE",
"259 694 OFFCURVE",
"218 685 CURVE SMOOTH",
"166 673 OFFCURVE",
"127 648 OFFCURVE",
"100 604 CURVE SMOOTH",
"69 557 OFFCURVE",
"54 483 OFFCURVE",
"54 383 CURVE SMOOTH",
"54 364 OFFCURVE",
"55 335 OFFCURVE",
"58 296 CURVE SMOOTH",
"59 283 OFFCURVE",
"63 240 OFFCURVE",
"63 208 CURVE SMOOTH",
"63 190 LINE",
"63 158 LINE",
"60 142 OFFCURVE",
"60 113 OFFCURVE",
"60 80 CURVE SMOOTH",
"60 46 LINE",
"59 39 OFFCURVE",
"59 32 OFFCURVE",
"59 25 CURVE SMOOTH",
"59 20 OFFCURVE",
"63 16 OFFCURVE",
"70 13 CURVE",
"79 10 OFFCURVE",
"91 8 OFFCURVE",
"108 8 CURVE",
"126 6 OFFCURVE",
"150 5 OFFCURVE",
"180 5 CURVE SMOOTH",
"290 5 LINE",
"311 5 LINE",
"328 6 LINE",
"331 7 OFFCURVE",
"337 8 OFFCURVE",
"345 9 CURVE SMOOTH",
"360 11 OFFCURVE",
"370 9 OFFCURVE",
"383 25 CURVE",
"390 46 LINE",
"390 72 OFFCURVE",
"391 96 OFFCURVE",
"393 118 CURVE",
"394 190 LINE",
"394 241 LINE",
"393 255 LINE",
"393 278 LINE",
"391 295 OFFCURVE",
"390 308 OFFCURVE",
"390 316 CURVE",
"393 375 LINE",
"393 383 LINE",
"393 398 LINE",
"393 418 LINE",
"392 421 OFFCURVE",
"391 427 OFFCURVE",
"391 436 CURVE SMOOTH",
"391 451 LINE",
"391 458 LINE SMOOTH",
"391 475 OFFCURVE",
"391 496 OFFCURVE",
"398 508 CURVE",
"403 521 OFFCURVE",
"415 528 OFFCURVE",
"434 528 CURVE SMOOTH",
"459 528 OFFCURVE",
"479 526 OFFCURVE",
"494 523 CURVE",
"522 520 OFFCURVE",
"536 512 OFFCURVE",
"536 500 CURVE SMOOTH",
"536 491 OFFCURVE",
"535 483 OFFCURVE",
"533 478 CURVE",
"526 467 OFFCURVE",
"518 460 OFFCURVE",
"508 458 CURVE",
"495 453 LINE",
"494 453 OFFCURVE",
"492 452 OFFCURVE",
"490 451 CURVE",
"479 446 LINE",
"476 443 OFFCURVE",
"473 441 OFFCURVE",
"468 439 CURVE",
"465 438 OFFCURVE",
"461 436 OFFCURVE",
"456 433 CURVE",
"455 313 LINE",
"496 310 OFFCURVE",
"526 303 OFFCURVE",
"563 280 CURVE",
"574 278 OFFCURVE",
"579 273 OFFCURVE",
"579 266 CURVE SMOOTH",
"579 251 OFFCURVE",
"570 238 OFFCURVE",
"554 234 CURVE",
"536 231 OFFCURVE",
"518 229 OFFCURVE",
"500 228 CURVE",
"480 225 LINE",
"446 219 LINE",
"446 -13 LINE"
);
}
);
width = 885;
}
);
note = uni1E9E;
unicode = 1E9E;
},
{
glyphname = uni018F;
lastChange = "2017-06-11 23:28:21 +0000";
layers = (
{
layerId = "CBDECE4A-293B-4E5C-B714-A3FD26C7130D";
paths = (
{
closed = 1;
nodes = (
"573 -14 LINE SMOOTH",
"618 -9 OFFCURVE",
"660 10 OFFCURVE",
"697 42 CURVE SMOOTH",
"771 105 OFFCURVE",
"814 205 OFFCURVE",
"814 305 CURVE",
"813 388 LINE",
"813 437 OFFCURVE",
"801 483 OFFCURVE",
"778 525 CURVE SMOOTH",
"730 609 OFFCURVE",
"644 665 OFFCURVE",
"545 676 CURVE SMOOTH",
"454 686 LINE",
"321 688 LINE SMOOTH",
"260 688 OFFCURVE",
"150 674 OFFCURVE",
"95 661 CURVE",
"78 638 LINE",
"78 493 LINE",
"94 475 LINE",
"120 480 LINE SMOOTH",
"169 491 OFFCURVE",
"208 497 OFFCURVE",
"236 498 CURVE SMOOTH",
"308 503 LINE",
"329 503 LINE",
"343 500 OFFCURVE",
"352 499 OFFCURVE",
"357 498 CURVE",
"360 497 OFFCURVE",
"367 496 OFFCURVE",
"380 494 CURVE",
"392 491 OFFCURVE",
"403 488 OFFCURVE",
"413 483 CURVE",
"448 470 OFFCURVE",
"463 453 OFFCURVE",
"468 426 CURVE",
"473 386 LINE",
"474 355 LINE",
"433 353 LINE",
"311 351 LINE",
"65 353 LINE",
"46 333 LINE",
"46 235 LINE SMOOTH",
"46 188 OFFCURVE",
"59 145 OFFCURVE",
"85 107 CURVE SMOOTH",
"136 30 OFFCURVE",
"236 -18 OFFCURVE",
"368 -21 CURVE SMOOTH",
"494 -24 LINE"
);
},
{
closed = 1;
nodes = (
"415 73 OFFCURVE",
"403 90 OFFCURVE",
"396 125 CURVE SMOOTH",
"389 162 OFFCURVE",
"385 198 OFFCURVE",
"384 234 CURVE",
"478 241 LINE",
"478 225 OFFCURVE",
"476 208 OFFCURVE",
"473 189 CURVE SMOOTH",
"467 154 LINE SMOOTH",
"465 141 OFFCURVE",
"463 128 OFFCURVE",
"461 117 CURVE SMOOTH",
"456 93 OFFCURVE",
"446 73 OFFCURVE",
"430 73 CURVE SMOOTH"
);
}
);
width = 859;
}
);
note = uni018F;
unicode = 018F;
},
{
glyphname = T;
lastChange = "2017-06-26 18:08:38 +0000";
layers = (
{
layerId = "CBDECE4A-293B-4E5C-B714-A3FD26C7130D";
paths = (
{
closed = 1;
nodes = (
"247 -1 OFFCURVE",
"271 -1 OFFCURVE",
"284 0 CURVE",
"389 1 LINE",
"400 2 OFFCURVE",
"418 3 OFFCURVE",
"444 3 CURVE",
"469 4 LINE",
"472 5 OFFCURVE",
"478 7 OFFCURVE",
"487 10 CURVE",
"496 16 OFFCURVE",
"501 30 OFFCURVE",
"501 53 CURVE SMOOTH",
"501 148 LINE",
"502 161 OFFCURVE",
"504 181 OFFCURVE",
"505 209 CURVE SMOOTH",
"507 239 LINE SMOOTH",
"510 304 OFFCURVE",
"511 347 OFFCURVE",
"511 366 CURVE",
"512 371 OFFCURVE",
"512 379 OFFCURVE",
"512 389 CURVE SMOOTH",
"512 423 LINE",
"512 443 LINE SMOOTH",
"512 443 OFFCURVE",
"512 443 OFFCURVE",
"513 443 CURVE SMOOTH",
"514 443 OFFCURVE",
"514 443 OFFCURVE",
"514 443 CURVE",
"515 443 OFFCURVE",
"518 443 OFFCURVE",
"524 443 CURVE SMOOTH",
"564 443 LINE",
"575 443 OFFCURVE",
"582 443 OFFCURVE",
"619 443 CURVE",
"651 443 LINE SMOOTH",
"664 443 OFFCURVE",
"676 443 OFFCURVE",
"676 463 CURVE SMOOTH",
"676 628 LINE SMOOTH",
"676 634 OFFCURVE",
"676 639 OFFCURVE",
"675 642 CURVE SMOOTH",
"673 648 OFFCURVE",
"665 652 OFFCURVE",
"653 653 CURVE",
"647 654 OFFCURVE",
"642 654 OFFCURVE",
"639 655 CURVE",
"631 656 OFFCURVE",
"614 656 OFFCURVE",
"588 656 CURVE SMOOTH",
"231 656 LINE",
"194 657 LINE",
"185 658 OFFCURVE",
"173 658 OFFCURVE",
"156 658 CURVE SMOOTH",
"51 658 LINE SMOOTH",
"38 658 OFFCURVE",
"28 657 OFFCURVE",
"21 655 CURVE SMOOTH",
"10 652 OFFCURVE",
"1 646 OFFCURVE",
"1 638 CURVE SMOOTH",
"1 629 LINE",
"1 614 LINE",
"0 610 OFFCURVE",
"0 605 OFFCURVE",
"0 598 CURVE SMOOTH",
"0 584 LINE SMOOTH",
"0 547 OFFCURVE",
"2 518 OFFCURVE",
"5 498 CURVE SMOOTH",
"10 463 OFFCURVE",
"20 443 OFFCURVE",
"37 443 CURVE SMOOTH",
"177 443 LINE",
"180 443 LINE",
"180 390 OFFCURVE",
"180 354 OFFCURVE",
"179 331 CURVE SMOOTH",
"177 258 OFFCURVE",
"176 194 OFFCURVE",
"176 138 CURVE SMOOTH",
"176 80 OFFCURVE",
"181 40 OFFCURVE",
"191 18 CURVE",
"196 5 OFFCURVE",
"203 -1 OFFCURVE",
"212 -1 CURVE SMOOTH"
);
}
);
width = 676;
}
);
note = T;
unicode = 0054;
},
{
glyphname = Tbar;
lastChange = "2017-06-11 23:28:21 +0000";
layers = (
{
layerId = "CBDECE4A-293B-4E5C-B714-A3FD26C7130D";
paths = (
{
closed = 1;
nodes = (
"256 -1 OFFCURVE",
"280 -1 OFFCURVE",
"293 0 CURVE",
"398 1 LINE",
"409 2 OFFCURVE",
"427 3 OFFCURVE",
"453 3 CURVE",
"478 4 LINE",
"481 5 OFFCURVE",
"487 7 OFFCURVE",
"496 10 CURVE",
"505 16 OFFCURVE",
"510 30 OFFCURVE",
"510 53 CURVE SMOOTH",
"510 148 LINE",
"513 189 LINE",
"523 188 OFFCURVE",
"545 188 OFFCURVE",
"579 188 CURVE SMOOTH",
"603 188 OFFCURVE",
"608 203 OFFCURVE",
"608 230 CURVE SMOOTH",
"608 248 LINE",
"608 259 LINE",
"608 268 LINE",
"607 269 OFFCURVE",
"606 272 OFFCURVE",
"606 275 CURVE",
"605 305 LINE",
"605 322 OFFCURVE",
"579 324 OFFCURVE",
"539 324 CURVE SMOOTH",
"519 324 LINE",
"521 389 LINE",
"521 423 LINE",
"521 438 LINE SMOOTH",
"521 439 OFFCURVE",
"521 441 OFFCURVE",
"522 442 CURVE SMOOTH",
"523 443 OFFCURVE",
"523 443 OFFCURVE",
"523 444 CURVE",
"524 447 OFFCURVE",
"527 448 OFFCURVE",
"533 448 CURVE SMOOTH",
"563 448 LINE",
"571 447 OFFCURVE",
"583 446 OFFCURVE",
"598 446 CURVE SMOOTH",
"663 446 LINE SMOOTH",
"676 446 OFFCURVE",
"688 448 OFFCURVE",
"688 463 CURVE SMOOTH",
"688 628 LINE SMOOTH",
"688 634 OFFCURVE",
"688 639 OFFCURVE",
"687 642 CURVE SMOOTH",
"685 648 OFFCURVE",
"677 652 OFFCURVE",
"665 653 CURVE",
"659 654 OFFCURVE",
"654 654 OFFCURVE",
"651 655 CURVE",
"643 656 OFFCURVE",
"626 656 OFFCURVE",
"600 656 CURVE SMOOTH",
"240 656 LINE",
"203 657 LINE",
"194 658 OFFCURVE",
"182 658 OFFCURVE",
"165 658 CURVE SMOOTH",
"89 658 LINE SMOOTH",
"76 658 OFFCURVE",
"66 657 OFFCURVE",
"59 655 CURVE SMOOTH",
"48 652 OFFCURVE",
"39 646 OFFCURVE",
"39 638 CURVE SMOOTH",
"39 629 LINE",
"39 614 LINE",
"38 610 OFFCURVE",
"38 605 OFFCURVE",
"38 598 CURVE SMOOTH",
"38 584 LINE SMOOTH",
"38 547 OFFCURVE",
"40 518 OFFCURVE",
"43 498 CURVE SMOOTH",
"48 463 OFFCURVE",
"58 443 OFFCURVE",
"75 443 CURVE SMOOTH",
"186 443 LINE",
"189 439 LINE",
"189 390 OFFCURVE",
"189 354 OFFCURVE",
"188 330 CURVE",
"188 328 LINE",
"123 328 LINE SMOOTH",
"120 328 OFFCURVE",
"113 326 OFFCURVE",
"103 323 CURVE",
"102 322 OFFCURVE",
"93 314 OFFCURVE",
"93 310 CURVE SMOOTH",
"93 297 OFFCURVE",
"93 288 OFFCURVE",
"94 283 CURVE",
"94 261 LINE",
"94 238 LINE",
"94 211 LINE SMOOTH",
"94 206 OFFCURVE",
"97 201 OFFCURVE",
"103 198 CURVE SMOOTH",
"113 193 OFFCURVE",
"130 191 OFFCURVE",
"154 191 CURVE SMOOTH",
"185 191 LINE",
"185 138 LINE SMOOTH",
"185 80 OFFCURVE",
"190 40 OFFCURVE",
"200 18 CURVE",
"205 5 OFFCURVE",
"212 -1 OFFCURVE",
"221 -1 CURVE SMOOTH"
);
}
);
width = 723;
}
);
note = Tbar;
unicode = 0166;
},
{
glyphname = uni0162;
lastChange = "2017-06-11 23:28:21 +0000";
layers = (
{
layerId = "CBDECE4A-293B-4E5C-B714-A3FD26C7130D";
paths = (
{
closed = 1;
nodes = (
"675 651 OFFCURVE",
"671 652 OFFCURVE",
"665 653 CURVE SMOOTH",
"659 654 OFFCURVE",
"654 654 OFFCURVE",
"651 655 CURVE",
"643 656 OFFCURVE",
"626 656 OFFCURVE",
"600 656 CURVE SMOOTH",
"240 656 LINE",
"203 657 LINE",
"194 658 OFFCURVE",
"182 658 OFFCURVE",
"165 658 CURVE SMOOTH",
"89 658 LINE SMOOTH",
"76 658 OFFCURVE",
"66 657 OFFCURVE",
"59 655 CURVE SMOOTH",
"48 652 OFFCURVE",
"39 646 OFFCURVE",
"39 638 CURVE SMOOTH",
"39 629 LINE",
"39 614 LINE",
"38 610 OFFCURVE",
"38 605 OFFCURVE",
"38 598 CURVE SMOOTH",
"38 584 LINE SMOOTH",
"38 547 OFFCURVE",
"40 518 OFFCURVE",
"43 498 CURVE SMOOTH",
"48 463 OFFCURVE",
"58 443 OFFCURVE",
"75 443 CURVE SMOOTH",
"186 443 LINE",
"189 439 LINE",
"189 390 OFFCURVE",
"189 354 OFFCURVE",
"188 331 CURVE SMOOTH",
"186 258 OFFCURVE",
"185 194 OFFCURVE",
"185 138 CURVE SMOOTH",
"185 80 OFFCURVE",
"190 40 OFFCURVE",
"200 18 CURVE",
"205 5 OFFCURVE",
"212 -1 OFFCURVE",
"221 -1 CURVE SMOOTH",
"256 -1 OFFCURVE",
"280 -1 OFFCURVE",
"293 0 CURVE",
"304 0 LINE",
"291 -78 LINE",
"289 -118 LINE",
"302 -112 OFFCURVE",
"316 -109 OFFCURVE",
"331 -109 CURVE SMOOTH",
"370 -109 OFFCURVE",
"394 -128 OFFCURVE",
"394 -163 CURVE SMOOTH",
"394 -196 OFFCURVE",
"374 -229 OFFCURVE",
"329 -229 CURVE SMOOTH",
"304 -229 OFFCURVE",
"281 -224 OFFCURVE",
"260 -215 CURVE",
"259 -216 OFFCURVE",
"258 -219 OFFCURVE",
"256 -224 CURVE SMOOTH",
"254 -229 OFFCURVE",
"252 -236 OFFCURVE",
"249 -243 CURVE",
"239 -298 LINE",
"245 -305 OFFCURVE",
"254 -311 OFFCURVE",
"265 -315 CURVE SMOOTH",
"288 -324 OFFCURVE",
"309 -328 OFFCURVE",
"329 -328 CURVE SMOOTH",
"346 -328 LINE SMOOTH",
"515 -328 OFFCURVE",
"569 -261 OFFCURVE",
"569 -174 CURVE SMOOTH",
"569 -115 OFFCURVE",
"517 -65 OFFCURVE",
"404 -48 CURVE",
"414 2 LINE",
"422 3 OFFCURVE",
"435 3 OFFCURVE",
"453 3 CURVE",
"478 4 LINE",
"481 5 OFFCURVE",
"487 7 OFFCURVE",
"496 10 CURVE",
"505 16 OFFCURVE",
"510 30 OFFCURVE",
"510 53 CURVE SMOOTH",
"510 148 LINE",
"511 161 OFFCURVE",
"513 181 OFFCURVE",
"514 209 CURVE SMOOTH",
"516 239 LINE SMOOTH",
"519 304 OFFCURVE",
"520 347 OFFCURVE",
"520 366 CURVE",
"521 371 OFFCURVE",
"521 379 OFFCURVE",
"521 389 CURVE SMOOTH",
"521 423 LINE",
"521 438 LINE SMOOTH",
"521 439 OFFCURVE",
"521 441 OFFCURVE",
"522 442 CURVE SMOOTH",
"523 443 OFFCURVE",
"523 443 OFFCURVE",
"523 444 CURVE",
"524 447 OFFCURVE",
"527 448 OFFCURVE",
"533 448 CURVE SMOOTH",
"563 448 LINE",
"571 447 OFFCURVE",
"583 446 OFFCURVE",
"598 446 CURVE SMOOTH",
"631 446 LINE",
"663 446 LINE SMOOTH",
"676 446 OFFCURVE",
"688 448 OFFCURVE",
"688 463 CURVE SMOOTH",
"688 628 LINE SMOOTH",
"688 640 OFFCURVE",
"687 645 OFFCURVE",
"678 649 CURVE"
);
}
);
width = 723;
}
);
note = uni0162;
unicode = 0162;
},
{
glyphname = U;
lastChange = "2017-06-26 18:09:05 +0000";
layers = (
{
layerId = "CBDECE4A-293B-4E5C-B714-A3FD26C7130D";
paths = (
{
closed = 1;
nodes = (
"332 -23 OFFCURVE",
"413 -1 OFFCURVE",
"485 35 CURVE",
"492 6 OFFCURVE",
"509 -5 OFFCURVE",
"545 -5 CURVE",
"591 -3 LINE",
"614 -3 OFFCURVE",
"684 0 OFFCURVE",
"711 3 CURVE",
"762 3 LINE SMOOTH",
"787 3 OFFCURVE",
"800 16 OFFCURVE",
"800 43 CURVE SMOOTH",
"800 110 OFFCURVE",
"802 208 OFFCURVE",
"806 339 CURVE SMOOTH",
"810 438 OFFCURVE",
"812 537 OFFCURVE",
"812 636 CURVE SMOOTH",
"812 644 OFFCURVE",
"810 649 OFFCURVE",
"798 653 CURVE",
"770 661 LINE",
"748 666 OFFCURVE",
"730 668 OFFCURVE",
"715 669 CURVE SMOOTH",
"685 670 LINE",
"680 671 OFFCURVE",
"673 671 OFFCURVE",
"665 671 CURVE",
"660 672 OFFCURVE",
"655 673 OFFCURVE",
"651 673 CURVE",
"645 671 OFFCURVE",
"635 670 OFFCURVE",
"622 670 CURVE",
"585 667 OFFCURVE",
"542 665 OFFCURVE",
"503 665 CURVE SMOOTH",
"468 665 OFFCURVE",
"463 658 OFFCURVE",
"463 634 CURVE SMOOTH",
"463 625 LINE SMOOTH",
"463 618 OFFCURVE",
"464 612 OFFCURVE",
"465 608 CURVE",
"465 593 OFFCURVE",
"466 578 OFFCURVE",
"468 563 CURVE",
"468 161 LINE",
"463 158 OFFCURVE",
"453 153 OFFCURVE",
"440 146 CURVE",
"419 137 OFFCURVE",
"399 133 OFFCURVE",
"381 133 CURVE SMOOTH",
"372 133 OFFCURVE",
"367 138 OFFCURVE",
"365 149 CURVE SMOOTH",
"363 160 OFFCURVE",
"362 178 OFFCURVE",
"362 203 CURVE SMOOTH",
"362 242 OFFCURVE",
"363 291 OFFCURVE",
"364 350 CURVE SMOOTH",
"365 382 OFFCURVE",
"366 405 OFFCURVE",
"366 418 CURVE SMOOTH",
"366 428 OFFCURVE",
"366 435 OFFCURVE",
"367 440 CURVE",
"368 479 OFFCURVE",
"370 529 OFFCURVE",
"370 589 CURVE SMOOTH",
"370 614 OFFCURVE",
"367 631 OFFCURVE",
"362 641 CURVE",
"350 658 OFFCURVE",
"318 665 OFFCURVE",
"263 670 CURVE SMOOTH",
"224 674 OFFCURVE",
"183 675 OFFCURVE",
"140 674 CURVE SMOOTH",
"80 674 LINE SMOOTH",
"57 674 OFFCURVE",
"46 669 OFFCURVE",
"46 658 CURVE SMOOTH",
"46 653 OFFCURVE",
"47 645 OFFCURVE",
"48 636 CURVE",
"49 632 OFFCURVE",
"50 625 OFFCURVE",
"50 615 CURVE SMOOTH",
"50 576 OFFCURVE",
"48 516 OFFCURVE",
"47 488 CURVE SMOOTH",
"46 471 OFFCURVE",
"45 457 OFFCURVE",
"45 448 CURVE",
"40 389 OFFCURVE",
"37 335 OFFCURVE",
"37 286 CURVE SMOOTH",
"37 218 OFFCURVE",
"40 167 OFFCURVE",
"47 133 CURVE SMOOTH",
"67 30 OFFCURVE",
"120 -23 OFFCURVE",
"247 -23 CURVE SMOOTH"
);
}
);
width = 847;
}
);
note = U;
unicode = 0055;
},
{
glyphname = Uhorn;
lastChange = "2017-06-26 21:46:27 +0000";
layers = (
{
layerId = "CBDECE4A-293B-4E5C-B714-A3FD26C7130D";
paths = (
{
closed = 1;
nodes = (
"350 -23 OFFCURVE",
"431 -1 OFFCURVE",
"503 35 CURVE",
"510 6 OFFCURVE",
"527 -5 OFFCURVE",
"563 -5 CURVE",
"609 -3 LINE",
"620 -3 OFFCURVE",
"636 -2 OFFCURVE",
"656 -1 CURVE SMOOTH",
"729 3 LINE",
"780 3 LINE SMOOTH",
"805 3 OFFCURVE",
"818 16 OFFCURVE",
"818 43 CURVE SMOOTH",
"818 110 OFFCURVE",
"820 208 OFFCURVE",
"824 339 CURVE SMOOTH",
"827 420 OFFCURVE",
"828 559 OFFCURVE",
"829 598 CURVE",
"883 628 OFFCURVE",
"922 658 OFFCURVE",
"926 700 CURVE",
"928 745 LINE",
"924 786 LINE",
"919 805 LINE",
"758 809 LINE",
"763 791 LINE",
"765 758 LINE",
"764 733 LINE",
"755 708 LINE SMOOTH",
"748 689 OFFCURVE",
"725 671 OFFCURVE",
"706 671 CURVE SMOOTH",
"691 671 LINE",
"674 673 LINE",
"669 673 LINE",
"660 671 LINE",
"657 670 OFFCURVE",
"650 670 OFFCURVE",
"640 670 CURVE",
"603 667 OFFCURVE",
"560 665 OFFCURVE",
"521 665 CURVE SMOOTH",
"486 665 OFFCURVE",
"481 658 OFFCURVE",
"481 634 CURVE SMOOTH",
"481 625 LINE SMOOTH",
"481 618 OFFCURVE",
"482 612 OFFCURVE",
"483 608 CURVE",
"483 593 OFFCURVE",
"484 578 OFFCURVE",
"486 563 CURVE",
"486 161 LINE",
"481 158 OFFCURVE",
"471 153 OFFCURVE",
"458 146 CURVE",
"437 137 OFFCURVE",
"417 133 OFFCURVE",
"399 133 CURVE SMOOTH",
"390 133 OFFCURVE",
"385 138 OFFCURVE",
"383 149 CURVE SMOOTH",
"381 160 OFFCURVE",
"380 178 OFFCURVE",
"380 203 CURVE SMOOTH",
"380 242 OFFCURVE",
"381 291 OFFCURVE",
"382 350 CURVE SMOOTH",
"383 382 OFFCURVE",
"384 405 OFFCURVE",
"384 418 CURVE SMOOTH",
"384 428 OFFCURVE",
"384 435 OFFCURVE",
"385 440 CURVE",
"386 479 OFFCURVE",
"388 529 OFFCURVE",
"388 589 CURVE SMOOTH",
"388 614 OFFCURVE",
"385 631 OFFCURVE",
"380 641 CURVE",
"368 658 OFFCURVE",
"336 665 OFFCURVE",
"281 670 CURVE SMOOTH",
"242 674 OFFCURVE",
"201 675 OFFCURVE",
"158 674 CURVE SMOOTH",
"98 674 LINE SMOOTH",
"75 674 OFFCURVE",
"64 669 OFFCURVE",
"64 658 CURVE SMOOTH",
"64 653 OFFCURVE",
"65 645 OFFCURVE",
"66 636 CURVE",
"67 632 OFFCURVE",
"68 625 OFFCURVE",
"68 615 CURVE SMOOTH",
"68 576 OFFCURVE",
"66 516 OFFCURVE",
"65 488 CURVE SMOOTH",
"64 471 OFFCURVE",
"63 457 OFFCURVE",
"63 448 CURVE",
"58 389 OFFCURVE",
"55 335 OFFCURVE",
"55 286 CURVE SMOOTH",
"55 218 OFFCURVE",
"58 167 OFFCURVE",
"65 133 CURVE SMOOTH",
"85 30 OFFCURVE",
"138 -23 OFFCURVE",
"265 -23 CURVE SMOOTH"
);
}
);
width = 885;
}
);
note = Uhorn;
unicode = 01AF;
},
{
glyphname = Uogonek;
lastChange = "2017-06-11 23:28:21 +0000";
layers = (
{
layerId = "CBDECE4A-293B-4E5C-B714-A3FD26C7130D";
paths = (
{
closed = 1;
nodes = (
"816 -154 OFFCURVE",
"787 -160 OFFCURVE",
"760 -160 CURVE SMOOTH",
"751 -160 OFFCURVE",
"745 -160 OFFCURVE",
"740 -161 CURVE",
"732 -164 OFFCURVE",
"722 -159 OFFCURVE",
"719 -158 CURVE",
"704 -154 OFFCURVE",
"696 -146 OFFCURVE",
"696 -126 CURVE SMOOTH",
"696 -118 OFFCURVE",
"700 -106 OFFCURVE",
"709 -90 CURVE SMOOTH",
"722 -67 OFFCURVE",
"736 -49 OFFCURVE",
"755 -33 CURVE",
"791 4 LINE",
"809 7 OFFCURVE",
"818 20 OFFCURVE",
"818 43 CURVE SMOOTH",
"818 110 OFFCURVE",
"820 208 OFFCURVE",
"824 339 CURVE SMOOTH",
"828 438 OFFCURVE",
"830 537 OFFCURVE",
"830 636 CURVE SMOOTH",
"830 644 OFFCURVE",
"828 649 OFFCURVE",
"816 653 CURVE",
"788 661 LINE",
"766 666 OFFCURVE",
"748 668 OFFCURVE",
"733 669 CURVE SMOOTH",
"703 670 LINE",
"698 671 OFFCURVE",
"691 671 OFFCURVE",
"683 671 CURVE",
"678 672 OFFCURVE",
"673 673 OFFCURVE",
"669 673 CURVE",
"663 671 OFFCURVE",
"653 670 OFFCURVE",
"640 670 CURVE",
"603 667 OFFCURVE",
"560 665 OFFCURVE",
"521 665 CURVE SMOOTH",
"486 665 OFFCURVE",
"481 658 OFFCURVE",
"481 634 CURVE SMOOTH",
"481 625 LINE SMOOTH",
"481 618 OFFCURVE",
"482 612 OFFCURVE",
"483 608 CURVE",
"483 593 OFFCURVE",
"484 578 OFFCURVE",
"486 563 CURVE",
"486 161 LINE",
"481 158 OFFCURVE",
"471 153 OFFCURVE",
"458 146 CURVE",
"437 137 OFFCURVE",
"417 133 OFFCURVE",
"399 133 CURVE SMOOTH",
"390 133 OFFCURVE",
"385 138 OFFCURVE",
"383 149 CURVE SMOOTH",
"381 160 OFFCURVE",
"380 178 OFFCURVE",
"380 203 CURVE SMOOTH",
"380 242 OFFCURVE",
"381 291 OFFCURVE",
"382 350 CURVE SMOOTH",
"383 382 OFFCURVE",
"384 405 OFFCURVE",
"384 418 CURVE SMOOTH",
"384 428 OFFCURVE",
"384 435 OFFCURVE",
"385 440 CURVE",
"386 479 OFFCURVE",
"388 529 OFFCURVE",
"388 589 CURVE SMOOTH",
"388 614 OFFCURVE",
"385 631 OFFCURVE",
"380 641 CURVE",
"368 658 OFFCURVE",
"336 665 OFFCURVE",
"281 670 CURVE SMOOTH",
"242 674 OFFCURVE",
"201 675 OFFCURVE",
"158 674 CURVE SMOOTH",
"98 674 LINE SMOOTH",
"75 674 OFFCURVE",
"64 669 OFFCURVE",
"64 658 CURVE SMOOTH",
"64 653 OFFCURVE",
"65 645 OFFCURVE",
"66 636 CURVE",
"67 632 OFFCURVE",
"68 625 OFFCURVE",
"68 615 CURVE SMOOTH",
"68 576 OFFCURVE",
"66 516 OFFCURVE",
"65 488 CURVE SMOOTH",
"64 471 OFFCURVE",
"63 457 OFFCURVE",
"63 448 CURVE",
"58 389 OFFCURVE",
"55 335 OFFCURVE",
"55 286 CURVE SMOOTH",
"55 218 OFFCURVE",
"58 167 OFFCURVE",
"65 133 CURVE SMOOTH",
"85 30 OFFCURVE",
"138 -23 OFFCURVE",
"265 -23 CURVE SMOOTH",
"350 -23 OFFCURVE",
"431 -1 OFFCURVE",
"503 35 CURVE",
"510 6 OFFCURVE",
"527 -5 OFFCURVE",
"563 -5 CURVE",
"588 -4 OFFCURVE",
"607 -3 OFFCURVE",
"620 -3 CURVE",
"609 -10 LINE SMOOTH",
"606 -12 OFFCURVE",
"600 -15 OFFCURVE",
"593 -19 CURVE",
"585 -24 OFFCURVE",
"579 -28 OFFCURVE",
"574 -33 CURVE",
"518 -70 OFFCURVE",
"491 -103 OFFCURVE",
"491 -163 CURVE SMOOTH",
"491 -175 OFFCURVE",
"493 -186 OFFCURVE",
"496 -195 CURVE",
"507 -220 OFFCURVE",
"530 -240 OFFCURVE",
"567 -253 CURVE SMOOTH",
"606 -268 OFFCURVE",
"661 -276 OFFCURVE",
"734 -276 CURVE",
"744 -274 LINE",
"746 -273 OFFCURVE",
"749 -273 OFFCURVE",
"752 -273 CURVE SMOOTH",
"755 -273 OFFCURVE",
"759 -272 OFFCURVE",
"764 -271 CURVE",
"775 -270 OFFCURVE",
"791 -265 OFFCURVE",
"811 -258 CURVE",
"824 -251 OFFCURVE",
"836 -245 OFFCURVE",
"837 -240 CURVE SMOOTH",
"854 -158 LINE",
"854 -153 LINE SMOOTH",
"854 -148 OFFCURVE",
"852 -145 OFFCURVE",
"847 -143 CURVE"
);
}
);
width = 885;
}
);
note = Uogonek;
unicode = 0172;
},
{
glyphname = V;
lastChange = "2017-06-28 16:13:19 +0000";
layers = (
{
layerId = "CBDECE4A-293B-4E5C-B714-A3FD26C7130D";
paths = (
{
closed = 1;
nodes = (
"335 -16 OFFCURVE",
"459 -14 OFFCURVE",
"523 -10 CURVE",
"529 -10 OFFCURVE",
"538 -11 OFFCURVE",
"549 -12 CURVE",
"558 -15 OFFCURVE",
"567 -16 OFFCURVE",
"576 -16 CURVE SMOOTH",
"581 -16 OFFCURVE",
"585 -15 OFFCURVE",
"588 -12 CURVE SMOOTH",
"592 -8 OFFCURVE",
"596 -9 OFFCURVE",
"602 -9 CURVE",
"606 -10 LINE",
"609 -10 LINE",
"616 -5 OFFCURVE",
"619 -2 OFFCURVE",
"619 0 CURVE",
"671 186 LINE SMOOTH",
"691 256 OFFCURVE",
"743 458 OFFCURVE",
"771 543 CURVE",
"772 544 OFFCURVE",
"772 547 OFFCURVE",
"773 551 CURVE",
"773 554 OFFCURVE",
"776 559 OFFCURVE",
"778 565 CURVE",
"782 589 OFFCURVE",
"783 598 OFFCURVE",
"783 605 CURVE",
"794 629 OFFCURVE",
"768 652 OFFCURVE",
"749 654 CURVE",
"718 657 LINE",
"713 656 OFFCURVE",
"702 664 OFFCURVE",
"696 664 CURVE",
"620 672 LINE",
"577 674 LINE",
"546 682 OFFCURVE",
"539 620 OFFCURVE",
"509 499 CURVE SMOOTH",
"503 473 OFFCURVE",
"495 466 OFFCURVE",
"492 453 CURVE SMOOTH",
"489 438 LINE",
"486 422 LINE SMOOTH",
"485 416 OFFCURVE",
"484 409 OFFCURVE",
"482 402 CURVE SMOOTH",
"472 366 LINE",
"460 319 LINE SMOOTH",
"459 314 OFFCURVE",
"440 280 OFFCURVE",
"440 277 CURVE",
"430 294 LINE",
"424 309 LINE",
"404 370 LINE",
"391 399 LINE",
"389 406 OFFCURVE",
"387 414 OFFCURVE",
"385 420 CURVE SMOOTH",
"383 426 OFFCURVE",
"379 441 OFFCURVE",
"372 446 CURVE",
"371 450 OFFCURVE",
"371 453 OFFCURVE",
"371 456 CURVE",
"370 459 OFFCURVE",
"370 460 OFFCURVE",
"370 460 CURVE",
"363 488 OFFCURVE",
"337 565 OFFCURVE",
"332 579 CURVE SMOOTH",
"315 624 LINE SMOOTH",
"308 644 OFFCURVE",
"296 686 OFFCURVE",
"252 672 CURVE",
"189 660 LINE",
"169 659 LINE",
"163 656 LINE SMOOTH",
"159 654 OFFCURVE",
"158 655 OFFCURVE",
"154 654 CURVE",
"153 654 OFFCURVE",
"153 654 OFFCURVE",
"152 653 CURVE SMOOTH",
"151 652 OFFCURVE",
"149 653 OFFCURVE",
"149 653 CURVE",
"147 653 OFFCURVE",
"147 646 OFFCURVE",
"145 647 CURVE",
"143 648 OFFCURVE",
"138 647 OFFCURVE",
"137 647 CURVE SMOOTH",
"56 629 LINE",
"33 619 LINE",
"-5 604 OFFCURVE",
"15 573 OFFCURVE",
"15 558 CURVE SMOOTH",
"15 546 OFFCURVE",
"16 544 OFFCURVE",
"19 532 CURVE SMOOTH",
"22 519 LINE",
"22 515 OFFCURVE",
"22 512 OFFCURVE",
"23 510 CURVE",
"77 400 OFFCURVE",
"109 277 OFFCURVE",
"131 211 CURVE SMOOTH",
"202 0 LINE",
"202 -3 OFFCURVE",
"205 -6 OFFCURVE",
"212 -10 CURVE",
"218 -10 LINE",
"218 -9 OFFCURVE",
"219 -9 OFFCURVE",
"220 -9 CURVE SMOOTH",
"228 -9 OFFCURVE",
"238 -11 OFFCURVE",
"247 -12 CURVE SMOOTH",
"258 -13 OFFCURVE",
"266 -16 OFFCURVE",
"275 -16 CURVE SMOOTH"
);
}
);
width = 796;
}
);
note = V;
rightKerningGroup = V;
unicode = 0056;
},
{
glyphname = W;
lastChange = "2017-06-27 13:55:33 +0000";
layers = (
{
layerId = "CBDECE4A-293B-4E5C-B714-A3FD26C7130D";
paths = (
{
closed = 1;
nodes = (
"370 -4 OFFCURVE",
"385 -4 OFFCURVE",
"394 -3 CURVE",
"441 -3 LINE SMOOTH",
"459 -3 OFFCURVE",
"470 2 OFFCURVE",
"473 13 CURVE",
"559 333 LINE",
"646 13 LINE",
"646 8 OFFCURVE",
"649 4 OFFCURVE",
"656 2 CURVE",
"666 3 LINE",
"678 3 OFFCURVE",
"687 3 OFFCURVE",
"694 2 CURVE",
"723 2 LINE",
"772 2 LINE",
"917 1 LINE",
"929 2 LINE",
"932 3 OFFCURVE",
"936 3 OFFCURVE",
"941 3 CURVE",
"951 2 LINE",
"951 7 LINE",
"952 10 OFFCURVE",
"955 12 OFFCURVE",
"961 13 CURVE",
"1036 291 LINE",
"1059 370 OFFCURVE",
"1060 390 OFFCURVE",
"1082 490 CURVE",
"1082 522 OFFCURVE",
"1124 630 OFFCURVE",
"1100 641 CURVE",
"1077 649 LINE",
"1072 648 OFFCURVE",
"1049 656 OFFCURVE",
"1022 660 CURVE SMOOTH",
"988 665 LINE",
"983 664 OFFCURVE",
"976 669 OFFCURVE",
"969 671 CURVE SMOOTH",
"962 673 LINE",
"961 674 OFFCURVE",
"958 672 OFFCURVE",
"955 674 CURVE SMOOTH",
"952 676 OFFCURVE",
"952 674 OFFCURVE",
"948 675 CURVE",
"948 676 OFFCURVE",
"924 681 OFFCURVE",
"922 681 CURVE SMOOTH",
"920 681 LINE",
"913 680 OFFCURVE",
"899 683 OFFCURVE",
"894 683 CURVE SMOOTH",
"889 683 OFFCURVE",
"885 683 OFFCURVE",
"880 682 CURVE SMOOTH",
"875 681 OFFCURVE",
"871 681 OFFCURVE",
"867 681 CURVE",
"862 674 OFFCURVE",
"859 664 OFFCURVE",
"857 654 CURVE",
"851 635 OFFCURVE",
"849 621 OFFCURVE",
"828 517 CURVE SMOOTH",
"824 497 LINE",
"823 488 OFFCURVE",
"820 475 OFFCURVE",
"816 456 CURVE",
"816 455 OFFCURVE",
"816 454 OFFCURVE",
"816 452 CURVE",
"815 450 OFFCURVE",
"815 447 OFFCURVE",
"814 444 CURVE",
"811 419 LINE",
"808 407 OFFCURVE",
"807 397 OFFCURVE",
"806 388 CURVE",
"801 357 LINE",
"797 333 LINE",
"796 322 LINE",
"796 313 LINE",
"795 312 OFFCURVE",
"794 310 OFFCURVE",
"793 308 CURVE",
"792 313 LINE",
"791 316 OFFCURVE",
"791 319 OFFCURVE",
"791 322 CURVE SMOOTH",
"791 323 OFFCURVE",
"791 324 OFFCURVE",
"790 326 CURVE",
"789 327 OFFCURVE",
"789 330 OFFCURVE",
"788 333 CURVE",
"787 342 OFFCURVE",
"786 350 OFFCURVE",
"786 357 CURVE",
"784 363 OFFCURVE",
"782 374 OFFCURVE",
"781 388 CURVE",
"776 419 LINE",
"776 422 OFFCURVE",
"769 431 OFFCURVE",
"767 444 CURVE SMOOTH",
"765 456 LINE",
"766 456 OFFCURVE",
"728 632 OFFCURVE",
"728 632 CURVE",
"726 635 OFFCURVE",
"720 636 OFFCURVE",
"709 636 CURVE SMOOTH",
"697 636 LINE",
"691 636 LINE SMOOTH",
"686 636 OFFCURVE",
"682 635 OFFCURVE",
"681 634 CURVE",
"680 634 OFFCURVE",
"678 634 OFFCURVE",
"677 633 CURVE SMOOTH",
"676 632 OFFCURVE",
"675 632 OFFCURVE",
"674 632 CURVE",
"673 633 OFFCURVE",
"670 634 OFFCURVE",
"664 634 CURVE SMOOTH",
"657 634 OFFCURVE",
"650 634 OFFCURVE",
"643 635 CURVE",
"523 639 LINE",
"506 639 LINE SMOOTH",
"500 639 OFFCURVE",
"490 638 OFFCURVE",
"476 636 CURVE",
"474 635 OFFCURVE",
"471 635 OFFCURVE",
"468 634 CURVE",
"464 633 OFFCURVE",
"462 632 OFFCURVE",
"461 631 CURVE",
"453 627 OFFCURVE",
"450 620 OFFCURVE",
"449 612 CURVE",
"441 586 OFFCURVE",
"414 516 OFFCURVE",
"403 467 CURVE",
"402 457 LINE",
"402 454 OFFCURVE",
"401 445 OFFCURVE",
"398 438 CURVE",
"389 413 LINE",
"388 409 OFFCURVE",
"388 406 OFFCURVE",
"387 402 CURVE",
"386 397 OFFCURVE",
"385 393 OFFCURVE",
"384 389 CURVE SMOOTH",
"382 381 OFFCURVE",
"381 375 OFFCURVE",
"381 371 CURVE",
"380 367 OFFCURVE",
"379 364 OFFCURVE",
"379 362 CURVE",
"378 358 LINE",
"378 353 LINE",
"376 347 LINE",
"376 353 LINE",
"375 354 OFFCURVE",
"374 356 OFFCURVE",
"374 358 CURVE",
"373 362 LINE",
"371 371 LINE",
"371 373 OFFCURVE",
"371 377 OFFCURVE",
"370 380 CURVE",
"369 386 OFFCURVE",
"364 392 OFFCURVE",
"363 402 CURVE",
"362 406 OFFCURVE",
"361 410 OFFCURVE",
"360 413 CURVE",
"359 424 OFFCURVE",
"357 433 OFFCURVE",
"356 438 CURVE",
"353 457 LINE",
"353 460 OFFCURVE",
"353 462 OFFCURVE",
"352 464 CURVE",
"351 465 OFFCURVE",
"351 466 OFFCURVE",
"351 467 CURVE",
"327 630 OFFCURVE",
"328 599 OFFCURVE",
"327 608 CURVE",
"316 658 OFFCURVE",
"310 693 OFFCURVE",
"290 682 CURVE",
"269 677 OFFCURVE",
"249 674 OFFCURVE",
"242 672 CURVE SMOOTH",
"233 670 LINE",
"230 670 LINE SMOOTH",
"229 670 OFFCURVE",
"217 668 OFFCURVE",
"213 667 CURVE",
"212 667 OFFCURVE",
"211 667 OFFCURVE",
"210 666 CURVE SMOOTH",
"209 665 OFFCURVE",
"208 665 OFFCURVE",
"207 665 CURVE",
"206 667 LINE",
"206 667 OFFCURVE",
"206 667 OFFCURVE",
"205 667 CURVE SMOOTH",
"204 667 OFFCURVE",
"204 667 OFFCURVE",
"203 664 CURVE",
"197 665 LINE",
"172 659 LINE",
"164 658 LINE",
"136 653 LINE SMOOTH",
"135 653 OFFCURVE",
"79 647 OFFCURVE",
"35 642 CURVE",
"1 632 OFFCURVE",
"34 616 OFFCURVE",
"42 496 CURVE SMOOTH",
"44 466 OFFCURVE",
"52 441 OFFCURVE",
"59 436 CURVE",
"73 364 OFFCURVE",
"69 402 OFFCURVE",
"89 314 CURVE SMOOTH",
"159 13 LINE",
"159 8 OFFCURVE",
"162 4 OFFCURVE",
"169 2 CURVE",
"178 3 LINE",
"183 3 OFFCURVE",
"189 2 OFFCURVE",
"196 0 CURVE",
"201 -2 OFFCURVE",
"207 -3 OFFCURVE",
"212 -3 CURVE",
"348 -4 LINE"
);
}
);
width = 1117;
}
);
note = W;
unicode = 0057;
},
{
glyphname = X;
lastChange = "2017-07-05 12:35:29 +0000";
layers = (
{
layerId = "CBDECE4A-293B-4E5C-B714-A3FD26C7130D";
paths = (
{
closed = 1;
nodes = (
"100 50 OFFCURVE",
"194 -31 OFFCURVE",
"182 -32 CURVE",
"183 -30 OFFCURVE",
"185 -30 OFFCURVE",
"187 -30 CURVE",
"188 -30 OFFCURVE",
"188 -30 OFFCURVE",
"189 -30 CURVE",
"189 -35 LINE",
"203 -45 LINE",
"217 -39 LINE",
"233 -20 LINE",
"253 -1 LINE",
"365 110 LINE",
"398 144 LINE",
"401 144 OFFCURVE",
"402 141 OFFCURVE",
"404 137 CURVE",
"407 131 OFFCURVE",
"411 128 OFFCURVE",
"414 125 CURVE",
"436 97 OFFCURVE",
"443 90 OFFCURVE",
"494 25 CURVE",
"499 23 OFFCURVE",
"500 21 OFFCURVE",
"501 22 CURVE",
"502 22 OFFCURVE",
"502 22 OFFCURVE",
"503 22 CURVE SMOOTH",
"506 22 LINE SMOOTH",
"508 22 OFFCURVE",
"508 22 OFFCURVE",
"508 22 CURVE SMOOTH",
"505 14 LINE",
"555 -30 LINE",
"574 -28 OFFCURVE",
"605 -13 OFFCURVE",
"632 9 CURVE",
"631 9 OFFCURVE",
"689 53 OFFCURVE",
"742 85 CURVE SMOOTH",
"747 88 LINE",
"758 104 LINE SMOOTH",
"763 111 OFFCURVE",
"776 132 OFFCURVE",
"732 174 CURVE",
"699 203 OFFCURVE",
"656 276 OFFCURVE",
"641 294 CURVE",
"605 335 LINE",
"610 341 OFFCURVE",
"682 416 OFFCURVE",
"699 437 CURVE",
"706 445 OFFCURVE",
"765 509 OFFCURVE",
"756 504 CURVE",
"769 523 OFFCURVE",
"779 526 OFFCURVE",
"780 545 CURVE",
"775 571 OFFCURVE",
"675 667 OFFCURVE",
"642 683 CURVE",
"628 686 OFFCURVE",
"611 722 OFFCURVE",
"583 712 CURVE",
"580 712 OFFCURVE",
"577 710 OFFCURVE",
"571 703 CURVE",
"558 692 OFFCURVE",
"465 601 OFFCURVE",
"445 579 CURVE SMOOTH",
"399 528 LINE",
"390 517 LINE",
"383 506 OFFCURVE",
"372 537 OFFCURVE",
"369 536 CURVE",
"368 537 LINE",
"364 539 LINE",
"361 542 OFFCURVE",
"353 547 OFFCURVE",
"353 552 CURVE SMOOTH",
"353 553 OFFCURVE",
"352 553 OFFCURVE",
"351 555 CURVE",
"349 554 OFFCURVE",
"348 557 OFFCURVE",
"347 562 CURVE",
"304 612 OFFCURVE",
"242 665 OFFCURVE",
"222 692 CURVE",
"217 697 OFFCURVE",
"202 704 OFFCURVE",
"200 704 CURVE SMOOTH",
"166 702 LINE",
"127 674 OFFCURVE",
"128 671 OFFCURVE",
"82 642 CURVE SMOOTH",
"71 635 OFFCURVE",
"24 588 OFFCURVE",
"27 588 CURVE SMOOTH",
"36 588 OFFCURVE",
"31 593 OFFCURVE",
"20 585 CURVE",
"16 583 OFFCURVE",
"9 573 OFFCURVE",
"5 573 CURVE",
"3 553 OFFCURVE",
"-6 549 OFFCURVE",
"8 530 CURVE",
"34 497 LINE",
"32 502 OFFCURVE",
"62 458 OFFCURVE",
"68 455 CURVE",
"83 428 OFFCURVE",
"140 383 OFFCURVE",
"176 329 CURVE",
"171 325 OFFCURVE",
"117 269 OFFCURVE",
"97 247 CURVE SMOOTH",
"72 220 LINE",
"43 180 LINE",
"25 159 OFFCURVE",
"16 149 OFFCURVE",
"12 148 CURVE SMOOTH",
"5 146 OFFCURVE",
"10 142 OFFCURVE",
"9 142 CURVE",
"8 134 LINE",
"9 132 OFFCURVE",
"11 126 OFFCURVE",
"16 122 CURVE SMOOTH",
"75 72 LINE SMOOTH"
);
}
);
width = 780;
}
);
note = X;
unicode = 0058;
},
{
glyphname = Y;
lastChange = "2017-07-05 12:20:24 +0000";
layers = (
{
layerId = "CBDECE4A-293B-4E5C-B714-A3FD26C7130D";
paths = (
{
closed = 1;
nodes = (
"465 -82 OFFCURVE",
"473 -81 OFFCURVE",
"479 -63 CURVE",
"491 -41 OFFCURVE",
"563 111 OFFCURVE",
"563 111 CURVE",
"662 316 LINE",
"768 523 LINE",
"778 538 OFFCURVE",
"789 565 OFFCURVE",
"789 583 CURVE",
"765 612 OFFCURVE",
"712 627 OFFCURVE",
"646 665 CURVE SMOOTH",
"613 684 OFFCURVE",
"590 693 OFFCURVE",
"568 693 CURVE SMOOTH",
"550 693 OFFCURVE",
"467 519 OFFCURVE",
"457 498 CURVE",
"440 465 OFFCURVE",
"423 423 OFFCURVE",
"420 423 CURVE SMOOTH",
"416 423 OFFCURVE",
"379 474 OFFCURVE",
"372 483 CURVE SMOOTH",
"359 500 OFFCURVE",
"311 571 OFFCURVE",
"276 630 CURVE SMOOTH",
"273 635 OFFCURVE",
"271 639 OFFCURVE",
"268 642 CURVE",
"264 650 LINE",
"258 660 LINE",
"255 663 OFFCURVE",
"251 667 OFFCURVE",
"245 675 CURVE",
"227 693 OFFCURVE",
"229 692 OFFCURVE",
"208 681 CURVE SMOOTH",
"176 664 LINE SMOOTH",
"173 662 OFFCURVE",
"158 654 OFFCURVE",
"154 653 CURVE SMOOTH",
"145 651 OFFCURVE",
"128 637 OFFCURVE",
"124 637 CURVE SMOOTH",
"121 637 OFFCURVE",
"117 636 OFFCURVE",
"114 634 CURVE",
"100 627 LINE",
"68 603 OFFCURVE",
"54 586 OFFCURVE",
"50 585 CURVE",
"46 583 OFFCURVE",
"40 580 OFFCURVE",
"32 576 CURVE SMOOTH",
"15 568 OFFCURVE",
"0 552 OFFCURVE",
"0 539 CURVE SMOOTH",
"0 527 OFFCURVE",
"7 520 OFFCURVE",
"25 484 CURVE",
"45 447 OFFCURVE",
"98 392 OFFCURVE",
"126 338 CURVE",
"149 300 OFFCURVE",
"173 268 OFFCURVE",
"195 241 CURVE",
"195 240 OFFCURVE",
"196 238 OFFCURVE",
"197 237 CURVE",
"198 237 LINE",
"200 237 LINE",
"200 238 OFFCURVE",
"202 238 OFFCURVE",
"205 238 CURVE",
"205 229 OFFCURVE",
"210 219 OFFCURVE",
"221 209 CURVE SMOOTH",
"233 198 OFFCURVE",
"263 154 OFFCURVE",
"273 146 CURVE",
"245 93 OFFCURVE",
"251 108 OFFCURVE",
"248 101 CURVE",
"243 94 OFFCURVE",
"240 79 OFFCURVE",
"238 74 CURVE SMOOTH",
"232 60 OFFCURVE",
"224 47 OFFCURVE",
"224 34 CURVE SMOOTH",
"224 30 OFFCURVE",
"227 26 OFFCURVE",
"232 22 CURVE",
"256 8 LINE",
"261 7 OFFCURVE",
"280 -2 OFFCURVE",
"289 -6 CURVE SMOOTH",
"342 -30 LINE",
"346 -31 OFFCURVE",
"351 -40 OFFCURVE",
"357 -40 CURVE",
"363 -43 OFFCURVE",
"416 -70 OFFCURVE",
"434 -73 CURVE",
"447 -76 LINE",
"447 -77 OFFCURVE",
"448 -78 OFFCURVE",
"450 -78 CURVE",
"453 -77 LINE",
"454 -76 OFFCURVE",
"455 -76 OFFCURVE",
"456 -76 CURVE SMOOTH",
"457 -76 OFFCURVE",
"457 -76 OFFCURVE",
"457 -76 CURVE",
"457 -82 LINE"
);
}
);
width = 781;
}
);
note = Y;
unicode = 0059;
},
{
glyphname = Z;
lastChange = "2017-06-14 19:46:25 +0000";
layers = (
{
layerId = "CBDECE4A-293B-4E5C-B714-A3FD26C7130D";
paths = (
{
closed = 1;
nodes = (
"589 0 OFFCURVE",
"603 1 OFFCURVE",
"611 3 CURVE",
"628 4 OFFCURVE",
"640 11 OFFCURVE",
"640 20 CURVE SMOOTH",
"640 23 LINE",
"640 184 LINE SMOOTH",
"640 193 OFFCURVE",
"627 204 OFFCURVE",
"615 204 CURVE SMOOTH",
"558 204 LINE",
"499 204 LINE",
"485 203 OFFCURVE",
"463 203 OFFCURVE",
"434 203 CURVE",
"521 294 OFFCURVE",
"580 363 OFFCURVE",
"609 408 CURVE",
"624 429 OFFCURVE",
"634 447 OFFCURVE",
"639 461 CURVE SMOOTH",
"644 476 OFFCURVE",
"646 487 OFFCURVE",
"646 493 CURVE SMOOTH",
"646 653 LINE SMOOTH",
"646 654 OFFCURVE",
"645 656 OFFCURVE",
"643 660 CURVE",
"640 662 OFFCURVE",
"635 665 OFFCURVE",
"626 668 CURVE",
"606 672 OFFCURVE",
"577 674 OFFCURVE",
"540 674 CURVE SMOOTH",
"395 673 LINE SMOOTH",
"364 673 OFFCURVE",
"316 671 OFFCURVE",
"253 671 CURVE SMOOTH",
"228 671 OFFCURVE",
"204 670 OFFCURVE",
"180 668 CURVE SMOOTH",
"155 666 OFFCURVE",
"130 665 OFFCURVE",
"106 665 CURVE",
"95 666 LINE",
"92 667 OFFCURVE",
"88 668 OFFCURVE",
"83 668 CURVE SMOOTH",
"75 668 OFFCURVE",
"68 665 OFFCURVE",
"63 660 CURVE SMOOTH",
"58 655 LINE",
"58 645 LINE",
"57 641 OFFCURVE",
"56 634 OFFCURVE",
"56 623 CURVE",
"55 612 OFFCURVE",
"54 596 OFFCURVE",
"54 584 CURVE SMOOTH",
"54 564 OFFCURVE",
"55 549 OFFCURVE",
"56 538 CURVE SMOOTH",
"61 487 OFFCURVE",
"70 463 OFFCURVE",
"93 463 CURVE SMOOTH",
"283 459 LINE SMOOTH",
"286 459 OFFCURVE",
"288 458 OFFCURVE",
"288 455 CURVE SMOOTH",
"288 451 OFFCURVE",
"285 445 OFFCURVE",
"278 436 CURVE",
"275 431 OFFCURVE",
"267 420 OFFCURVE",
"254 404 CURVE",
"247 396 OFFCURVE",
"217 364 OFFCURVE",
"184 333 CURVE",
"157 302 OFFCURVE",
"106 255 OFFCURVE",
"61 213 CURVE",
"61 28 LINE SMOOTH",
"61 17 OFFCURVE",
"75 3 OFFCURVE",
"88 3 CURVE SMOOTH",
"168 2 LINE",
"183 1 OFFCURVE",
"236 1 OFFCURVE",
"266 1 CURVE SMOOTH",
"297 1 OFFCURVE",
"327 0 OFFCURVE",
"395 0 CURVE SMOOTH",
"570 0 LINE SMOOTH"
);
}
);
width = 703;
}
);
note = Z;
unicode = 005A;
},
{
glyphname = a;
lastChange = "2017-07-11 16:43:14 +0000";
layers = (
{
guideLines = (
{
position = "{195, 0}";
},
{
position = "{53, 492}";
}
);
layerId = "CBDECE4A-293B-4E5C-B714-A3FD26C7130D";
paths = (
{
closed = 1;
nodes = (
"268 -17 OFFCURVE",
"308 2 OFFCURVE",
"345 74 CURVE",
"346 74 OFFCURVE",
"346 74 OFFCURVE",
"348 72 CURVE",
"348 71 OFFCURVE",
"348 68 OFFCURVE",
"348 67 CURVE",
"348 65 OFFCURVE",
"349 61 OFFCURVE",
"349 60 CURVE",
"347 58 OFFCURVE",
"347 53 OFFCURVE",
"347 46 CURVE SMOOTH",
"347 34 LINE SMOOTH",
"347 18 OFFCURVE",
"352 8 OFFCURVE",
"361 4 CURVE",
"371 0 OFFCURVE",
"381 -4 OFFCURVE",
"396 -3 CURVE SMOOTH",
"414 -2 OFFCURVE",
"425 -2 OFFCURVE",
"434 -4 CURVE",
"466 -3 LINE",
"499 -2 LINE",
"596 1 LINE SMOOTH",
"616 2 OFFCURVE",
"618 21 OFFCURVE",
"616 55 CURVE SMOOTH",
"615 76 OFFCURVE",
"616 94 OFFCURVE",
"622 121 CURVE",
"621 143 LINE",
"621 154 OFFCURVE",
"619 185 OFFCURVE",
"618 222 CURVE SMOOTH",
"614 362 LINE",
"611 458 OFFCURVE",
"586 527 OFFCURVE",
"492 565 CURVE SMOOTH",
"437 587 OFFCURVE",
"292 596 OFFCURVE",
"218 592 CURVE SMOOTH",
"198 591 OFFCURVE",
"193 589 OFFCURVE",
"156 583 CURVE",
"154 583 OFFCURVE",
"148 582 OFFCURVE",
"144 581 CURVE",
"122 577 LINE SMOOTH",
"108 574 OFFCURVE",
"98 572 OFFCURVE",
"93 572 CURVE SMOOTH",
"91 572 OFFCURVE",
"91 572 OFFCURVE",
"90 570 CURVE SMOOTH",
"85 564 LINE",
"83 562 OFFCURVE",
"82 562 OFFCURVE",
"79 562 CURVE",
"78 547 LINE",
"79 540 OFFCURVE",
"79 535 OFFCURVE",
"77 529 CURVE",
"80 448 OFFCURVE",
"79 445 OFFCURVE",
"79 433 CURVE SMOOTH",
"79 417 OFFCURVE",
"82 398 OFFCURVE",
"93 394 CURVE",
"152 401 LINE",
"160 401 LINE SMOOTH",
"172 401 OFFCURVE",
"167 405 OFFCURVE",
"180 402 CURVE",
"181 402 LINE SMOOTH",
"314 402 OFFCURVE",
"354 402 OFFCURVE",
"360 337 CURVE",
"349 336 OFFCURVE",
"334 336 OFFCURVE",
"315 337 CURVE SMOOTH",
"301 338 OFFCURVE",
"276 337 OFFCURVE",
"243 336 CURVE SMOOTH",
"164 334 OFFCURVE",
"116 329 OFFCURVE",
"73 278 CURVE SMOOTH",
"33 231 OFFCURVE",
"27 207 OFFCURVE",
"29 158 CURVE SMOOTH",
"34 34 OFFCURVE",
"94 -24 OFFCURVE",
"221 -19 CURVE SMOOTH"
);
},
{
closed = 1;
nodes = (
"289 132 OFFCURVE",
"283 138 OFFCURVE",
"276 162 CURVE",
"272 200 LINE SMOOTH",
"269 232 OFFCURVE",
"285 262 OFFCURVE",
"316 264 CURVE SMOOTH",
"332 265 OFFCURVE",
"358 242 OFFCURVE",
"356 199 CURVE SMOOTH",
"355 180 LINE",
"347 149 OFFCURVE",
"323 132 OFFCURVE",
"297 132 CURVE SMOOTH"
);
}
);
width = 650;
}
);
note = a;
unicode = 0061;
},
{
glyphname = aogonek;
lastChange = "2017-06-11 23:28:21 +0000";
layers = (
{
layerId = "CBDECE4A-293B-4E5C-B714-A3FD26C7130D";
paths = (
{
closed = 1;
nodes = (
"746 -154 OFFCURVE",
"717 -160 OFFCURVE",
"690 -160 CURVE SMOOTH",
"681 -160 OFFCURVE",
"675 -160 OFFCURVE",
"670 -161 CURVE",
"662 -164 OFFCURVE",
"652 -159 OFFCURVE",
"649 -158 CURVE",
"634 -154 OFFCURVE",
"626 -146 OFFCURVE",
"626 -126 CURVE SMOOTH",
"626 -118 OFFCURVE",
"630 -106 OFFCURVE",
"639 -90 CURVE SMOOTH",
"652 -67 OFFCURVE",
"666 -49 OFFCURVE",
"685 -33 CURVE",
"716 -1 LINE",
"728 -1 LINE",
"739 -1 LINE SMOOTH",
"745 -1 OFFCURVE",
"750 2 OFFCURVE",
"753 9 CURVE",
"754 17 OFFCURVE",
"755 23 OFFCURVE",
"755 28 CURVE SMOOTH",
"755 36 OFFCURVE",
"754 47 OFFCURVE",
"751 60 CURVE SMOOTH",
"749 69 OFFCURVE",
"748 76 OFFCURVE",
"748 79 CURVE",
"735 138 OFFCURVE",
"718 209 OFFCURVE",
"696 294 CURVE SMOOTH",
"625 558 LINE",
"625 561 OFFCURVE",
"623 565 OFFCURVE",
"618 568 CURVE",
"609 568 LINE SMOOTH",
"605 568 OFFCURVE",
"602 569 OFFCURVE",
"599 570 CURVE SMOOTH",
"596 571 OFFCURVE",
"592 573 OFFCURVE",
"588 573 CURVE SMOOTH",
"550 573 LINE SMOOTH",
"537 573 OFFCURVE",
"528 573 OFFCURVE",
"521 574 CURVE",
"493 574 LINE",
"481 575 OFFCURVE",
"469 575 OFFCURVE",
"456 575 CURVE SMOOTH",
"423 575 LINE",
"379 573 LINE",
"372 573 OFFCURVE",
"365 572 OFFCURVE",
"360 571 CURVE",
"308 570 LINE SMOOTH",
"295 570 OFFCURVE",
"283 571 OFFCURVE",
"271 573 CURVE",
"263 574 OFFCURVE",
"251 574 OFFCURVE",
"235 574 CURVE SMOOTH",
"225 574 OFFCURVE",
"218 574 OFFCURVE",
"214 573 CURVE",
"209 571 OFFCURVE",
"203 570 OFFCURVE",
"195 570 CURVE SMOOTH",
"188 570 LINE",
"184 567 OFFCURVE",
"179 563 OFFCURVE",
"179 560 CURVE",
"111 294 LINE SMOOTH",
"92 223 OFFCURVE",
"75 152 OFFCURVE",
"60 79 CURVE",
"60 77 OFFCURVE",
"60 75 OFFCURVE",
"59 72 CURVE SMOOTH",
"58 69 OFFCURVE",
"58 65 OFFCURVE",
"58 60 CURVE",
"55 50 OFFCURVE",
"53 41 OFFCURVE",
"53 33 CURVE",
"50 10 OFFCURVE",
"55 -1 OFFCURVE",
"68 -1 CURVE SMOOTH",
"80 -1 LINE SMOOTH",
"89 -1 OFFCURVE",
"95 -1 OFFCURVE",
"99 0 CURVE",
"123 0 LINE SMOOTH",
"142 0 OFFCURVE",
"154 0 OFFCURVE",
"160 1 CURVE",
"168 1 LINE",
"248 1 LINE SMOOTH",
"249 1 OFFCURVE",
"250 1 OFFCURVE",
"252 2 CURVE",
"254 2 OFFCURVE",
"257 2 OFFCURVE",
"260 3 CURVE",
"288 3 LINE",
"326 5 LINE",
"327 5 OFFCURVE",
"328 4 OFFCURVE",
"331 3 CURVE",
"332 2 OFFCURVE",
"335 1 OFFCURVE",
"339 1 CURVE SMOOTH",
"341 1 LINE",
"341 1 OFFCURVE",
"342 1 OFFCURVE",
"343 2 CURVE",
"344 2 OFFCURVE",
"346 2 OFFCURVE",
"348 3 CURVE",
"354 5 LINE",
"362 18 OFFCURVE",
"374 71 OFFCURVE",
"375 78 CURVE SMOOTH",
"376 85 OFFCURVE",
"377 93 OFFCURVE",
"380 103 CURVE",
"405 103 LINE",
"431 103 LINE SMOOTH",
"449 103 OFFCURVE",
"465 104 OFFCURVE",
"479 106 CURVE",
"489 54 OFFCURVE",
"498 20 OFFCURVE",
"505 5 CURVE",
"516 5 OFFCURVE",
"529 4 OFFCURVE",
"545 3 CURVE",
"551 3 OFFCURVE",
"555 3 OFFCURVE",
"558 2 CURVE",
"539 -10 LINE SMOOTH",
"536 -12 OFFCURVE",
"530 -15 OFFCURVE",
"523 -19 CURVE",
"515 -24 OFFCURVE",
"509 -28 OFFCURVE",
"504 -33 CURVE",
"448 -70 OFFCURVE",
"421 -103 OFFCURVE",
"421 -163 CURVE SMOOTH",
"421 -175 OFFCURVE",
"423 -186 OFFCURVE",
"426 -195 CURVE",
"437 -220 OFFCURVE",
"460 -240 OFFCURVE",
"497 -253 CURVE SMOOTH",
"536 -268 OFFCURVE",
"591 -276 OFFCURVE",
"664 -276 CURVE",
"674 -274 LINE",
"676 -273 OFFCURVE",
"679 -273 OFFCURVE",
"682 -273 CURVE SMOOTH",
"685 -273 OFFCURVE",
"689 -272 OFFCURVE",
"694 -271 CURVE",
"705 -270 OFFCURVE",
"721 -265 OFFCURVE",
"741 -258 CURVE",
"754 -251 OFFCURVE",
"766 -245 OFFCURVE",
"767 -240 CURVE SMOOTH",
"784 -158 LINE",
"784 -153 LINE SMOOTH",
"784 -148 OFFCURVE",
"782 -145 OFFCURVE",
"777 -143 CURVE"
);
},
{
closed = 1;
nodes = (
"454 216 OFFCURVE",
"450 218 OFFCURVE",
"443 218 CURVE SMOOTH",
"440 218 LINE SMOOTH",
"439 218 OFFCURVE",
"435 215 OFFCURVE",
"434 214 CURVE",
"390 214 LINE",
"389 211 OFFCURVE",
"392 225 OFFCURVE",
"398 255 CURVE",
"399 267 OFFCURVE",
"401 276 OFFCURVE",
"402 281 CURVE",
"405 303 LINE",
"413 349 LINE",
"420 390 LINE SMOOTH",
"421 396 OFFCURVE",
"422 402 OFFCURVE",
"423 407 CURVE",
"424 417 OFFCURVE",
"426 424 OFFCURVE",
"427 428 CURVE",
"428 429 OFFCURVE",
"428 430 OFFCURVE",
"428 431 CURVE SMOOTH",
"428 434 LINE",
"428 438 LINE",
"428 438 OFFCURVE",
"429 440 OFFCURVE",
"430 444 CURVE",
"431 438 LINE",
"432 436 OFFCURVE",
"433 434 OFFCURVE",
"433 431 CURVE",
"435 419 LINE",
"436 416 OFFCURVE",
"437 412 OFFCURVE",
"438 406 CURVE SMOOTH",
"439 399 OFFCURVE",
"439 394 OFFCURVE",
"440 390 CURVE",
"441 384 OFFCURVE",
"443 378 OFFCURVE",
"444 371 CURVE SMOOTH",
"445 364 OFFCURVE",
"446 356 OFFCURVE",
"448 348 CURVE",
"449 341 OFFCURVE",
"450 334 OFFCURVE",
"451 327 CURVE SMOOTH",
"452 319 OFFCURVE",
"454 310 OFFCURVE",
"455 301 CURVE",
"463 253 LINE",
"464 249 OFFCURVE",
"466 236 OFFCURVE",
"470 213 CURVE",
"466 213 OFFCURVE",
"462 214 OFFCURVE",
"458 215 CURVE SMOOTH"
);
}
);
width = 808;
}
);
note = aogonek;
unicode = 0105;
},
{
glyphname = aringacute;
lastChange = "2017-06-11 23:28:21 +0000";
layers = (
{
layerId = "CBDECE4A-293B-4E5C-B714-A3FD26C7130D";
paths = (
{
closed = 1;
nodes = (
"648 802 OFFCURVE",
"650 802 OFFCURVE",
"651 803 CURVE",
"653 804 OFFCURVE",
"656 804 OFFCURVE",
"660 804 CURVE",
"663 803 OFFCURVE",
"666 803 OFFCURVE",
"668 803 CURVE SMOOTH",
"686 803 LINE",
"688 804 LINE",
"693 803 LINE",
"704 803 LINE",
"716 803 LINE SMOOTH",
"720 803 OFFCURVE",
"723 806 OFFCURVE",
"725 813 CURVE",
"734 830 OFFCURVE",
"741 846 OFFCURVE",
"745 861 CURVE",
"746 866 OFFCURVE",
"748 870 OFFCURVE",
"750 874 CURVE SMOOTH",
"752 878 OFFCURVE",
"753 882 OFFCURVE",
"754 885 CURVE",
"760 896 OFFCURVE",
"766 909 OFFCURVE",
"771 924 CURVE SMOOTH",
"772 927 OFFCURVE",
"774 933 OFFCURVE",
"777 941 CURVE",
"779 949 OFFCURVE",
"783 956 OFFCURVE",
"788 963 CURVE",
"789 964 OFFCURVE",
"790 966 OFFCURVE",
"791 969 CURVE SMOOTH",
"792 972 OFFCURVE",
"793 975 OFFCURVE",
"795 978 CURVE",
"803 993 LINE SMOOTH",
"808 1002 OFFCURVE",
"810 1008 OFFCURVE",
"811 1010 CURVE",
"813 1016 OFFCURVE",
"815 1022 OFFCURVE",
"818 1027 CURVE SMOOTH",
"821 1032 OFFCURVE",
"823 1035 OFFCURVE",
"824 1038 CURVE",
"831 1046 OFFCURVE",
"820 1051 OFFCURVE",
"803 1054 CURVE",
"801 1054 LINE",
"800 1053 OFFCURVE",
"799 1053 OFFCURVE",
"798 1053 CURVE",
"794 1055 LINE",
"768 1056 LINE",
"767 1056 OFFCURVE",
"767 1056 OFFCURVE",
"766 1057 CURVE SMOOTH",
"765 1058 OFFCURVE",
"764 1058 OFFCURVE",
"763 1058 CURVE SMOOTH",
"760 1058 LINE",
"753 1058 LINE",
"748 1058 LINE",
"743 1059 LINE",
"709 1058 LINE",
"669 1058 LINE",
"643 1053 LINE",
"638 1048 LINE",
"635 1033 OFFCURVE",
"631 1012 OFFCURVE",
"627 984 CURVE",
"626 969 OFFCURVE",
"624 959 OFFCURVE",
"623 953 CURVE",
"623 919 LINE SMOOTH",
"623 914 OFFCURVE",
"623 908 OFFCURVE",
"622 903 CURVE SMOOTH",
"621 898 OFFCURVE",
"621 892 OFFCURVE",
"621 886 CURVE SMOOTH",
"620 843 LINE SMOOTH",
"620 823 OFFCURVE",
"617 803 OFFCURVE",
"634 803 CURVE",
"645 802 LINE"
);
},
{
closed = 1;
nodes = (
"393 613 OFFCURVE",
"401 613 OFFCURVE",
"412 613 CURVE SMOOTH",
"434 613 OFFCURVE",
"459 613 OFFCURVE",
"483 620 CURVE SMOOTH",
"517 629 OFFCURVE",
"543 646 OFFCURVE",
"561 671 CURVE",
"565 673 LINE",
"589 708 OFFCURVE",
"603 753 OFFCURVE",
"603 794 CURVE SMOOTH",
"603 867 OFFCURVE",
"582 912 OFFCURVE",
"513 961 CURVE",
"481 978 OFFCURVE",
"459 981 OFFCURVE",
"386 981 CURVE SMOOTH",
"385 981 LINE SMOOTH",
"384 981 OFFCURVE",
"383 981 OFFCURVE",
"383 980 CURVE",
"378 981 OFFCURVE",
"370 981 OFFCURVE",
"361 981 CURVE SMOOTH",
"314 981 OFFCURVE",
"275 958 OFFCURVE",
"248 919 CURVE",
"220 883 OFFCURVE",
"205 836 OFFCURVE",
"205 789 CURVE SMOOTH",
"205 729 OFFCURVE",
"230 666 OFFCURVE",
"274 639 CURVE",
"312 620 OFFCURVE",
"350 611 OFFCURVE",
"388 613 CURVE"
);
},
{
closed = 1;
nodes = (
"367 726 OFFCURVE",
"336 744 OFFCURVE",
"336 768 CURVE SMOOTH",
"336 771 OFFCURVE",
"334 774 OFFCURVE",
"333 774 CURVE",
"333 780 LINE",
"333 785 LINE SMOOTH",
"333 818 OFFCURVE",
"340 843 OFFCURVE",
"355 859 CURVE SMOOTH",
"366 870 OFFCURVE",
"379 876 OFFCURVE",
"394 876 CURVE SMOOTH",
"410 876 OFFCURVE",
"423 875 OFFCURVE",
"433 873 CURVE",
"468 861 OFFCURVE",
"483 835 OFFCURVE",
"483 818 CURVE SMOOTH",
"483 814 LINE SMOOTH",
"483 806 OFFCURVE",
"477 770 OFFCURVE",
"453 746 CURVE",
"437 733 OFFCURVE",
"417 726 OFFCURVE",
"394 726 CURVE SMOOTH"
);
},
{
closed = 1;
nodes = (
"89 -1 OFFCURVE",
"95 -1 OFFCURVE",
"99 0 CURVE",
"123 0 LINE SMOOTH",
"142 0 OFFCURVE",
"154 0 OFFCURVE",
"160 1 CURVE",
"168 1 LINE",
"248 1 LINE SMOOTH",
"249 1 OFFCURVE",
"250 1 OFFCURVE",
"252 2 CURVE",
"254 2 OFFCURVE",
"257 2 OFFCURVE",
"260 3 CURVE",
"288 3 LINE",
"326 5 LINE",
"327 5 OFFCURVE",
"328 4 OFFCURVE",
"331 3 CURVE",
"332 2 OFFCURVE",
"335 1 OFFCURVE",
"339 1 CURVE SMOOTH",
"341 1 LINE",
"341 1 OFFCURVE",
"342 1 OFFCURVE",
"343 2 CURVE",
"344 2 OFFCURVE",
"346 2 OFFCURVE",
"348 3 CURVE",
"354 5 LINE",
"362 18 OFFCURVE",
"374 71 OFFCURVE",
"375 78 CURVE SMOOTH",
"376 85 OFFCURVE",
"377 93 OFFCURVE",
"380 103 CURVE",
"405 103 LINE",
"431 103 LINE SMOOTH",
"449 103 OFFCURVE",
"465 104 OFFCURVE",
"479 106 CURVE",
"489 54 OFFCURVE",
"498 20 OFFCURVE",
"505 5 CURVE",
"516 5 OFFCURVE",
"529 4 OFFCURVE",
"545 3 CURVE",
"554 3 OFFCURVE",
"560 2 OFFCURVE",
"563 1 CURVE",
"570 1 LINE",
"573 1 LINE SMOOTH",
"574 1 OFFCURVE",
"575 2 OFFCURVE",
"575 3 CURVE",
"578 5 LINE",
"581 5 OFFCURVE",
"583 4 OFFCURVE",
"584 3 CURVE",
"585 1 LINE",
"640 1 LINE",
"641 0 OFFCURVE",
"643 0 OFFCURVE",
"648 0 CURVE SMOOTH",
"665 0 LINE",
"686 0 LINE",
"708 0 LINE",
"713 -1 OFFCURVE",
"719 -1 OFFCURVE",
"728 -1 CURVE SMOOTH",
"739 -1 LINE SMOOTH",
"745 -1 OFFCURVE",
"750 2 OFFCURVE",
"753 9 CURVE",
"754 17 OFFCURVE",
"755 23 OFFCURVE",
"755 28 CURVE SMOOTH",
"755 36 OFFCURVE",
"754 47 OFFCURVE",
"751 60 CURVE SMOOTH",
"749 69 OFFCURVE",
"748 76 OFFCURVE",
"748 79 CURVE",
"735 138 OFFCURVE",
"718 209 OFFCURVE",
"696 294 CURVE SMOOTH",
"625 558 LINE",
"625 561 OFFCURVE",
"623 565 OFFCURVE",
"618 568 CURVE",
"609 568 LINE SMOOTH",
"605 568 OFFCURVE",
"602 569 OFFCURVE",
"599 570 CURVE SMOOTH",
"596 571 OFFCURVE",
"592 573 OFFCURVE",
"588 573 CURVE SMOOTH",
"550 573 LINE SMOOTH",
"537 573 OFFCURVE",
"528 573 OFFCURVE",
"521 574 CURVE",
"493 574 LINE",
"481 575 OFFCURVE",
"469 575 OFFCURVE",
"456 575 CURVE SMOOTH",
"423 575 LINE",
"379 573 LINE",
"372 573 OFFCURVE",
"365 572 OFFCURVE",
"360 571 CURVE",
"308 570 LINE SMOOTH",
"295 570 OFFCURVE",
"283 571 OFFCURVE",
"271 573 CURVE",
"263 574 OFFCURVE",
"251 574 OFFCURVE",
"235 574 CURVE SMOOTH",
"225 574 OFFCURVE",
"218 574 OFFCURVE",
"214 573 CURVE",
"209 571 OFFCURVE",
"203 570 OFFCURVE",
"195 570 CURVE SMOOTH",
"188 570 LINE",
"184 567 OFFCURVE",
"179 563 OFFCURVE",
"179 560 CURVE",
"111 294 LINE SMOOTH",
"92 223 OFFCURVE",
"75 152 OFFCURVE",
"60 79 CURVE",
"60 77 OFFCURVE",
"60 75 OFFCURVE",
"59 72 CURVE SMOOTH",
"58 69 OFFCURVE",
"58 65 OFFCURVE",
"58 60 CURVE",
"55 50 OFFCURVE",
"53 41 OFFCURVE",
"53 33 CURVE",
"50 10 OFFCURVE",
"55 -1 OFFCURVE",
"68 -1 CURVE SMOOTH",
"80 -1 LINE SMOOTH"
);
},
{
closed = 1;
nodes = (
"466 213 OFFCURVE",
"462 214 OFFCURVE",
"458 215 CURVE SMOOTH",
"454 216 OFFCURVE",
"450 218 OFFCURVE",
"443 218 CURVE SMOOTH",
"440 218 LINE SMOOTH",
"439 218 OFFCURVE",
"435 215 OFFCURVE",
"434 214 CURVE",
"390 214 LINE",
"389 211 OFFCURVE",
"392 225 OFFCURVE",
"398 255 CURVE",
"399 267 OFFCURVE",
"401 276 OFFCURVE",
"402 281 CURVE",
"405 303 LINE",
"413 349 LINE",
"420 390 LINE SMOOTH",
"421 396 OFFCURVE",
"422 402 OFFCURVE",
"423 407 CURVE",
"424 417 OFFCURVE",
"426 424 OFFCURVE",
"427 428 CURVE",
"428 429 OFFCURVE",
"428 430 OFFCURVE",
"428 431 CURVE SMOOTH",
"428 434 LINE",
"428 438 LINE",
"428 438 OFFCURVE",
"429 440 OFFCURVE",
"430 444 CURVE",
"431 438 LINE",
"432 436 OFFCURVE",
"433 434 OFFCURVE",
"433 431 CURVE",
"435 419 LINE",
"436 416 OFFCURVE",
"437 412 OFFCURVE",
"438 406 CURVE SMOOTH",
"439 399 OFFCURVE",
"439 394 OFFCURVE",
"440 390 CURVE",
"441 384 OFFCURVE",
"443 378 OFFCURVE",
"444 371 CURVE SMOOTH",
"445 364 OFFCURVE",
"446 356 OFFCURVE",
"448 348 CURVE",
"449 341 OFFCURVE",
"450 334 OFFCURVE",
"451 327 CURVE SMOOTH",
"452 319 OFFCURVE",
"454 310 OFFCURVE",
"455 301 CURVE",
"463 253 LINE",
"464 249 OFFCURVE",
"466 236 OFFCURVE",
"470 213 CURVE"
);
}
);
width = 808;
}
);
note = aringacute;
unicode = 01FB;
},
{
glyphname = ae;
lastChange = "2017-06-11 23:28:21 +0000";
layers = (
{
layerId = "CBDECE4A-293B-4E5C-B714-A3FD26C7130D";
paths = (
{
closed = 1;
nodes = (
"114 0 LINE",
"145 0 LINE SMOOTH",
"154 0 OFFCURVE",
"159 0 OFFCURVE",
"160 1 CURVE",
"221 1 LINE SMOOTH",
"222 1 OFFCURVE",
"223 1 OFFCURVE",
"225 2 CURVE",
"227 2 OFFCURVE",
"230 2 OFFCURVE",
"233 3 CURVE",
"260 3 LINE",
"300 5 LINE",
"305 3 LINE",
"306 2 OFFCURVE",
"308 1 OFFCURVE",
"313 1 CURVE SMOOTH",
"314 1 LINE SMOOTH",
"315 1 OFFCURVE",
"317 2 OFFCURVE",
"320 3 CURVE",
"328 5 LINE",
"338 18 OFFCURVE",
"355 50 OFFCURVE",
"378 103 CURVE",
"403 103 LINE",
"430 103 LINE SMOOTH",
"448 103 OFFCURVE",
"464 104 OFFCURVE",
"479 106 CURVE",
"477 82 OFFCURVE",
"476 61 OFFCURVE",
"476 43 CURVE SMOOTH",
"476 25 OFFCURVE",
"477 12 OFFCURVE",
"479 5 CURVE",
"487 5 OFFCURVE",
"500 4 OFFCURVE",
"519 3 CURVE",
"527 3 OFFCURVE",
"533 2 OFFCURVE",
"536 1 CURVE",
"543 1 LINE",
"546 1 LINE SMOOTH",
"547 1 OFFCURVE",
"548 2 OFFCURVE",
"549 3 CURVE SMOOTH",
"551 5 LINE",
"554 5 LINE",
"554 4 OFFCURVE",
"555 4 OFFCURVE",
"556 4 CURVE SMOOTH",
"558 4 LINE",
"558 1 LINE",
"613 1 LINE",
"614 0 OFFCURVE",
"616 0 OFFCURVE",
"621 0 CURVE SMOOTH",
"638 0 LINE",
"659 0 LINE",
"681 0 LINE",
"686 -1 OFFCURVE",
"692 -1 OFFCURVE",
"700 -1 CURVE SMOOTH",
"711 -1 LINE SMOOTH",
"761 -1 OFFCURVE",
"807 0 OFFCURVE",
"850 1 CURVE SMOOTH",
"886 3 LINE",
"895 3 OFFCURVE",
"907 4 OFFCURVE",
"923 5 CURVE SMOOTH",
"936 6 OFFCURVE",
"961 8 OFFCURVE",
"981 8 CURVE SMOOTH",
"984 8 LINE",
"991 8 LINE",
"998 15 LINE",
"999 23 LINE",
"999 26 LINE",
"999 46 LINE",
"998 57 OFFCURVE",
"994 70 OFFCURVE",
"993 75 CURVE",
"990 85 OFFCURVE",
"988 94 OFFCURVE",
"988 103 CURVE",
"987 106 OFFCURVE",
"986 108 OFFCURVE",
"986 111 CURVE SMOOTH",
"986 113 OFFCURVE",
"986 115 OFFCURVE",
"985 116 CURVE",
"982 126 OFFCURVE",
"980 131 OFFCURVE",
"978 131 CURVE SMOOTH",
"949 131 OFFCURVE",
"918 130 OFFCURVE",
"886 128 CURVE SMOOTH",
"855 126 OFFCURVE",
"825 125 OFFCURVE",
"794 125 CURVE",
"794 131 LINE",
"794 140 LINE",
"794 150 LINE",
"793 159 LINE",
"793 162 OFFCURVE",
"794 166 OFFCURVE",
"795 171 CURVE",
"796 193 LINE",
"795 200 LINE",
"795 204 LINE SMOOTH",
"795 211 OFFCURVE",
"796 217 OFFCURVE",
"799 220 CURVE",
"803 228 OFFCURVE",
"812 229 OFFCURVE",
"829 229 CURVE SMOOTH",
"858 229 LINE",
"903 229 LINE SMOOTH",
"932 229 OFFCURVE",
"952 230 OFFCURVE",
"963 233 CURVE",
"978 236 OFFCURVE",
"986 242 OFFCURVE",
"986 251 CURVE SMOOTH",
"986 254 LINE",
"984 320 LINE SMOOTH",
"983 339 OFFCURVE",
"971 349 OFFCURVE",
"960 348 CURVE",
"823 348 LINE SMOOTH",
"803 348 OFFCURVE",
"799 350 OFFCURVE",
"799 363 CURVE",
"800 383 LINE",
"805 412 OFFCURVE",
"808 430 OFFCURVE",
"809 436 CURVE",
"811 443 OFFCURVE",
"813 446 OFFCURVE",
"816 446 CURVE SMOOTH",
"838 446 LINE",
"845 445 OFFCURVE",
"855 445 OFFCURVE",
"869 445 CURVE SMOOTH",
"882 445 OFFCURVE",
"892 445 OFFCURVE",
"898 446 CURVE",
"919 446 OFFCURVE",
"934 450 OFFCURVE",
"941 451 CURVE",
"949 453 OFFCURVE",
"956 454 OFFCURVE",
"963 454 CURVE SMOOTH",
"967 454 OFFCURVE",
"970 454 OFFCURVE",
"973 453 CURVE",
"974 451 OFFCURVE",
"977 450 OFFCURVE",
"981 450 CURVE SMOOTH",
"986 450 OFFCURVE",
"990 451 OFFCURVE",
"994 453 CURVE",
"999 454 OFFCURVE",
"1003 455 OFFCURVE",
"1005 454 CURVE",
"1007 454 OFFCURVE",
"1008 454 OFFCURVE",
"1009 453 CURVE SMOOTH",
"1010 452 OFFCURVE",
"1011 452 OFFCURVE",
"1012 451 CURVE SMOOTH",
"1013 450 OFFCURVE",
"1013 450 OFFCURVE",
"1013 450 CURVE",
"1020 450 OFFCURVE",
"1023 459 OFFCURVE",
"1023 478 CURVE",
"1021 483 OFFCURVE",
"1019 494 OFFCURVE",
"1016 511 CURVE SMOOTH",
"1009 548 OFFCURVE",
"1008 558 OFFCURVE",
"1001 570 CURVE SMOOTH",
"998 575 OFFCURVE",
"993 578 OFFCURVE",
"988 578 CURVE SMOOTH",
"958 578 LINE",
"958 581 OFFCURVE",
"957 581 OFFCURVE",
"953 581 CURVE SMOOTH",
"923 581 OFFCURVE",
"891 580 OFFCURVE",
"858 578 CURVE SMOOTH",
"823 575 OFFCURVE",
"791 573 OFFCURVE",
"764 573 CURVE SMOOTH",
"738 573 OFFCURVE",
"713 574 OFFCURVE",
"689 576 CURVE SMOOTH",
"669 577 OFFCURVE",
"637 578 OFFCURVE",
"594 578 CURVE SMOOTH",
"573 578 OFFCURVE",
"558 577 OFFCURVE",
"549 575 CURVE",
"522 574 LINE",
"513 573 OFFCURVE",
"502 573 OFFCURVE",
"489 573 CURVE",
"473 571 OFFCURVE",
"451 570 OFFCURVE",
"424 570 CURVE SMOOTH",
"410 570 OFFCURVE",
"398 571 OFFCURVE",
"388 573 CURVE",
"379 574 OFFCURVE",
"368 574 OFFCURVE",
"353 574 CURVE SMOOTH",
"342 574 OFFCURVE",
"334 574 OFFCURVE",
"331 573 CURVE SMOOTH",
"325 571 OFFCURVE",
"318 570 OFFCURVE",
"311 570 CURVE SMOOTH",
"303 570 LINE",
"299 567 OFFCURVE",
"293 563 OFFCURVE",
"293 560 CURVE",
"168 294 LINE SMOOTH",
"149 256 OFFCURVE",
"124 199 OFFCURVE",
"92 123 CURVE SMOOTH",
"73 79 LINE",
"64 60 LINE",
"62 55 OFFCURVE",
"60 51 OFFCURVE",
"59 46 CURVE",
"55 37 OFFCURVE",
"50 21 OFFCURVE",
"50 13 CURVE SMOOTH",
"50 4 OFFCURVE",
"54 -1 OFFCURVE",
"61 -1 CURVE",
"81 0 LINE"
);
},
{
closed = 1;
nodes = (
"494 213 OFFCURVE",
"490 214 OFFCURVE",
"483 215 CURVE",
"475 217 OFFCURVE",
"470 218 OFFCURVE",
"469 218 CURVE SMOOTH",
"468 218 LINE SMOOTH",
"467 218 OFFCURVE",
"465 218 OFFCURVE",
"464 217 CURVE SMOOTH",
"463 216 OFFCURVE",
"461 215 OFFCURVE",
"460 214 CURVE",
"418 214 LINE",
"421 225 OFFCURVE",
"430 246 OFFCURVE",
"434 255 CURVE SMOOTH",
"459 314 LINE SMOOTH",
"461 319 OFFCURVE",
"463 325 OFFCURVE",
"466 331 CURVE",
"468 336 OFFCURVE",
"470 342 OFFCURVE",
"473 349 CURVE SMOOTH",
"489 386 OFFCURVE",
"499 410 OFFCURVE",
"503 419 CURVE",
"504 423 OFFCURVE",
"506 426 OFFCURVE",
"507 428 CURVE",
"508 429 OFFCURVE",
"508 430 OFFCURVE",
"508 431 CURVE",
"514 444 LINE",
"514 431 LINE SMOOTH",
"514 430 OFFCURVE",
"514 429 OFFCURVE",
"514 428 CURVE",
"513 426 OFFCURVE",
"513 423 OFFCURVE",
"513 419 CURVE SMOOTH",
"513 416 OFFCURVE",
"513 412 OFFCURVE",
"512 407 CURVE SMOOTH",
"511 402 OFFCURVE",
"511 396 OFFCURVE",
"510 390 CURVE",
"509 374 OFFCURVE",
"508 360 OFFCURVE",
"508 348 CURVE",
"504 327 OFFCURVE",
"502 296 OFFCURVE",
"499 253 CURVE",
"499 244 OFFCURVE",
"497 224 OFFCURVE",
"496 213 CURVE"
);
}
);
width = 1078;
}
);
note = ae;
unicode = 00E6;
},
{
glyphname = b;
lastChange = "2017-07-11 18:46:29 +0000";
layers = (
{
layerId = "CBDECE4A-293B-4E5C-B714-A3FD26C7130D";
paths = (
{
closed = 1;
nodes = (
"376 162 OFFCURVE",
"368 172 OFFCURVE",
"362 193 CURVE",
"357 213 OFFCURVE",
"354 238 OFFCURVE",
"354 266 CURVE",
"351 282 OFFCURVE",
"350 300 OFFCURVE",
"350 322 CURVE",
"351 331 LINE",
"351 337 OFFCURVE",
"354 344 OFFCURVE",
"354 348 CURVE",
"357 385 OFFCURVE",
"375 426 OFFCURVE",
"413 426 CURVE SMOOTH",
"429 426 OFFCURVE",
"436 394 OFFCURVE",
"445 344 CURVE SMOOTH",
"449 321 OFFCURVE",
"450 282 OFFCURVE",
"450 271 CURVE",
"448 250 OFFCURVE",
"446 232 OFFCURVE",
"442 213 CURVE",
"430 183 OFFCURVE",
"415 162 OFFCURVE",
"386 162 CURVE SMOOTH"
);
},
{
closed = 1;
nodes = (
"36 484 LINE",
"37 462 LINE",
"37 244 LINE SMOOTH",
"37 199 OFFCURVE",
"37 167 OFFCURVE",
"39 152 CURVE",
"39 122 LINE",
"42 98 OFFCURVE",
"43 75 OFFCURVE",
"43 49 CURVE SMOOTH",
"43 11 OFFCURVE",
"47 -12 OFFCURVE",
"71 -12 CURVE SMOOTH",
"138 -11 LINE",
"239 -11 LINE",
"247 -9 OFFCURVE",
"264 -9 OFFCURVE",
"287 -9 CURVE SMOOTH",
"306 -9 OFFCURVE",
"319 -7 OFFCURVE",
"330 0 CURVE",
"333 1 OFFCURVE",
"348 10 OFFCURVE",
"344 24 CURVE",
"343 29 OFFCURVE",
"343 34 OFFCURVE",
"343 36 CURVE",
"344 37 OFFCURVE",
"344 39 OFFCURVE",
"344 40 CURVE",
"345 43 OFFCURVE",
"345 43 OFFCURVE",
"346 43 CURVE",
"393 0 OFFCURVE",
"450 -9 OFFCURVE",
"507 -9 CURVE SMOOTH",
"641 -9 OFFCURVE",
"729 63 OFFCURVE",
"729 261 CURVE SMOOTH",
"729 320 OFFCURVE",
"712 429 OFFCURVE",
"680 469 CURVE",
"622 540 OFFCURVE",
"562 563 OFFCURVE",
"464 563 CURVE SMOOTH",
"378 563 OFFCURVE",
"326 521 OFFCURVE",
"320 521 CURVE",
"320 636 LINE",
"319 636 LINE",
"320 693 LINE",
"320 745 LINE SMOOTH",
"320 759 OFFCURVE",
"294 763 OFFCURVE",
"265 763 CURVE SMOOTH",
"255 763 OFFCURVE",
"244 763 OFFCURVE",
"233 762 CURVE SMOOTH",
"222 761 OFFCURVE",
"214 760 OFFCURVE",
"208 760 CURVE",
"196 759 OFFCURVE",
"157 757 OFFCURVE",
"132 757 CURVE",
"127 761 LINE",
"69 757 LINE",
"28 760 OFFCURVE",
"35 738 OFFCURVE",
"35 728 CURVE SMOOTH",
"35 600 OFFCURVE",
"36 588 OFFCURVE",
"36 487 CURVE SMOOTH"
);
}
);
width = 754;
}
);
note = b;
unicode = 0062;
},
{
glyphname = c;
lastChange = "2017-07-10 16:37:56 +0000";
layers = (
{
layerId = "CBDECE4A-293B-4E5C-B714-A3FD26C7130D";
paths = (
{
closed = 1;
nodes = (
"500 181 OFFCURVE",
"480 170 OFFCURVE",
"459 166 CURVE SMOOTH",
"426 160 LINE",
"360 160 OFFCURVE",
"311 218 OFFCURVE",
"311 294 CURVE SMOOTH",
"311 377 OFFCURVE",
"398 414 OFFCURVE",
"434 414 CURVE",
"434 414 OFFCURVE",
"435 414 OFFCURVE",
"435 415 CURVE",
"456 418 OFFCURVE",
"446 414 OFFCURVE",
"464 414 CURVE SMOOTH",
"475 414 LINE",
"543 405 LINE",
"559 414 OFFCURVE",
"561 430 OFFCURVE",
"561 456 CURVE SMOOTH",
"561 471 OFFCURVE",
"561 494 OFFCURVE",
"559 507 CURVE",
"558 516 OFFCURVE",
"557 524 OFFCURVE",
"557 532 CURVE",
"555 548 LINE",
"553 548 LINE SMOOTH",
"551 548 OFFCURVE",
"549 548 OFFCURVE",
"547 552 CURVE",
"546 555 OFFCURVE",
"543 557 OFFCURVE",
"543 558 CURVE",
"541 560 OFFCURVE",
"540 561 OFFCURVE",
"539 561 CURVE SMOOTH",
"531 561 OFFCURVE",
"518 564 OFFCURVE",
"507 566 CURVE SMOOTH",
"483 570 LINE",
"473 570 OFFCURVE",
"467 571 OFFCURVE",
"462 571 CURVE",
"413 578 OFFCURVE",
"406 581 OFFCURVE",
"380 581 CURVE SMOOTH",
"284 581 OFFCURVE",
"176 555 OFFCURVE",
"116 507 CURVE SMOOTH",
"54 458 OFFCURVE",
"20 377 OFFCURVE",
"20 285 CURVE",
"31 195 OFFCURVE",
"53 112 OFFCURVE",
"116 64 CURVE SMOOTH",
"177 18 OFFCURVE",
"251 -7 OFFCURVE",
"345 -7 CURVE SMOOTH",
"424 -7 OFFCURVE",
"516 -3 OFFCURVE",
"574 55 CURVE",
"573 93 OFFCURVE",
"570 133 OFFCURVE",
"553 178 CURVE",
"553 180 LINE",
"552 186 OFFCURVE",
"548 191 OFFCURVE",
"542 195 CURVE"
);
}
);
width = 589;
}
);
leftKerningGroup = c;
note = c;
unicode = 0063;
},
{
glyphname = ccedilla;
lastChange = "2017-06-11 23:28:21 +0000";
layers = (
{
layerId = "CBDECE4A-293B-4E5C-B714-A3FD26C7130D";
paths = (
{
closed = 1;
nodes = (
"462 441 OFFCURVE",
"508 429 OFFCURVE",
"513 428 CURVE SMOOTH",
"536 423 LINE",
"549 535 LINE",
"474 578 OFFCURVE",
"402 600 OFFCURVE",
"333 600 CURVE SMOOTH",
"250 600 OFFCURVE",
"178 570 OFFCURVE",
"125 514 CURVE SMOOTH",
"72 457 OFFCURVE",
"43 372 OFFCURVE",
"43 268 CURVE SMOOTH",
"43 97 OFFCURVE",
"107 20 OFFCURVE",
"208 -8 CURVE SMOOTH",
"215 -10 OFFCURVE",
"225 -12 OFFCURVE",
"238 -15 CURVE",
"228 -78 LINE",
"226 -118 LINE",
"239 -112 OFFCURVE",
"253 -109 OFFCURVE",
"268 -109 CURVE SMOOTH",
"307 -109 OFFCURVE",
"331 -128 OFFCURVE",
"331 -163 CURVE SMOOTH",
"331 -196 OFFCURVE",
"311 -229 OFFCURVE",
"266 -229 CURVE SMOOTH",
"241 -229 OFFCURVE",
"218 -224 OFFCURVE",
"197 -215 CURVE",
"196 -216 OFFCURVE",
"195 -219 OFFCURVE",
"193 -224 CURVE SMOOTH",
"191 -229 OFFCURVE",
"189 -236 OFFCURVE",
"186 -243 CURVE",
"176 -298 LINE",
"182 -305 OFFCURVE",
"191 -311 OFFCURVE",
"202 -315 CURVE SMOOTH",
"225 -324 OFFCURVE",
"246 -328 OFFCURVE",
"266 -328 CURVE SMOOTH",
"283 -328 LINE SMOOTH",
"452 -328 OFFCURVE",
"506 -261 OFFCURVE",
"506 -174 CURVE SMOOTH",
"506 -115 OFFCURVE",
"454 -65 OFFCURVE",
"341 -48 CURVE",
"346 -24 LINE",
"353 -24 LINE SMOOTH",
"386 -24 OFFCURVE",
"417 -17 OFFCURVE",
"448 -4 CURVE SMOOTH",
"482 9 OFFCURVE",
"511 26 OFFCURVE",
"534 48 CURVE",
"524 190 LINE",
"485 163 OFFCURVE",
"440 139 OFFCURVE",
"408 139 CURVE SMOOTH",
"385 139 OFFCURVE",
"367 149 OFFCURVE",
"354 170 CURVE",
"340 195 OFFCURVE",
"333 231 OFFCURVE",
"333 280 CURVE SMOOTH",
"333 399 OFFCURVE",
"370 441 OFFCURVE",
"433 441 CURVE SMOOTH"
);
}
);
width = 594;
}
);
leftKerningGroup = c;
note = ccedilla;
unicode = 00E7;
},
{
glyphname = d;
lastChange = "2017-07-10 16:38:56 +0000";
layers = (
{
layerId = "CBDECE4A-293B-4E5C-B714-A3FD26C7130D";
paths = (
{
closed = 1;
nodes = (
"350 172 OFFCURVE",
"342 183 OFFCURVE",
"336 207 CURVE",
"331 229 OFFCURVE",
"328 257 OFFCURVE",
"328 289 CURVE",
"325 307 OFFCURVE",
"324 327 OFFCURVE",
"324 352 CURVE",
"325 362 LINE",
"325 369 OFFCURVE",
"328 377 OFFCURVE",
"328 381 CURVE",
"331 423 OFFCURVE",
"350 469 OFFCURVE",
"387 469 CURVE SMOOTH",
"403 469 OFFCURVE",
"410 433 OFFCURVE",
"419 377 CURVE SMOOTH",
"423 351 OFFCURVE",
"424 307 OFFCURVE",
"424 294 CURVE",
"422 271 OFFCURVE",
"420 251 OFFCURVE",
"416 229 CURVE",
"404 195 OFFCURVE",
"389 172 OFFCURVE",
"360 172 CURVE SMOOTH"
);
},
{
closed = 1;
nodes = (
"718 591 OFFCURVE",
"719 613 OFFCURVE",
"719 741 CURVE SMOOTH",
"719 751 OFFCURVE",
"726 773 OFFCURVE",
"685 770 CURVE",
"627 774 LINE",
"622 770 LINE",
"597 770 OFFCURVE",
"558 772 OFFCURVE",
"546 773 CURVE",
"540 773 OFFCURVE",
"532 774 OFFCURVE",
"521 775 CURVE SMOOTH",
"510 776 OFFCURVE",
"499 776 OFFCURVE",
"489 776 CURVE SMOOTH",
"460 776 OFFCURVE",
"434 772 OFFCURVE",
"434 758 CURVE SMOOTH",
"434 706 LINE",
"435 639 LINE",
"434 639 LINE",
"434 578 LINE",
"419 578 OFFCURVE",
"401 578 OFFCURVE",
"383 579 CURVE SMOOTH",
"364 580 OFFCURVE",
"331 580 OFFCURVE",
"290 580 CURVE SMOOTH",
"192 580 OFFCURVE",
"132 554 OFFCURVE",
"74 480 CURVE",
"42 437 OFFCURVE",
"25 351 OFFCURVE",
"25 287 CURVE SMOOTH",
"25 89 OFFCURVE",
"113 -9 OFFCURVE",
"247 -9 CURVE SMOOTH",
"304 -9 OFFCURVE",
"361 3 OFFCURVE",
"408 86 CURVE",
"409 86 OFFCURVE",
"409 99 OFFCURVE",
"410 96 CURVE",
"410 95 OFFCURVE",
"410 80 OFFCURVE",
"411 79 CURVE",
"411 77 OFFCURVE",
"411 72 OFFCURVE",
"410 67 CURVE",
"409 63 OFFCURVE",
"409 58 OFFCURVE",
"409 54 CURVE SMOOTH",
"409 44 LINE SMOOTH",
"409 24 OFFCURVE",
"414 8 OFFCURVE",
"424 3 CURVE",
"435 -4 OFFCURVE",
"448 -6 OFFCURVE",
"467 -6 CURVE SMOOTH",
"490 -6 OFFCURVE",
"507 -6 OFFCURVE",
"515 -8 CURVE",
"616 -8 LINE",
"683 -9 LINE SMOOTH",
"707 -9 OFFCURVE",
"711 14 OFFCURVE",
"711 52 CURVE SMOOTH",
"711 78 OFFCURVE",
"712 101 OFFCURVE",
"715 125 CURVE",
"715 155 LINE",
"717 170 OFFCURVE",
"717 202 OFFCURVE",
"717 247 CURVE SMOOTH",
"717 465 LINE",
"718 487 LINE",
"718 490 LINE SMOOTH"
);
}
);
width = 754;
}
);
note = d;
unicode = 0064;
},
{
glyphname = eth;
lastChange = "2017-06-11 23:28:21 +0000";
layers = (
{
layerId = "CBDECE4A-293B-4E5C-B714-A3FD26C7130D";
paths = (
{
closed = 1;
nodes = (
"472 0 OFFCURVE",
"564 22 OFFCURVE",
"623 73 CURVE SMOOTH",
"680 122 OFFCURVE",
"705 200 OFFCURVE",
"705 319 CURVE SMOOTH",
"705 385 OFFCURVE",
"692 439 OFFCURVE",
"665 480 CURVE SMOOTH",
"618 551 OFFCURVE",
"543 578 OFFCURVE",
"468 578 CURVE SMOOTH",
"413 578 OFFCURVE",
"374 577 OFFCURVE",
"351 576 CURVE SMOOTH",
"327 575 OFFCURVE",
"294 575 OFFCURVE",
"251 575 CURVE SMOOTH",
"222 575 OFFCURVE",
"198 575 OFFCURVE",
"179 576 CURVE",
"161 576 OFFCURVE",
"147 576 OFFCURVE",
"138 577 CURVE",
"80 578 LINE SMOOTH",
"71 578 OFFCURVE",
"58 564 OFFCURVE",
"58 555 CURVE SMOOTH",
"58 396 LINE",
"28 396 LINE SMOOTH",
"16 396 OFFCURVE",
"0 385 OFFCURVE",
"0 373 CURVE SMOOTH",
"0 343 OFFCURVE",
"0 321 OFFCURVE",
"1 308 CURVE",
"1 243 LINE SMOOTH",
"1 235 OFFCURVE",
"4 229 OFFCURVE",
"10 226 CURVE",
"19 219 OFFCURVE",
"36 216 OFFCURVE",
"59 216 CURVE",
"60 209 OFFCURVE",
"60 200 OFFCURVE",
"60 188 CURVE",
"61 175 OFFCURVE",
"61 156 OFFCURVE",
"61 133 CURVE",
"62 110 OFFCURVE",
"63 84 OFFCURVE",
"63 54 CURVE SMOOTH",
"63 21 OFFCURVE",
"66 1 OFFCURVE",
"85 1 CURVE SMOOTH",
"147 1 OFFCURVE",
"191 1 OFFCURVE",
"216 0 CURVE",
"329 0 LINE SMOOTH"
);
},
{
closed = 1;
nodes = (
"344 220 OFFCURVE",
"358 224 OFFCURVE",
"364 233 CURVE",
"370 239 OFFCURVE",
"373 251 OFFCURVE",
"373 268 CURVE SMOOTH",
"373 293 LINE",
"373 314 LINE",
"374 335 OFFCURVE",
"375 355 OFFCURVE",
"375 373 CURVE SMOOTH",
"375 377 OFFCURVE",
"373 381 OFFCURVE",
"369 385 CURVE",
"360 390 OFFCURVE",
"348 394 OFFCURVE",
"333 395 CURVE",
"330 395 LINE",
"331 404 OFFCURVE",
"331 418 OFFCURVE",
"331 436 CURVE",
"332 447 OFFCURVE",
"333 462 OFFCURVE",
"333 481 CURVE",
"334 482 OFFCURVE",
"338 484 OFFCURVE",
"345 485 CURVE",
"355 488 OFFCURVE",
"368 490 OFFCURVE",
"383 490 CURVE SMOOTH",
"394 490 OFFCURVE",
"403 486 OFFCURVE",
"410 479 CURVE SMOOTH",
"438 452 OFFCURVE",
"446 398 OFFCURVE",
"449 351 CURVE",
"449 335 LINE SMOOTH",
"449 291 OFFCURVE",
"443 249 OFFCURVE",
"430 208 CURVE",
"418 164 OFFCURVE",
"400 131 OFFCURVE",
"383 120 CURVE",
"376 117 OFFCURVE",
"370 116 OFFCURVE",
"365 115 CURVE",
"356 114 OFFCURVE",
"339 113 OFFCURVE",
"315 113 CURVE",
"323 220 LINE"
);
}
);
width = 751;
}
);
note = eth;
unicode = 00F0;
},
